<?xml version="1.0" encoding="UTF-8"?>
<!DOCTYPE svg PUBLIC "-//W3C//DTD SVG 1.1//EN" "http://www.w3.org/Graphics/SVG/1.1/DTD/svg11.dtd">
<!-- Creator: CorelDRAW X6 -->
<svg xmlns="http://www.w3.org/2000/svg" xml:space="preserve" width="184.83mm" height="80.9553mm" version="1.1" style="shape-rendering:geometricPrecision; text-rendering:geometricPrecision; image-rendering:optimizeQuality; fill-rule:evenodd; clip-rule:evenodd"
viewBox="0 0 2880 1261"
 xmlns:xlink="http://www.w3.org/1999/xlink">
 <defs>
  <style type="text/css">
   <![CDATA[
    .fil0 {fill:#FFED00}
    .fil1 {fill:#FDF399}
   ]]>
  </style>
 </defs>
 <g id="Capa_x0020_1">
  <metadata id="CorelCorpID_0Corel-Layer"/>
  <path class="fil0" d="M1307 59c792,-147 1493,-10 1566,306 73,316 -509,691 -1301,837 -792,147 -1493,10 -1566,-306 -73,-316 510,-691 1301,-837z"/>
  <path class="fil1" d="M1602 540l-341 61 -55 51 2 98 136 2 147 -39 241 -33 220 -113 47 -153 -470 -45 -363 67 -222 114 -122 178 9 126 176 66 509 -37 426 -42 200 -118 350 -324 -328 -197 -464 -24 -485 106c0,0 -420,126 -437,136 -17,10 -274,151 -289,167 -16,16 -119,226 -119,226 0,0 221,201 225,212 4,10 756,55 756,55l625 -121c0,0 426,-192 437,-196 11,-4 339,-241 341,-253l28 -188 -187 -135c-20,-14 -374,-122 -374,-122l-462 -11 -885 197 -576 257 -231 338 232 210 412 139 879 -25 215 -55 403 -140 297 -163 -363 153 -303 101 -350 78 -172 6 -252 -21 -310 12 -342 -102 -183 -277 141 -238 434 -186 291 -73 471 -132 294 -40 325 41 351 130 85 129 -54 127 -199 125 -357 222 -277 92 -435 75 -430 -31c0,0 -201,-86 -211,-90 -11,-5 -74,-99 -74,-99l16 -124 140 -128 278 -142 266 -93 636 -60 363 138 -243 199 -156 169 -656 79 -276 -8 -21 -130 150 -142 202 -75 294 -38 327 8 -111 99 -315 105 -205 38 8 -68 320 -101z"/>
 </g>
</svg>
