<?xml version="1.0" encoding="UTF-8"?>
<svg xmlns="http://www.w3.org/2000/svg" version="1.1" xmlns:xlink="http://www.w3.org/1999/xlink" viewBox="0 0 800 500">
  <defs>
    <clipPath id="clippath">
      <rect width="800" height="500" style="fill: none;"/>
    </clipPath>
  </defs>
  <!-- Generator: Adobe Illustrator 28.7.7, SVG Export Plug-In . SVG Version: 1.2.0 Build 194)  -->
  <g>
    <g id="_x30_">
      <g>
        <!-- Fondo blanco eliminado para transparencia -->
        <g style="clip-path: url(#clippath);">
          <g>
            <g>
              <g>
                <path d="M647.348,185.05c22.571.955,38.253-8.081,36.371-7.146-10.304,5.117-24.808-11.493-55.459.244-2.191.839-12.333,12.998-12.333,12.998,0,0,8.85-7.051,31.421-6.096Z" style="fill: #ff1515;"/>
                <path d="M531.567,224.165c-10.316,3.022-23.487-3.282-23.487-3.282,1.007,3.423,13.508,12.638,23.487,3.282Z" style="fill: #ff1515;"/>
                <path d="M813.958,323.541v-126.364c-13.667-9.173-24.186-20.265-29.687-1.265-12.059,41.651-20.25,61.32-75.151,38.58-16.677-6.907-4.565-8.316-26.521-8.4-21.955-.085-44.841-1.665-38.883,10.398,5.958,12.063,19.434,23.194-2.22,21.885-21.655-1.309-35.683-31.492-50.039-30.77-14.356.722,1.784,19.322-12.983,19.953-14.766.632-11.697-29.033-28.966-26.799-3.214.416-15.174,3.423-15.174,3.423,0,0,33.3-4.914,22.856,15.61-10.444,20.524,29.627,42.294,32.949,23.232,3.322-19.062,5.503-38.804,19.641-18.923,14.137,19.881-3.729,54.251,19.316,47.261,23.045-6.99,67.054-15.403,51.345-26.164-15.709-10.761-23.959-15.317-14.288-25.077,12.391-12.505,36.378,51.907,57.078,37.907,31.738-21.464,86.64-27.252,65.614,8.804-13.208,22.65-12.68,47.985,16.143,53.879,3.025-7.047,6.065-12.741,8.971-17.171Z" style="fill: #ff1515;"/>
                <path d="M813.958,345.905c-22.006,29.747-7.181,46.656,0,52.433v-52.433Z" style="fill: #ff1515;"/>
              </g>
              <path d="M813.958,371.328c-6.811-3.893-.965-21.391-.965-21.391,0,0-12.382,30.99-3.318,37.207,1.45,1.003,2.889,1.595,4.284,1.891v-17.707Z" style="fill: #ff7300;"/>
              <g>
                <path d="M604.919,235.788c3.393,3.363,6.753,7.874,10.308,12.415-1.328-2.329-5.032-8.967-10.308-12.415Z" style="fill: #ff7300;"/>
                <path d="M594.242,230.297c-14.544.582-.495,20.972-16.063,21.702-7.814.366-15.759-.104-15.31-9.784.448-9.68-2.894-12.241-4.599-16.877s-13.856-2.914-13.856-2.914c0,0,14.975-.582,16.136,9.763,1.161,10.345-7.269,21.087,14.058,33.329,22.364,12.838,11.458-29.227,21.461-31.59,3.27-.772,6.247.16,8.849,1.861-3.44-3.41-6.918-5.641-10.676-5.491Z" style="fill: #ff7300;"/>
                <path d="M813.958,251.375v-40.324c-5.549-3.361-10.98-7.542-15.586-12.19-16.064-16.209-21.603,40.321-32.419,46.31-7.27,4.011-43.168,4.686-56.063-6.695-12.878-11.353-48.641-13.025-57.127-2.605-8.486,10.419-2.765,5.783,5.052,19.304,7.84,13.526,1.81,13.296-18.439,11.394-9.817-.943-17.315-9.643-24.072-18.252,6.708,11.757,4.508,20.159,5.874,33.095,1.343,12.932,49.964-5.237,56.801-10.198,6.837-4.961-13.693-6.663-17.713-21.797-4.001-15.107,8.196-20.032,27.33-5.904,11.569,8.548,6.714,18.766,21.363,26.161,14.649,7.395,26.842-.001,36.784-13.593,9.965-13.586,28.21,10.869,42.898,1.526,8.807-5.603,17.39-8.583,25.317-6.232Z" style="fill: #ff7300;"/>
                <path d="M813.958,276.957c-9.247,1.786-19.871,4.56-25.193,13.648-12.033,20.52,6.641,39.345,17.746,46.651.852-5.613,3.392-11.968,7.447-17.644v-42.655Z" style="fill: #ff7300;"/>
              </g>
              <path d="M629.301,182.75s4.65.612,17.033-.534c12.383-1.145,23.302-2.706,23.302-2.706,0,0-20.99-7.377-40.335,3.24Z" style="fill: #fdfd00;"/>
              <g>
                <path d="M813.958,251.174v-2.769c-11.77-3.056-18.395-16.945,0-17.893v-2.183c-5.859-4.291-10.999-7.814-13.946-8.815-11.708-3.984-23.485-6.954-24.992,18.678-.368,6.249.496,14.39-17.379,14.353-1.592-.015-2.963.019-4.182.06-.911-.071-2.238-.002-4.246.355-13.101,2.246-36.609-9.294-52.951-18.9-15.113-8.874-26.714-.329-28.966.669,3.488-.418,30.481-.774,31.882,12.425,1.505,14.251,5.705,17.977,20.225,21.575,11.272,2.808,21.091-2.423,25.896-11.892,4.805-9.47,26.961,1.902,31.73-7.756,8.351-16.952,19.741-.609,23.234-.228,5.391.584,9.916,1.373,13.693,2.321ZM713.193,248.016c4.987-2.791,18.026,6.503,28.401,6.36-4.763,10.097-42.499,1.482-28.401-6.36Z" style="fill: #fdfd00;"/>
                <path d="M813.958,305.074v-7.203c-6.77-5.589-5.02-12.865,0-16.049v-1.756c-4.951,2.507-10.438,4.404-15.52,5.258-17.18,2.895-1.119,29.963,3.403,37.028-2.108-3.845-5.12-13.211,12.117-17.278Z" style="fill: #fdfd00;"/>
                <path d="M666.914,234.837c.057.029.198-.02.379-.101-.289.035-.438.072-.379.101Z" style="fill: #fdfd00;"/>
              </g>
              <path d="M653.609,246.309c1.791,11.758,16.36,14.745,16.36,14.745-17.459-9.739-13.789-21.198-5.692-25.854,0,0-12.46-.648-10.669,11.11Z" style="fill: #fdfd00;"/>
              <path d="M621.982,254.009c10.829,14.17,3.141,27.511,8.205,27.103,14.584-1.175,19.698-16.478,36.144-8.366,16.446,8.112,3.662-6.916,3.662-6.916,0,0-1.182,5.087-5.738,3.673-7.592-2.357-15.331-9.304-22.888-4.164-7.838,5.331-9.333,1.315-12.459-3.806-1.696-2.779-6.926-7.524-6.926-7.524Z" style="fill: #fdfd00;"/>
              <path d="M562.441,232.351s-10.478,13.502,1.599,25.209c11.623,10.258,18.139,11.302,21.142,4.639,3.004-6.663,1.758-26.205,8.044-29.387,6.286-3.182,16.028,7.499,16.028,7.499,0,0-15.229-17.536-20.304-9.336-5.075,8.2,1.741,14.898-4.554,19.876-6.295,4.978-22.602,6.41-23.698-6.163-1.166-7.865,1.743-12.336,1.743-12.336Z" style="fill: #fdfd00;"/>
              <path d="M627.149,269.223c-.123-.742.389-1.773-3.204-8.851-3.593-7.078-8.696-12.487-8.65-12.047.047.439,7.251,8.267,4.374,8.865-2.877.598,7.48,12.034,7.48,12.034Z" style="fill: #fdfd00;"/>
              <path d="M813.958,254.41c-1.702-.665-3.539-1.217-5.498-1.566-10.829-1.926-12.207,11.874-12.207,11.874,2.788-4.018,10.104-6.55,17.705-6.053v-4.255Z" style="fill: #fdfd00;"/>
            </g>
            <g>
              <path d="M490.012,123.147c-28.815,3.842-46.745,21.772-46.105,13.447.64-8.324,6.403-80.683-3.842-72.999-10.245,7.684-16.649,17.289-19.851,5.123-3.202-12.167,2.561-29.578,19.21-47.126,16.649-17.548,42.903,23.434,48.026,6.144,3.671-12.388,2.737-49.758-5.388-66.182h-22.997c-17.802,14.739-37.378,40.138-46.534,17.516-1.967-4.86-3.22-10.934-3.841-17.516h-91.332c-1.955,5.186-3.827,10.781-5.361,16.876-8.396,33.369-2.561,65.955,10.886,59.552,13.447-6.403,31.707-45.464,50.112-44.824,18.405.64,12.001,29.772,27.369,27.053,15.368-2.72,19.21-20.649,23.052-11.044,3.842,9.605-28.175,17.289-29.456,34.579-1.281,17.289,6.403,56.99,16.649,55.71,10.246-1.281,28.175-33.938,28.815-8.325.64,25.614-5.763,50.587-7.044,58.911-1.281,8.324,29.456-14.012,53.789-6.365s27.535,15.971,27.535,15.971c0,0,5.123-40.341-23.693-36.499Z" style="fill: #ff1515;"/>
              <path d="M494.857,127.269c-18.645-10.751-47.361,16.808-53.507,17.193-6.169.386,1.089-67.185-.635-75.6-1.746-8.438-11.636,11.182-27.219,14.97-15.583,3.788-2.041-33.275,16.853-64.055,18.872-30.78,45.115,9.617,53.167,1.815,3.244-3.13,3.221-12.657,1.429-23.385-1.633,2.042-3.811,3.516-6.646,3.516-3.879.023-6.918-3.085-8.937-6.056-4.037-5.965-5.036-13.609-4.015-20.596.522-3.606,1.837-7.122,4.242-9.89.953-1.111,2.132-2.041,3.402-2.722-.21-.32-.42-.618-.629-.907h-13.129c-.207.127-.413.252-.622.385,0,0,0,.023-.023.023-10.593,6.714-25.291,20.822-36.677,26.084-4.446,2.064-8.393,2.767-11.387,1.157-5.19-2.796-8.801-13.924-10.299-27.649h-40.715c-.175.569-.356,1.118-.54,1.64-1.778,5.037-4.268,9.839-7.743,13.92-2.799,3.286-6.727,6.203-11.229,6.152-1.209-.014-2.116-.492-2.723-1.201-2.593-.511-4.907-1.939-6.417-4.384-2.21-3.581-2.405-8.285-1.99-12.353.13-1.271.315-2.528.549-3.773h-1.578c-.28.964-.55,1.931-.808,2.903-1.429,5.444-2.835,10.888-4.514,16.263-.839,2.744-1.769,5.489-2.79,8.188-3.085,20.119-4.604,39.014-1.815,45.637,1.27-.522,2.518-1.157,3.743-1.837-1.52-3.516-2.291-7.712-2.109-11.341.567-10.683,8.37-22.183,19.643-23.227,4.672-.431,9.232,1.247,12.861,4.128.318-.295.681-.522,1.066-.703,1.247-1.157,2.518-2.291,3.833-3.334,6.192-7.258,12.43-13.609,18.191-16.966,19.892-11.59,14.381,29.487,21.82,34.273,4.151,2.677,13.791-3.788,21.639-7.893.68-.386,1.361-.726,2.019-1.043-.023-.068-.045-.136-.045-.204-.068-.272-.091-.544-.045-.816.34-2.722,1.542-5.126,3.085-7.395,1.792-2.608,3.856-5.058,6.124-7.258,3.743-3.607,8.778-7.735,14.244-7.848,6.464-.113,9.776,6.986,8.392,12.611-1.406,5.693-7.19,9.141-12.158,11.387-2.767,1.247-5.602,2.336-8.438,3.402-.613.204-1.225.454-1.815.68-1.338,4.673-6.215,8.37-11.999,12.18.771,1.588,1.066,3.425,1.089,5.149,0,2.109-.363,4.287-1.089,6.238-1.316,3.675-3.788,7.757-8.075,8.075-2.019.136-3.992-.907-5.262-2.427-1.338-1.611-1.86-3.38-1.951-5.466,0-.272,0-.567.023-.839-1.157.998-2.245,2.041-3.266,3.13-10.978,12.113,2.699,56.978,9.504,58.225,6.805,1.27,21.412-16.377,27.582-18.894,1.497-.612,2.223,3.357,2.472,9.731.272,7.258-.068,17.601-.613,27.831-.952,18.032-2.563,35.77-2.563,35.77,0,0,3.062-1.225,8.619-3.039,1.905-1.248,3.811-2.495,5.738-3.697,3.289-2.041,6.691-3.765,10.116-5.512,2.994-1.542,5.875-3.289,9.027-4.446,5.58-2.041,11.863-.817,17.511.408,3.062.658,6.51,1.679,9.209,3.538,14.562,3.108,15.22,17.284,15.22,17.284,0,0,2.268-16.376-16.399-27.128Z" style="fill: #ff7300;"/>
              <g>
                <g>
                  <path d="M436.375,148.744c.293-.092,5.794-3.663,11.745-6.685-4.263,2.086-7.214,3.037-8.422,1.998-2.602-2.238-.143-13.045.82-24.915-2.648,13.722-6.077,30.21-4.144,29.602Z" style="fill: #fdfd00;"/>
                  <path d="M488.117,137.034c10.848,3.811,21.376,10.432,21.376,10.432,0,0-4.914-10.056-11.419-14.658-6.506-4.602-15.851-9.118-30.508-1.278-7.206,3.854-13.425,7.481-18.203,9.913,2.524-1.232,5.068-2.322,7.28-2.957,3.494-1.003,6.489-1.912,9.259-2.607.719-11.99,31.693-4.733,22.216,1.155Z" style="fill: #fdfd00;"/>
                </g>
                <g>
                  <path d="M466.726-32.433c-10.955-9.345-30.916,28.307-55.05,30.576-17.263,1.606-19.38-19.046-18.132-36.589h-26.502c-2.236,13.335-10.368,28.581-23.117,32.393-11.959,3.581-15.993-16.86-11.435-32.393h-10.034c-12.379,22.527-18.897,78.14-.632,73.654,4.486-1.102,6.338-6.511,6.338-6.511-9.957,7.349-15.98-5.727-8.846-22.455,7.134-16.728,27.015-1.61,15.492,13.587,12.929-16.785,31.664-50.763,46.952-47.61,20.709,4.264,6.102,33.638,15.106,39.24,9.005,5.603,28.965-15.9,34.454-20.391,5.466-4.514,26.039-6.941,28.625,9.141,2.563,16.104-10.615-2.064-20.21,4.695-6.396,4.491-12.702,13.813-21.639,22.206,10.093-1.633-17.647,36.428-15.764,11.273-12.543,18.032.295,56.07,9.322,55.413,3.879-.272,12.43-8.551,15.537-12.135,0,0-34.114,26.017-12.952-34.908,8.166-23.476,21.911-41.849,32.209-42.166,10.298-.34,29.328,21.48,36.428,14.721,4.423-4.219,1.27-19.734-4.378-33.048,8.324,46.363-34.794-9.028-11.772-18.69Z" style="fill: #fdfd00;"/>
                  <path d="M442.693,80.681s-.182-8.493-1.989-11.823c-1.806-3.331-10.366,8.979-10.366,8.979,0,0,5.676-5.361,9.227-4.824,3.551.536,3.128,7.669,3.128,7.669Z" style="fill: #fdfd00;"/>
                </g>
                <path d="M441.339,115c1.436-7.444,2.128-15.857,2.122-18.498,0-.001-.46-2.776-.98-5.923.14,1.892-.289,13.907-1.142,24.421Z" style="fill: #fdfd00;"/>
              </g>
              <path d="M399.051-38.447h-1.53c-.264,3.053-.469,6.413-.55,9.993-.352,15.377,4.271,26.226,16.536,22.539-10.403.732-14.073-16.702-14.455-32.532Z" style="fill: #fdfd00;"/>
            </g>
            <g>
              <path d="M659.602,528.957c-8.667-18.56-27.85-9.873-34.63,0h34.63Z" style="fill: #ff1515;"/>
              <path d="M535.204,450.912c11.221,6.913,31.448-14.374,36.687-.493,5.239,13.881-19.698,59.605-29.097,53.091-9.398-6.514-14.074-25.88-15.306-14.432-.828,7.69,1.775,27.21-2.162,39.878h24.038c-.95-8.714,3.191-20.07,12.115-26.451,17.251-12.336,45.785-9.386,55.196-25.725-31.177-9.128-18.966-57.605-.184-32.549-1.965-14.7-7.696-20.395-26.722-15.76-19.026,4.635-44.484,31.651-40.854,6.339,3.629-25.311,28.218-15.473,28.218-15.473-2.963-10.659,15.665-35.24,13.612-7.556,9.432-7.717,25.772-19.799,5.146-41.824,8.327,16.057.882,25.178-12.189,22.001-4.074,15.77-11.252,29.896-18.532,17.472-11.423-19.495-63.04-5.235-61.199.899,1.841,6.133,20.011,33.668,31.232,40.581Z" style="fill: #ff1515;"/>
              <path d="M496.545,528.957c-3.203-5.811-5.52-11.019-11-7.942-2.174,1.221-3.689,4.095-4.61,7.942h15.61Z" style="fill: #ff1515;"/>
              <path d="M593.74,366.996s-9.481-6.925-8.865-16.379c.616-9.454,21.431-18.264,21.431-18.264-16.704,17.752-17.999,27.263-12.566,34.643Z" style="fill: #ff1515;"/>
              <path d="M592.756,407.411s6.521-1.248,11.322-15.216c1.912-5.562-4.33-17.685-4.33-17.685,0,0,3.11,14.902-4.945,19.155-8.055,4.253-10.298-.121-10.298-.121-1.585,3.914-3.145,7.631-4.672,11.111,1.727-3.46,3.752-6.598,5.635-7.769,4.722-2.935,7.288,10.524,7.288,10.524Z" style="fill: #ff7300;"/>
              <path d="M629.804,528.436c.538.129,1.045.309,1.532.521h10.972c2.59-5.488,7.477-3.382,11.644,0h1.419c-2.358-2.333-5.524-4.942-9.738-7.464-8.832-5.286-15.868,2.311-18.97,6.692,1.038-.076,2.094,0,3.139.251Z" style="fill: #ff7300;"/>
              <path d="M573.295,446.309c26.221,9.009-12.982,49.529-22.824,61.111-9.854,11.609-7.828-9.185-17.154-14.061-5.621-3.065-2.68,19.962-3.956,35.598h15.249c.915-7.086,4.221-14.849,7.1-19.574,5.942-9.751,18.876-26.068,38.379-22.432,19.024,3.554,24.488-8.94,25.105-9.594-1.305.492-11.923-.943-16.502-6.837-2.189,12.068-9.868,12.539-13.275,7.379-3.582-5.367-.505-21.375,6.983-22.424,5.706-4.925-6.098-3.665-3.001-14.73,1.46-5.409,6.242-6.652,11.333-4.173,6.885-5.801,13.901,3.674,14.504,4.527-10.695-34.566-61.647,16.006-67.851,4.164-9.438,4.305-18.33-8.127-13.866-15.687,2.596-4.392,9.019-6.152,14.695-2.738,4.322-16.556,26.508-10.031,27.434-9.829-.348-.573.599-3.974,2.168-7.848-2.657,5.746-2.831,8.525-8.268,6.242-9.556-4.108-7.883-11.374-26.259-12.648,20.036,12.855-27.894,23.519-24.587,7.227.376-1.925,1.501-3.664,2.842-5.152-2.98.836-5.596,1.865-7.58,3.1-10.074,6.253,8.028,27.626,15.689,35.798,14.548,15.467,25.327-3.703,43.641,2.581Z" style="fill: #ff7300;"/>
              <path d="M492.128,528.957c-1.301-1.883-2.298-3.015-2.894-2.867-1.326.333-2.299,1.357-2.991,2.867h5.885Z" style="fill: #ff7300;"/>
              <g>
                <path d="M556.892,501.723c-.297.343-.493.558-.543.578.099-.047.277-.239.543-.578Z" style="fill: #fdfd00;"/>
                <path d="M556.892,501.723c3.819-4.411,26.642-32.81,32.328-15.955,9.916,3.952,16.915-1.44,23.105-9.423,0,0-18.991,3.918-16.614-16.424-23.76-24.686,6.421-26.968,8.831-26.44-1.112-.379-16.161-4.89-33.832,9.692,23.655,2.696,4.558,41.211,2.183,28.67.667,4.873-6.377,15.843-11.118,22.823-2.647,3.898-4.133,6.097-4.884,7.057ZM591.133,462.189c3.317-1.552,3.602,14.456.846,17.777-2.761,3.343-9.372-13.756-.846-17.777Z" style="fill: #fdfd00;"/>
                <path d="M539.109,448.481c8.166,2.192,14.469-1.125,14.469-1.125-26.944,10.075-28.947-33.866-7.095-21.894,2.946-12.222,13.68-13.68,20.498-10.726,0,0-9.075-8.18-20.048-10.59,28.803,14.715-31.589,21.55-25.201,2.7-4.383,2.007-7.597,4.566-8.937,6.905-3.347,5.846,18.149,32.537,26.315,34.73Z" style="fill: #fdfd00;"/>
                <path d="M589.404,398.154c4.234,1.553,3.671,6.128,3.671,6.128,0,0,3.658.174,6.878-5.95,5.184-9.86.65-20.72.65-20.72,0,0,1.682,11.207-4.407,16.703-6.09,5.496-11.691-.771-11.691-.771.939,2.033.423,3.855-3.103,9.019.594-.881,4.141-5.826,8.003-4.409Z" style="fill: #fdfd00;"/>
                <path d="M581.401,402.563c-.057.085-.097.145-.097.145.036-.052.061-.094.097-.145Z" style="fill: #fdfd00;"/>
                <path d="M573.285,446.316s5.929,8.114,1.237,23.069c10.716-12.903-.506-23.181-1.237-23.069Z" style="fill: #fdfd00;"/>
                <path d="M627.19,528.957c1.501-1.241,3.996-2.482,7.019-.773.427.242.785.503,1.112.773h8.849c.601-.254,1.242-.499,1.968-.728,2.699-.848,5.285-.32,7.511.728h4.038c-.75-1.089-1.643-2.213-2.694-3.26-8.779-8.749-22.607-3.785-28.217,3.26h.412Z" style="fill: #fdfd00;"/>
                <path d="M543.699,528.957c.34-11.19,8.524-21.921,9.807-23.556-3.073,3.117-8.431,8.124-11.635,6.069-4.409-2.837-6.483-13.868-8.972-12.18-2.443,1.649-2.281,15.721-2.669,29.667h13.469Z" style="fill: #fdfd00;"/>
              </g>
            </g>
            <g>
              <path d="M143.906,238.575c-10.86,18.1-14.997,22.754-17.583,1.551-2.586-21.203,39.303-56.368,7.24-61.023-32.063-4.654-73.434-11.894-73.434,8.791s-12.411,27.926-24.823,9.309c-12.411-18.617,34.613-53.265-9.585-59.471-44.198-6.206-60.746,2.586-51.438,19.134,6.488,11.534,4.174,26.069-5.348,29.799v144.481c15.626,1.026,27.775,11.534,19.775,22.919-17.368,25.374,11.216,24.903,6.775,30.859,11.209-2.446,38.268-28.443,27.408-35.683-10.86-7.24-42.923,3.103-22.237-27.408,20.686-30.511,26.374,14.48,53.783,10.86,27.409-3.62,4.654-50.68,4.654-81.708s13.963-29.994,34.648-23.789c20.686,6.206,26.891,33.614,37.751,38.01,10.86,4.396,10.86-13.187,27.408-13.704,16.548-.517,29.173,0,29.173,0,0,0-33.31-31.028-44.17-12.928Z" style="fill: #ff1515;"/>
              <path d="M134.121,257.084c-4.236,3.417-5.686,3.674-10.788-11.115-1.919-5.616-4.984-13.526-2.293-20.312,4.352-11.092,18.159-22.254,18.159-28.713,0-10.413-53.775-21.037-67.581-16.778-19.013,5.855.568,37.788-24.877,34.022-5.841,7.78-18.615,4.69-26.845-2.448-8.923-7.739-5.475-18.183,5.197-19.835-.547-13.678,11.352-23.089,11.539-35.709.234-15.725-58.906-20.479-61.262-4.579.211,1.455,3.818-6.93,6.681,9.955,3.633,16.126-7.42,26.733-9.678,28.702,24.481-20.78,52.69-17.257,15.883,15.743-7.578,6.794-14.257,8.657-19.318,7.667v6.442c6.175-1.633,15.112-2.708,27.639-2.722,9.711-.011-.863,21.267-27.639,19.362v58.872c10.774,8.804,15.676,22.24,7.887,22.072-2.017,2.291-4.869,2.785-7.887,2.445v5.853c8.501,1.527,17.068,6.995,24.474,18.222,3.529,5.368,1.394,8.674-1.668,12.023.294.631.552,1.286.72,1.992,1.088,4.564-.547,9.546-3.074,13.367-.653.987-1.391,1.87-2.218,2.665,4.288,4.472,12.277,6.482,12.277,6.482,59.155-50.414-25.844-13.369-5.889-59.963-6.293-4.71-7.015-16.134-6.075-23.938,3.984-33.082,47.057-5.539,45.495,7.484-1.563,13.024-14.303,3.923-14.303,3.923.919,6.822,35.416,28.128,37.94,10.01,1.597-11.468-8.209-41.919-7.779-63.962.334-17.102,9.761-26.97,16.789-32.821,46.33-38.652,33.12,18.644,67.3,42.051,11.465,7.734,5.829-28.953,48.814-14.626-40.987-26.605-35.163-1.759-47.621,8.167ZM49.588,272.714c-1.257,18.341-29.315,22.091-30.912-13.376-.724-16.094,5.935-32.373,14.691-26.347,3.325,2.288-1.836,15.029,1.82,21.971,5.192,9.857,15.511,10.361,14.401,17.752ZM116.827,187.446c18.68,4.303,26.07,21.016-3.974,13.434-21.48-5.421-21.716-19.353,3.974-13.434Z" style="fill: #ff7300;"/>
              <path d="M73.694,188.668c-7.043,4.108-10.901,12.447-11.372,17.255,0,0-1.703-18.19,9.77-23.915,11.596-5.787,11.562.851,1.602,6.66Z" style="fill: #fdfd00;"/>
              <path d="M174.607,245.379c-12.619-2.646-18.725-9.973-25.238-4.885s-13.992,19.669-19.08,16.819c0,0,4.575,8.068,9.717.685,3.532-5.072,10.991-16.079,34.601-12.619Z" style="fill: #fdfd00;"/>
              <g>
                <path d="M121.791,224.067c4.669-14.98,19.846-21.666,14.365-27.789-15.974-14.899-49.41-13.922-59.644-4.372-10.258,9.574-8.769,17.268-10.429,24.791-4.103,18.684-13.995,5.154-16.902,5.105-2.32-.025-24.204,15.436-18.025,25.939,5.74,9.794,41.668,29.944,7.889,39.03-33.779,9.086-23.032-46.65-9.892-57.617,4.543-3.761-26.109-15.509-23.887-24.888,3.517-14.923,24.107-35.635,19.735-44.379-10.624-21.298-36.099-11.797-39.274-2.833-1.319,3.688.171,13.262,4.25,19.271-6.326-23.154,20.174-11.064,13.14,3.713,13.555-7.523,1.759,34.194-30.701,35.513-1.241.051-2.393.071-3.479.069v6.78C-21.182,215.828-.012,207.292-.571,212.007c-.517,4.438-9.325,18.394-30.492,17.056v23.284c19.483,16.197,49.844-6.121,40.698-34.918,0,0,17.838,45.042-6.513,47.289-11.414,1.065-24.016-1.834-34.185-5.215v5.557c5.448,3.926,10.665,9.803,10.122,14.333-1.119,9.292-5.515,8.527-10.122,3.918v.614c13.799,9.891,16.988,35.156,15.3,38.552-.973,1.946-7.697,1.415-15.3-.949v1.688c4.879,2.15,9.062,4.489,11.807,5.587,11.357,4.543,9.452,10.6,12.31,18.172,2.833,7.572.171,15.338-4.738,23.667-4.763,8.035,11.968,7.62,14.337,7.742-1.05-.293-3.541-1.514-4.323-5.667-1.124-6.057,23.496-11.162,22.91-17.414-.562-6.253-24.033-5.691-27.062-9.281-1.148-1.368-3.224-5.886-2.076-14.752.659-5.276-24.815-51.682,8.768-60.621,33.583-8.964-13.409,11.26.733,26.622,11.797-28.796,67.875,9.159,29.114,15.241,19.954,11.381,30.994.782,29.407-13.091-1.734-14.997-17.634-54.197-13.775-67.411,3.835-13.238,3.591,1.466,10.429,1.294,4.103-.098,9.818-15.167,12.407-19.124,4.909-7.547,9.55-13.726,23.911-8.011,8.404,3.344,15.697,9.735,20.872,21.382,3.669,8.257,7.609,21.477,13.441,27.415-6.482-9.135-8.064-23.053-5.618-30.9ZM111.17,188.34c10.6-.635,19.442,6.179,21.371,7.523,4.885,3.37-37.564-6.595-21.371-7.523Z" style="fill: #fdfd00;"/>
                <path d="M2.889,378.4c-.046-.007-.157-.01-.242-.015.479.133.659.074.242.015Z" style="fill: #fdfd00;"/>
              </g>
            </g>
            <g>
              <path d="M316.292,528.957h11.49c.15-.34.323-.676.534-1.003,1.665-2.559,5.789-1.579,9.766,1.003h140.843c5.589-3.68,8.952-5.893,8.952-5.893,0,0-26.195,2.29-19.37-16.753,11.261-31.276,29.887-2.873,29.887-2.873,0,0-3.254-56.747-15.853-48.453-12.598,8.293-2.56,41.829-28.723,37.653-26.174-4.193-68.523-51.247-37.435-67.02,31.088-15.773,43.879,23.961,43.89,21.963.017-2.026,12.179-57.853-15.522-58.031-8.635-.05-21.83,14.536-33.633,14.391-21.179-.277-39.75-16.466-32.581-25.663,11.151-14.308,25.589,12.233,33.477,6.613,7.861-5.625,6.925-20.223,4.663-27.692-4.879-16.196-21.953-25.645-23.113-26.256,1.102,1.17,26.049,27.475,1.003,36.119-25.629,8.838-55.434-11.023-50.848.011,4.586,11.034,55.792,26.831,56.739,53.649.92,26.813-62.064,36.827-50.515,49.296,4.326,4.664,13.323,9.619,22.416,15.008.369-2.068,1.945-4.101,5.72-5.638,12.117-4.92,40.27,21.36,31.216,29.24-3.062,2.656-7.011,3.857-10.922,4.251-.171,1.179-.535,2.391-1.113,3.6-9.26,19.485-88.559-18.649-83.108,5.868.45,2.032,1.183,4.252,2.14,6.608Z" style="fill: #ff1515;"/>
              <path d="M325.5,528.957c3.195-8.525,11.112-5.884,16.64,0h29.879c1.835-1.613,4.728-2.376,7.479-2.017,1.766.223,3.948.949,6.323,2.017h65.014c2.738-2.905,5.854-3.03,7.915,0h20.174l.354-.233c-6.093-3.928-16.105-11.65-14.739-19.043,3.075-23.642,17.765-22.107,17.765-22.107,0,0-2.451-4.746,3.114-9.595,5.565-4.849,11.807,18.788,12.694,22.043-.828-3.886-8.159-37.522-13.64-40.881-5.799-3.553-10.594,26.026-13.551,32.334-5.821,12.414-35.991-1.785-48.115-8.186-.825,22.224-24.565,4.588-19.265-14.974-10.767-15.157-3.82-49.018,22.78-49.309-4.868-9.584,3.993-16.454,11.566-12.922,6.52,2.964,8.56,11.581,2.425,15.276,10.378,3.453,18.866,9.975,19.777,14.707,3.223-29.128-3.414-54.288-29.962-39.9-22.503,14.813-28.556,9.792-39.832,2.31-2.077-1.332-3.255-2.129-3.774-2.487.352.256.973.719,1.776,1.361,13.673,10.602,22.363,14.007,13.11,35.345-5.514,12.715-46.409,29.326-47.837,30.191-1.428.865,1.25,11.295,18.664,19.069,0,0,8.09-13.809,22.379-2.291,14.3,11.535,19.303,17.911,18.63,29.634-.645,11.728-10.953,4.817-11.366,5.089-.413.272,5.108,8.083-5.969,11.631-11.094,3.559-72.26-12.861-76.688-5.8-.761,1.211.208,4.356,2.323,8.737h3.957ZM428.657,492.897c10.161-10.302,34.508,18.492,19.948,24.975-23.711,10.557-42.062-16.748-19.948-24.975Z" style="fill: #ff7300;"/>
              <path d="M374.196,382.249c.057-1.035.603-10.769,10.373-9.514,9.365,1.203,19.836,10.073,24.577,8.309,17.809-6.626,2.382-32.038-5.417-38.472.817.713,10.29,9.307,4.492,19.036.832.049,1.652.21,2.426.559,1.404.634,2.533,1.965,2.894,3.468.442,1.836.153,3.684-.452,5.446-.752,2.191-2.553,3.733-4.708,4.498-2.084.739-4.337.632-6.392-.108-2.344-.845-4.129-2.676-4.958-5.017-.055-.154-.079-.316-.124-.472-15.987,4.148-41.694-6.568-44.142-1.588-1.907,3.879,16.425,15.655,29.901,24.825.043.029.079.056.122.086-6.14-4.583-8.77-7.832-8.592-11.054Z" style="fill: #ff7300;"/>
              <g>
                <g>
                  <path d="M397.44,404.09s13.973,13.398,4.814,29.893c3.332-6.536,12.147-14.415,24.587-15.997-8.353-.713-14.401-7.545-6.525-13.774-8.053,2.811-11.226,4.112-22.876-.122Z" style="fill: #fdfd00;"/>
                  <path d="M456.66,405.48c-3.702-8.108-12.912,10.229-.304,14.442,3.063,1.017,4.336-2.736,4.336-2.736.396,9.313-.804,13.539-2.765,19.38,0,0-7.159-19.838-24.365-18.797,18.541-7.797,3.393-22.709-8.947-16.291,5.495-3.641,9.995-7.172,14.618-8.177-2.955,16.394,15.073,6.605,4.202-.409,2.513-1.306,12.253-1.188,13.224,12.588Z" style="fill: #fdfd00;"/>
                </g>
                <g>
                  <path d="M480.339,485.266c-1.071-4.66-1.256-8.128-.843-10.519-1.09,4.807-3.341,10.508-7.842,16.018,2.756-2.799,7.216-5.315,8.686-5.5Z" style="fill: #fdfd00;"/>
                  <path d="M480.513,462.956c-.133.433.431,5.136-.95,11.47,2.041-9.955,15.213.466,16.539,22.757-.164-27.74-12.962-42.805-15.588-34.227Z" style="fill: #fdfd00;"/>
                </g>
              </g>
              <g>
                <path d="M383.276,370.772c-.151-.003-.303-.008-.452-.009.15.004.301.006.452.009Z" style="fill: #fdfd00;"/>
                <path d="M358.191,372.137c-1.321,3.554,14.22,13.313,16.847,15.563-10.058-9.403-4.535-17.016,7.787-16.937-13.396-.378-23.54-1.569-24.633,1.374Z" style="fill: #fdfd00;"/>
                <path d="M407.126,345.819c2.166,2.341,5.467,12.525-2.301,19.172,20.463,3.703-8.067,24.593-6.782,5.561-5.666,1.461-10.707.552-10.707.552,0,0,7.212,2.979,11.43,5.626,4.218,2.647,5.527,5.166,9.302,3.576,10.067-4.241,10.436-23.075-.942-34.486Z" style="fill: #fdfd00;"/>
              </g>
              <g>
                <path d="M324.077,528.957c.891-5.787,4.285-12.785,16.68-1.889.604.531,1.243,1.171,1.889,1.889h16.598c-.626-1.039-.779-1.818-.302-2.229,1.048-.898,3.546-1.281,6.901-1.23-19.705-1.948-38.354-10.891-43.293-6.432-3.612,3.263-3.421,6.954-2.27,9.891h3.797Z" style="fill: #fdfd00;"/>
                <g>
                  <path d="M372.904,481.066c6.996-24.796,69.365,26.498,25.029,41.441-8.955,3.028-17.908,3.755-26.366,3.398,4.535.54,9.792,1.585,15.023,3.051h25.617c-1.655-8.384,4.086-14.112,16.507-11.096-17.163-7.281-16.81-28.272,3.594-26.94,14.537.952,21.04,22.099,14.077,29.124,6.267-4.649,14.367-2.862,14.18,8.912h11.441c-7.781-6.363-12.782-17.64-5.847-30.389.943-1.735,1.886-3.256,2.821-4.606-23.056,10.011-42.56-8.17-47.643-16.72,3.114,42.099-39.78-3.696-21.956-39.365-.452.392-7.445,10.541-15.853,16.597-10.651,7.651-25.67,7.372-25.828,10.84-.174,3.48,9.096,11.406,15.203,15.752Z" style="fill: #fdfd00;"/>
                  <path d="M440.235,528.957c1.044-3.294,2.833-5.98,4.93-7.904-2.94,1.896-7.557,1.854-14.088-1.595-3.809,2.42-5.568,5.811-5.677,9.499h14.835Z" style="fill: #fdfd00;"/>
                </g>
              </g>
            </g>
            <g>
              <g>
                <path d="M178.318,345.335h0s.001,0,.001,0c.399.287,7.325,5.174,10.067,9.452,5.078,7.921-8.974,5.84-8.974,5.84,0,0,5.944,1.013,11.571-.802s10.88-9.143,2.264-10.848c-.854-.169-2.466-1.124-2.833-1.361-2.959-3.228,3.736-10.194,3.813-10.274,9.34-5.457,22.977.673,21.539-15.178-1.642-18.09-13.618-32.199-13.618-32.199,0,0,12.151,26.995-10.191,36.034-21.291,8.614-21.715,13.53-13.639,19.335Z" style="fill: #ff1515;"/>
                <path d="M334.051,473.104c-43.74-21.17-62.559,64.486-71.04,27.699-8.481-36.787-5.996-74.097-15.141-64.913-9.146,9.185-16.435,37.932-26.689,33.101-10.254-4.83-13.428-57.256-1.208-55.136,7.637,1.325,15.915,9.12,22.378,8.426,3.878-.416,59.539-87.222,35.331-87.851-40.837-1.086,14.879-39.085,14.879-39.085-27.201-11.361,3.519-44.756,25.446-57.353-17.655-4.595-71.781-3.129-37.342,51.917,5.205,8.327-7.707,6.977-24.956,7.65-19.719,15.327-51.085,74.456,5.842,52.988,26.463-9.98,12.887,37.526-26.705,45.475-8.406,1.688-16.425-25.462-21.092-12.71-4.667,12.752-2.606,60.572-24.825,74.952-22.218,14.38-41.758-10.01-46.616,11.631-.818,3.641-1.33,9.106-1.558,15.599-32.98-6.358-54.805,48.468-53.309,23.021,1.499-25.491,38.986-71.975,10.996-59.979-27.99,11.996-33.291,55.98-47.385,24.492-14.094-31.489,4.9-93.967,33.889-83.971,28.99,9.997,35.488,18.993,40.986,6.498s7.997-34.488,20.993-37.987,20.993-8.997,20.993-8.997c0,0-32.031-30.46-39.986,5.498-12.496,56.48-31.989,1.999-37.987-3.999-5.998-5.998-23.492,6.997-33.988,48.983-4.945,19.78-28.49,47.483-48.483,47.983-19.993.5,15.495-48.983-8.497-49.483-9.588-.2-20.45,2.163-30.041,7.136v67.67c6.808,3.704,12.237,9.258,12.047,22.159-.22,14.966-4.318,27.892-10.711,34.436H110.119c-.265-10.747,5.885-19.258,16.314-14.443,9.512,4.392,10.653,10.024,9.541,14.443h4.306c.666-.621,1.335-1.259,2.003-1.91.063.639.128,1.277.195,1.91h192.833c12.024-23.88,17.047-46.992-1.26-55.852Z" style="fill: #ff1515;"/>
                <path d="M134.317,440.832s15.533,10.151,37.559-22.314c4.79-7.061-8.347-22.053,12.092-31.706,10.436-4.929,12.401-10.383,12.766-12.474l-.783-.104c-11.636,10.38-19.136,4.889-25.296,8.611-6.313,3.814-10.409,38.04-17.788,48.563-7.379,10.523-18.549,9.425-18.549,9.425Z" style="fill: #ff1515;"/>
                <path d="M277.4,410.847c-13.687,19.576,2.251,66.183,2.251,66.183,0,0,9.851-42.685,19.424-30.207,9.573,12.478,21.599-1.969,26.7-9.074,11.726-16.335,1.725-31.651,1.183-32.522.396,1.342,7.82,26.665-14.604,15.42-23.022-11.554-17.25-35.112-34.954-9.799Z" style="fill: #ff1515;"/>
              </g>
              <g>
                <path d="M-19.625,528.957c.12-2.139.344-3.612.344-3.612-.051,0-.537.133-5.152,3.612h4.808Z" style="fill: #ff7300;"/>
                <path d="M-31.063,468.692c.919.181,1.848.406,2.782.703-1.094-2.3-2.014-4.473-2.782-6.525v5.822Z" style="fill: #ff7300;"/>
                <path d="M83.051,383.399c-2.016-1.852-2.8-4.051-2.676-5.961.724-11.1,15.39-7.873,14.811-2.175,1.898,2.633,5.544,4.687,8.01,14.552,28.992,17.792,17.983.873,27.718-23.914,8.529-21.716,32.652-18.734,32.652-18.734,0,0-15.351-9.016-24.611-6.823-9.26,2.193-9.503,41.668-19.006,46.541-9.503,4.873-26.804-35.333-37.038-32.948-10.234,2.384-23.149,38.309-23.234,39.989,1.02-.309,23.957-9.044,23.374-10.527Z" style="fill: #ff7300;"/>
                <path d="M302.226,481.167c22.644-3.351-1.735,17.266-10.688,10.719-10.316,11.26-19.772,23.265-26.751,24.91-15.819,3.744-10.285-71.121-15.291-74.64-4.979-3.539-9.73,34.121-27.128,37.421-17.394,3.278-12.861-53.686-12.861-53.686,0,0-2.149,18.451-8.297,35.481-6.167,17.004-38.568.673-52.254,5.964-4.049,1.568-5.943,9.584-6.479,20.207-.582-.162-1.182-.318-1.819-.456-30.426-6.625-34.6,36.247-54.82,35.04-16.046-.977,12.044-45.399,17.788-63.111,1.493-4.615-5.074-5.515-6.587-5.61-7.314-.479-17.061,33.623-39.712,37.587-22.652,3.983-10.531-69.027-10.531-69.027,0,0-19.933,29.736-39.674,29.411-19.722-.326,3.408-37.204-7.065-48.654-5.193-5.677-19.068-.45-31.121,9.576v26.537c4.536-3.881,12.692.435,16.033,12.963,1.628,6.089-.211,28.377-.211,28.377,0,0,1.876-6.721,9.421-8.444,16.314-3.734,19.741,24.681,5.495,43.657,12.889-3.823,11.994,4.68,6.559,13.569h33.905c-.04-4.105.224-9.068.895-15.024.402-3.619,7.276-6.587,8.54,1.034.268.21,1.565,6.92,2.067,13.99h9.225c.011-1.598.077-3.186.215-4.742,1.795-20.296,9.043-11.404,13.39,4.742h28.499c-1.126-7.473,1.735-14.758,13.218-18.739,25.964-8.98,21.943,17.846,21.943,17.846,0,0,2.666-2.779,5.781-6.905.29,2.659.608,5.273.949,7.799h34.294c.679-.652,1.353-1.274,2.017-1.852-23.764-13.733-25.433-43.404-15.363-40.148,5.293,1.71,23.31,16.971,22.77,35.635,2.724-.657,4.873,1.879,6.321,6.364h100.695c6.848-7.684,16.17-6.804,20.248,0h10.88c25.452-59.378-2.783-66.978-24.498-47.789ZM17.808,477.226c1.723-7.468,6.204-19.397,9.076-23.36,0,0-7.64,45.916-9.076,49.095-1.455,3.198-1.743-18.267,0-25.735ZM22.116,521.726c-2.394,3.81,4.596-48.903,6.204-48.635,1.896.326-3.83,44.825-6.204,48.635ZM196.547,512.064c-4.928-2.006-25.911-31.513-13.605-29.974,6.746-1.984,25.246,34.71,13.605,29.974ZM234.351,488.816c-8.388,40.981-22.178,19.746-5.605-4.648,1.167-1.718,7.621-3.053,5.605,4.648Z" style="fill: #ff7300;"/>
                <path d="M212.531,415.661s.073-1.527.239-3.949c-.871,1.95-.239,3.949-.239,3.949Z" style="fill: #ff7300;"/>
                <path d="M190.321,359.515s12.298-5.579,1.917-9.109c-10.382-3.53-6.805-5.697-6.668-9.111.51-12.768,24.691-1.611,28.316-13.523,3.626-11.912-8.082-28.987-8.082-28.987,0,0,3.722,13.477-3.17,22.06-6.892,8.583-29.432,13.737-27.044,19.186,1.211,2.765,14.51,12.766,14.731,19.484Z" style="fill: #ff7300;"/>
                <path d="M219.989,408.076c9.687-.531,16.707,17.036,24.179,9.713,2.599-2.548,19.231-25.345,22.263-37.322,0,0-12.047,15.788-22.984,19.292-10.937,3.504-23.58-16.108-26.636-16.277-3.056-.17-3.575,21.437-4.04,28.23.765-1.713,2.688-3.387,7.218-3.636Z" style="fill: #ff7300;"/>
                <path d="M280.311,468.91s4.465-19.182,14.709-24.791c10.244-5.609,21.157-.159,26.272-3.617,8.58-6.051,7.203-23.742,7.022-23.561-.038,1.088-.468,8.067-4.03,12.702-3.834,5.015-29.805-21.928-35.001-23.433-15.974,16.001-13.481,34.28-8.972,62.7Z" style="fill: #ff7300;"/>
                <path d="M285.459,257.869c10.564-18.09,26.922-20.033,26.922-20.033,0,0-33.69-3.87-39.637,15.998-5.947,19.868,11.034,37.973,11.034,37.973,0,0-8.884-15.848,1.68-33.938Z" style="fill: #ff7300;"/>
                <path d="M144.008,440.528s10.293.988,17.433-12.248c2.354-4.364,6.268-7.001,8.225-12.543,3.979-11.266-2.722-13.667,3.888-22.919,4.306-6.026,9.859-9.189,13.217-10.67-4.232,1.49-11.774,3.784-14.456,2.287-4.547,5.112-7.428,26.781-13.568,38.813-6.14,12.033-14.74,17.278-14.74,17.278Z" style="fill: #ff7300;"/>
                <path d="M186.772,382.149c1.779-.626,2.977-1.111,2.977-1.111,0,0-1.18.319-2.977,1.111Z" style="fill: #ff7300;"/>
                <path d="M287.929,296.345s-2.494,1.218-6.07,3.446c2.504-.722,4.635-1.81,6.07-3.446Z" style="fill: #ff7300;"/>
                <path d="M277.569,357.583c-2.096,6.599-4.328,12.133-4.328,12.133,0,0,4.063-6.023,4.328-12.133Z" style="fill: #ff7300;"/>
                <path d="M270.53,346.937c5.674,2.378,7.217,6.531,7.038,10.646,2.196-6.913,4.242-14.995,3.414-19.12-1.618-8.061-29.118,4.871-23.192-12.723,4.027-11.954,16.488-21.228,24.067-25.95-9.483,2.735-24.38.147-27.7,1.479-4.196,1.684-21.68,36.124-19.843,47.595,1.837,11.471,22.115-7.838,36.214-1.928Z" style="fill: #ff7300;"/>
              </g>
              <g>
                <path d="M-31.063,470.225c1.587.114,3.194.074,4.793-.141-1.756-.936-3.355-2.158-4.793-3.555v3.696Z" style="fill: #fdfd00;"/>
                <path d="M84.372,385.383c-28.082-23.109,17.316-29.353,21.346,6.987,4.358,2.387,15.237,1.007,15.763-2.319,1-6.32,4.201-13.537,4.201-13.537,0,0-4.289,5.351-5.462,6.25-20.537,15.742-18.37-20.818-28.964-24.222-3.178-1.021-13.118.187-21.122,10.736-5.152,6.79-9.946,24.155-10.143,24.987,2.148-1.039,3.143-10.902,24.38-8.883Z" style="fill: #fdfd00;"/>
                <path d="M138.861,359.466c-6.41-17.261,22.765-11.426,22.765-11.426,0,0-17.701-9.434-23.456-4.318-2.943,2.616-5.981,12.598-8.383,20.32-.645,2.073-1.444,4.669-2.45,7.308,3.009-4.17,7.36-8.256,11.525-11.884Z" style="fill: #fdfd00;"/>
                <path d="M55.946,403.714c2.453-3.736,4.791-8.413,3.223-7.558-2.994,1.633-5.675,11.293-3.223,7.558Z" style="fill: #fdfd00;"/>
                <path d="M43.09,432.229c1.755-1.995,2.393-1.915,5.904-12.925-2.462.917-7.659,14.919-5.904,12.925Z" style="fill: #fdfd00;"/>
                <path d="M217.92,404.558c3.94-1.697,7.576,2.87,7.576,2.87-13.384-21.224,28.865,7.006,11.849,10.896,1.994,1.596,5.602,1.272,7.835-1.483,3.449-4.256,15.038-21.034,17.05-30.067,0,0-12.177,16.337-21.508,15.548-11.361-.961-20.553-18.853-24.324-15.742-3.649,3.012-3.954,19.155-5.852,35.989,1.79-9.648,4.469-16.759,7.374-18.01Z" style="fill: #fdfd00;"/>
                <path d="M187.519,348.216c-10.238-9.764,19.065-33.075,20.933-16.008,6.285-5.054,6.043-12.897,4.199-20.082-2.06-8.025-6.663-13.402-6.663-13.402,0,0,8.488,11.808-4.755,24.501-13.243,12.693-18.399,9.177-22.466,13.916-4.067,4.739,3.34,8.091,8.752,11.075Z" style="fill: #fdfd00;"/>
                <path d="M334.879,486.632c-5.629-21.52-24.02-14.796-38.381.323,37.166-34.588,7.601,23.253-4.554,6.518-3.973,5.6-17.689,23.366-23.847,23.763-16.284,1.086-17.183-62.518-21.51-65.689-4.35-3.175-12.281,33.431-24.65,32.16-12.369-1.271-15.184-23.726-12.631-49.96-1.895,10.906-7.307,39.472-12.953,44.99-11.436,13.707-22.597-19.87-39.016-.884-2.95,3.417-5.219,7.843-6.909,12.804-2.696-1.498-6.537-2.399-11.797-2.46-19.933-.23-33.374,41.531-50.99,37.223-4.212-1.034-5.17-5.438-4.385-11.546-.747.268-1.57.421-2.47.345-6.127-.498-6.434-8.406-6.204-13.001.172-3.791.574-7.64,1.781-11.24,1.532-4.576,3.408-9.555,6.644-13.231,1.532-1.762,3.772-2.987,6.147-2.355,2.546.67,3.925,3.274,4.71,5.668,4.691-12.791,8.138-23.647,3.466-25.007-3.102-.9-8.578,3.983-16.754,16.39-5.514,8.406-11.546,26.232-21.637,25.084-25.026-2.891-20.009-38.2-17.539-61.962-11.623,16.218-31.536,29.813-41.819,18.018-9.727-11.163,5.84-43.791-.632-49.688-3.238-2.945-17.488-.831-30.011,7.315v21.068c2.189-1.325,4.733-1.92,7.55-1.251,7.506,1.819,10.378,11.163,12.944,17.463,1.723,4.289,2.623,8.674,2.623,13.308-.019.766.019,1.57.038,2.374,20.909-4.94,25.256,22.154,13.001,48.176,1.781-.594,3.581-.977,5.342-.919,2.068.077,3.963.977,5.017,2.796,1.187,2.126.766,4.825.153,7.046-.843,3.081-2.234,5.963-3.902,8.686h6.357c-.63-2.208-.026-7.975,1.241-15.675,1.283-7.946,7.889-48.673,10.052-46.49,2.183,2.164,4.385,40.191-5.821,57.673-1.255,2.15-2.274,3.62-3.086,4.493h18.988c-1.104-16.058.49-32.534,5.18-26.647,4.262,5.352,7.846,16.157,9.252,26.647h3.79c-.699-3.758-1.381-7.514-1.496-11.386-.096-2.93,0-6.338,1.628-8.885,2.125-3.294,6.434-3.542,9.306-1.072,3.255,2.776,4.232,7.18,5.744,10.971,1.395,3.514,2.968,6.915,4.41,10.371h21.743c3.769-10.566,11.732-19.937,24.933-19.945,24.949-.019,14.016,19.205,14.016,19.205,2.764-2.036,5.756-4.939,8.484-8.262.061,3.129.259,6.162.582,9.001h29.925c.503-.778.938-1.517,1.286-2.198-35.038-12.296-33.736-30.611-27.406-35.878,5.932-11.698,29.067-10.158,30.437,30.036,7.111-.585,12.863,2.614,17.099,8.041h4.96c-.48-1.394-.967-2.547-1.436-3.404,1.174,1.056,2.259,2.196,3.265,3.404h36.167c1.739-2.76,3.693-5.284,5.901-7.458-.829,2.098-1.604,4.68-2.355,7.458h4.235c3.464-3.481,8.091-6.036,13.985-5.675,4.739.29,9.035,2.635,12.697,5.675h13.732c6.459-17.268,28.043-18.511,29.604,0h10.405c5.651-13.768,8.907-28.87,5.372-42.325ZM32.571,446.341c-9.038,20.928-13.614,63.877-14.418,63.877-3.14-.881-5.534-27.917-1.781-38.544,5.093-14.437,16.907-26.941,16.199-25.332ZM200.609,524.186s-10.792-16.3-19.288-29.506c-9.172-14.225-9.29-26.533,7.286-10.142,16.576,16.391,12.002,39.648,12.002,39.648ZM225.703,516.956c-12.222,7.474-7.301-31.286,6.398-35.803,7.875-2.578,5.846,28.333-6.398,35.803ZM247.938,506.299c-6.524,10.36-8.138-51.912-4.023-37.119,1.777,6.341,10.524,26.756,4.023,37.119Z" style="fill: #fdfd00;"/>
                <path d="M280.354,284.385c-4.233-7.528-1.485-13.037,1.16-22.587,4.455-16.09,27.401-22.522,27.401-22.522-1.061-.207-25.831-2.499-32.703,13.561-4.636,10.833-4.471,19.291,1.127,27.481,5.598,8.191,4.931,7.475,3.015,4.067Z" style="fill: #fdfd00;"/>
                <path d="M279.863,462.435c.178,1.503.631,2.664,1.334,3.298-.584-.962-1.018-2.074-1.334-3.298Z" style="fill: #fdfd00;"/>
                <path d="M280.132,424.05c12.314-13.043-4.381,22.454-.269,38.385-.903-7.618,5.402-24.188,23.594-27.393,6.971-1.228,14.153,7.356,20.204-.737,5.634-7.495,4.334-11.364,4.173-12.398-.093,1.287-1.105,9.57-10.857,8.646-10.459-.98-32.683-32.475-36.845-6.503Z" style="fill: #fdfd00;"/>
                <path d="M167.939,417.35c5.269-13.561,2.3-22.766,7.936-28.91,3.521-3.839,8.69-6.08,12.073-7.221-5.369,1.316-15.008,3.3-15.632,3.217-.826-.11-1.024,16.098-9.075,31.579s-11.014,20.202-11.014,20.202c0,0,10.444-5.307,15.713-18.867Z" style="fill: #fdfd00;"/>
                <path d="M187.948,381.219c1.733-.425,3.025-.781,3.42-.975,0,0-1.388.289-3.42.975Z" style="fill: #fdfd00;"/>
                <path d="M236.891,347.269c18.195,1.363,43.213-9.896,41.552,7.464,0,0,.692-9.341-.604-14.446-1.296-5.104-7.36,1.352-18.296-2.433-15.495-5.363,7.379-31.76,20.362-39.364-31.714,9.552-62.766,47.299-43.014,48.779Z" style="fill: #fdfd00;"/>
                <path d="M279.905,298.49c2.348-.707,4.7-1.266,7.036-1.637-1.289-.959-3.87-.217-7.036,1.637Z" style="fill: #fdfd00;"/>
                <path d="M190.321,359.515s.003-.003.004-.005c-.049.019-.057.022-.004.005Z" style="fill: #fdfd00;"/>
                <path d="M196.353,353.455c-1.639-3.5-9.154-3.831-9.154-3.831,4.757,1.876,6.99,5.932,3.126,9.886.574-.218,7.538-2.828,6.027-6.055Z" style="fill: #fdfd00;"/>
              </g>
            </g>
            <g>
              <path d="M96.876-38.447c-5.553,18.419-16.101,37.742,3.381,43.87,18.431,5.797,14.102-25.392,28.055-43.87h-31.436Z" style="fill: #ff1515;"/>
              <path d="M281.598-38.447h-9.228c-.475.24-.953.505-1.439.819-9.37,6.055-18.455,4.196-25.685-.819h-60.101c9.441,10.79,11.249,25.35,1.438,31.519-18.278,11.495-37.952-10.637-30.651,5.946,7.3,16.584,14.802,48.486,8.918,57.075-5.884,8.589-21.192.169-17.891-8.243-17.388,38.953,3.977,51.474,3.977,51.474,0,0,45.864-3.452,40.878-20.803s-32.035-52.422-9.023-61.263c23.012-8.842,23.593,40.139,42.157,33.376,18.564-6.762,19.873-55.465,37.383-39.855,17.509,15.61,24.275,41.421,10.39,46.028-13.885,4.607-34.275-4.201-23.01,16.591,11.265,20.792,32.198,41.299,20.537,44.867s-41.696-15.73-52.798-1.187c-11.102,14.544-1.384,52.348-1.384,52.348,0,0-1.828-25.639,31.742-32.855,33.57-7.216,61.336,1.37,47.337-14.499-13.999-15.869-46.292-47.39-34.118-51.731,12.175-4.341,56.005,33.307,51.307,2.888-4.015-25.998-11.79-101.201-30.736-111.675Z" style="fill: #ff1515;"/>
              <path d="M118.371-38.447c-.381,1.758-.864,3.553-1.49,5.385-3.629,10.636-11.614,8.584-15.873.28-5.486,16.011-13.81,29.317-2.043,31.14,11.468,1.793,11.714-19.25,25.218-36.805h-5.811Z" style="fill: #ff7300;"/>
              <path d="M280.642-2.647c-.038-9.99,6.38-13.316,12.514-9.965-16.696-51.054-30.353,1.323-56.394-21.07,10.125,38.416-7.443,57.211-12.77,48.833-9.423-14.821-8.587-37.535-5.798-53.597h-17.17c7.431,16.158,3.326,41.746-10.069,37.544-10.769,3.744-29.242-2.494-31.366-.194-1.579,1.749,5.957,19.709,9.23,34.695,6.583,30.301-11,47.22-22.159,21.999-24.923,59.961,40.922,37.26,42.663,27.734,1.275-6.835-16.501-41.544-19.957-51.083-3.434-9.547.793-14.283,17.187-19.723,16.394-5.439,22.348,30.57,36.626,32.502,14.291,1.898,16.375-34.898,26.229-47.03,9.846-12.157,50.522,42.937,45.73,61.625-4.792,18.688-37.238-4.287-43.78,3.127-5.636,6.344,7.796,23.06,11.771,27.725-2.586-3.188-9.234-12.181-9.471-20.794-.321-10.694,46.199,16.16,53.634,10.559,3.614-2.709.952-27.701-4.227-53.623-7.572,8.553-22.364-18.113-22.424-29.263Z" style="fill: #ff7300;"/>
              <path d="M264.875,92.135s30.828,31.566,29.05,35.956c-1.779,4.39-24.912-7.231-51.149-1.394-26.237,5.837-27.213,33.369-27.213,33.369,0,0-9.808-38.5,8.091-44.28,17.899-5.78,49.267,10.515,54.571,3.583,5.304-6.932-13.349-27.233-13.349-27.233Z" style="fill: #ff7300;"/>
              <g>
                <path d="M277.491,118.367c-1.071,1.234-2.751,1.862-4.887,2.086,13.791,3.905.269,5.793-13.918,5.53-12.643-.234-25.79-1.923-20.988-9.347-5.082.037-9.925.845-14.03,3.085-17.157,9.364-7.921,39.217-7.772,40.196.15.979-4.289-18.328,18.089-29.464,22.378-11.136,57.636,3.105,57.359-5.653-.159-5.024-17.039-20.002-28.568-34.815,5.102,7.706,18.494,24.027,14.715,28.381Z" style="fill: #fdfd00;"/>
                <g>
                  <path d="M169.717,34.84c.236,1.404.527,2.771.846,4.039-.261-1.336-.542-2.682-.846-4.039Z" style="fill: #fdfd00;"/>
                  <path d="M193.937,10.057c-14.925,8.542-35.126,5.885-17.756-9.287,0,0-15.391-1.712-15.486.627-.223,5.468,5.906,19.92,8.791,32.387.082.354.153.704.232,1.057-.768-4.572-.88-9.537,1.113-12.791,5.236-8.548,20.422-9.372,25.579-5.907,10.534,7.079,18.445,27.812,28.85,27.268,10.17-.532,4.767-25.25,17.293-40.314,12.527-15.064,36.426-2.016,41.636,35.169,5.211,37.184-25.196,16.328-32.478,25.182-2.116,2.573.828,9.063,5.245,16.783-.553-1.787-6.894-12.786,4.02-15.75s38.65,18.515,44.391,9.202c4.298-6.971-1.667-30.566-5.6-53.273,2.725,63.255-9.409,50.626-12.978,21.515-2.535-20.678-33.47-61.494,9.135-50.102-1.413-2.303-7.865-25.467-16.778-28.539-4.99-1.72-8.816,3.885-14.343,8.21,17.62-.538-32.369,45.632-15.54,1.745,1.412-3.204-9.994-11.697-17.546-9.074,27.605,24.694-1.055,56.646-7.437,58.033-12.579,2.733-13.171-36.95-13.171-36.95,0,0-2.248,16.268-17.173,24.81Z" style="fill: #fdfd00;"/>
                  <path d="M167.02,72.817c-14.908,9.474-21.625-17.111-21.625-17.111,0,0-8.627,27.016,3.786,37.882,6.918,6.055,24.182-1.78,31.958-4.291-42.792,1.864-2.397-31.155,4.807-8.559,3.029-8.86-7.468-21.48-13.231-35.126-.407-.963-1.346-3.537-2.151-6.734,3.086,15.812,2.994,29.784-3.544,33.938Z" style="fill: #fdfd00;"/>
                  <path d="M121.232-38.447c-2.408,9.149-6.189,17.744-10.837,22.573-9.982,10.372-11.449,5.451-10.992-6.46-5.38,9.308-9.803,15.506-1.002,21.847,7.649,5.511,15.173-5.575,23.669-32.024.671-2.089,1.439-4.059,2.271-5.937h-3.11Z" style="fill: #fdfd00;"/>
                  <path d="M206.819-38.447c2.672,5.15,4.607,10.729,5.55,16.591,1.726-5.08,1.996-10.836,1.529-16.591h-7.078Z" style="fill: #fdfd00;"/>
                </g>
              </g>
            </g>
            <g>
              <path d="M813.958,54.219c-6.733-8.586-9.962-14.005-8.654-24.862,1.016-8.485,4.291-15.44,8.654-20.417V-25.819c-3.677,3.203-8.387,5.399-14.224,6.034-28.361,3.108-62.852-38.687-72.263,2.932-9.412,41.619,37.415,29.148,33.044,42.417-3.017,9.095-23.424,19.704-13.904,3.434-3.564.459-19.485,3.859-25.483,9.928-19.003,19.201.372,29.274.036,28.614-.763-19.134,36.995-24.215,42.026,3.45,5.05,27.65-30.07,4.232-44.837,19.182-14.753,14.969,21.549,17.173,16.795,25.601-4.754,8.428-20.86,7.129-37.845,17.211-17.003,10.097-16.946,33.97-16.946,33.97,0,0,19.209-26.641,27.291-11.842,8.049,14.795-5.772,37.863,5.594,27.434,11.385-10.444,19.828-31.491,6.774-36.118-13.021-4.623-24.505-11.127-6.551-16.914,35.508-11.439,59.438,16.151,58.245-10.819-1.054-23.449,27.269-12.362,42.247-7.346v-57.13Z" style="fill: #ff1515;"/>
              <path d="M715.036,74.513c-12.422,10.929-10.812,5.906-21.533,16.775-10.721,10.868-12.016,24.145-12.237,20.228-.221-3.917-3.919-29.66,7.546-35.132,11.465-5.472,26.223-1.87,26.223-1.87Z" style="fill: #ff1515;"/>
              <path d="M719.006,124.307c.411-.082,4.707-.785,10.5-1.168-4.949,1.122-10.031,1.159-10.5,1.168Z" style="fill: #ff7300;"/>
              <path d="M813.958,56.736c-1.793-2.466-3.539-4.972-5.151-7.498-7.36,9.855-19.835-.542-19.169-15.421.435-9.728,10.453-24.821,18.225-25.98,1.861-2.426,3.904-4.489,6.095-6.161v-13.443c-2.04,1.288-4.143,2.18-6.296,2.721-13.01,12.754-33.874,8.612-35.011-9.717-6.687-3.627-13.074-7.232-18.722-9.018-21.745-6.859-26.459,10.926-24.945,23.206,1.045,8.543,12.142,13.16,22.523,16.822.39-4.984,4.821-9.36,9.822-8.617,7.878,1.171,9.763,12.238,6.7,16.325,5.79,9.014-37.602,39.059-25.127,12.406-.118-6.439-37.611,7.846-23.295,32.38,9.231-25.642,29.64-18.514,41.155-4.191,29.332,36.484-37.521,28.745-39.749,35.898-1.384,4.554,10.293,2.381,17.278,15.123,3.831,6.939-2.258,10.108-8.598,11.541,24.965-1.621,24.609,4.828,35.274,4.966,9.956.129-3.371-38.215,24.858-29.701,5.167-9.778,19.637-4.148,24.133,3.97v-45.611Z" style="fill: #ff7300;"/>
              <path d="M710.156,181.663c.334-.118,14.576-16.466,13.232-26.211-1.344-9.744-26.834-6.925-26.231-14.352.603-7.427,17.407-13.561,17.407-13.561,0,0-30.473,1.163-32.667,34.252,8.421-9.968,16.844-17.382,27.458-11.594,10.614,5.788.801,31.465.801,31.465Z" style="fill: #ff7300;"/>
              <path d="M710.536,75.93c-7.872,1.282-19.886,6.166-12.732,8.344-10.542,1.847-13.597,10.756-14.587,17.984,0,0-1.53-15.482,5.371-22.395,6.901-6.912,21.947-3.934,21.947-3.934Z" style="fill: #fdfd00;"/>
              <path d="M712.506,178.851s17.128-22.362,9.822-28.079c-.99,11.129-9.282,10.656-12.919-5.417-19.109,5.193-20.377-8.583.023-15.88,0,0-23.673,6.228-26.329,30.314.454.305,14.518-21.583,26.171-9.16,11.653,12.423,3.232,28.22,3.232,28.22Z" style="fill: #fdfd00;"/>
              <path d="M758.2,46.086c.783.281,1.688.527,2.677.767-.962-.32-1.881-.584-2.677-.767Z" style="fill: #fdfd00;"/>
              <path d="M813.958,95.188v-4.06c-3.015-2.531-5.691-5.412-7.303-8.243-2.651-4.642,1.438-7.122,7.303-5.664v-18.46c-.183-.18-.365-.368-.549-.543-14.409,23.708-39.177-30.646-8.533-53.515,3.145-2.347,6.176-4.282,9.082-5.859v-5.689c-12.295,13.654-28.295,21.068-36.243,19.244-15.589-3.577-5.743-14.741-12.741-30.587-1.985-4.494-5.193-8.004-10.493-9.456-23.99-6.537-27.822,21.496-16.418,33.885,4.167,4.509,11.679,8.699,17.907,6.7-20.384-14.991,19.333-16.755,9.492,3.45,29.829,19.221-11.43,24.117-26.801,25.782-15.372,1.665,3.902-9.636,3.902-9.636,0,0-7.249-.266-19.905,9.386-12.67,9.633-3.669,21.072-3.669,21.072-4.276-11.287,17.961-25.877,29.296-19.108,5.783,3.457-1.859,5.014-2.956,5.245,14.748.128,44.997,24.578,28.712,36.284,2.196,21.694-20.35,43.611-27.298,35.671-1.031-1.178,3.684-5.8,1.96-10.492-1.746-4.753-4.957,2.744-10.457-8.419-2.376-4.823-1.218-12.943,3.261-11.385,5.887,2.048,16.16,15.367,18.186,20.403,2.467,6.131,14.354-19.586,10.655-29.017.241,12.733-8.955,25.696-15.611,17.151-6.656-8.544,3.011-8.643,3.011-8.643-1.121-.628-21.151-3.406-27.955,1.894-13.72,10.688,2.54,7.38,7.877,17.396,5.137,9.607-14.781,14.932-16.335,15.34,1.134-.26,10.334-2.257,18.525-1.774,9.786.547,18.749,3.815,23.421,2.375,8.872-2.723.311-27.519,19.334-31.552,4.544-.956,8.726-.202,12.66,1.339-11.021-15.199,8.731-8.627,18.682-.513Z" style="fill: #fdfd00;"/>
              <path d="M768.753-18.544s.01,20.924,10.786,23.959c10.777,3.035,34.301-19.334,34.301-19.334-18.827,12.316-39.614,19.696-45.088-4.625Z" style="fill: #fdfd00;"/>
            </g>
            <g>
              <g>
                <path d="M126.528,136.516c-3.082-7.461.092-14.313-4.105-17.306-12.246-8.734-34.641-3.994-32.418-11.437,3.926-13.143,29.846-10.042,34.648-36.247C132.917,26.437,4.935,34.688,60.661-17.656c9.17-8.614,14.229-15.46,16.255-20.79H13.154c-2.252,1.988-4.039,4.106-5.182,6.325C-5.072-6.808,24.431-5.617-3.733,3.839c-18.122,6.084-23.073-20.543-17.431-42.286h-5.911l-3.987,5.462V104.624c3.9,1.584,7.687,1.397,11.191-1.273C-8.48,94.669-27.469,43.901.954,37.695c29.321-6.403,49.71,46.676,60.219,16.01,10.509-30.666,36.065-13.898,36.46,6.64.395,20.537-17.944,26.248-35.955,32.607-35.325,21.539,41.727,63.402,37.329,40.212-4.399-23.19,11.91-17.012,11.112-.799-.798,16.214,29.824,23.125,29.824,23.125,0,0-9.609-9.761-13.416-18.974Z" style="fill: #ff1515;"/>
                <path d="M145.851,159.545c15.788,3.266,27.581,10.949,33.866,24.724,0,0-24.73-8.249-33.866-24.724Z" style="fill: #ff1515;"/>
              </g>
              <path d="M-31.063-19.774c1.285-6.075,3.954-12.473,7.215-18.672h-3.224l-3.991,5.467v13.205Z" style="fill: #ff7300;"/>
              <path d="M71.76-38.447h-23.149c-8.042,5.163-17.45,8.535-20.931,2.683-.537-.902-.835-1.8-.948-2.683h-8.542c-1.457,1.005-2.712,1.979-3.676,2.881-4.296,4.004-1.327,1.761.875,4.716,3.501,4.698-.779,11.223-5.931,11.732.513,6.351,2.406,12.821,2.511,17.826.188,9.76-16.858,18.965-35.175,6.078-4.208-2.954-6.685-6.663-7.856-10.852v48.607c2.672-2.682,6.525-3.302,10.479-1.434,10.539,4.977,2.74,6.805,11.613-4.666,10.484-13.554,26.04.879,28.126-1.351,24.15-25.821,35.111,2.28,15.876,6.556-2.133.474-4.303.745-6.448,1.154,11.615,8.586,21.773,18.16,25.195,15.761,5.79-4.08,9.802-28.004,31.885-22.306C.534,8.712,68.46-15.963,71.76-38.447ZM5.981,24.774c-3.462-5.371-.347-17.618,5.614-19.921,17.368-6.71.406,29.261-5.614,19.921Z" style="fill: #ff7300;"/>
              <path d="M-31.063,91.438c7.005,6.738,9.592,3.51,10.381-6.519-4.797-6.152-8.151-11.824-10.381-16.929v23.447Z" style="fill: #ff7300;"/>
              <path d="M62.261,116.707c2.618-.561,5.317-.726,7.989-.709,4.222.026,9.462.626,12.772,3.532,1.918,1.684,2.982,3.842,2.898,6.421-.082,2.522-1.436,4.93-3.342,6.528-.252.211-.533.374-.8.559,6.568,3.076,12.088,4.729,13.24,4.055,3.62-2.117-4.057-16.509-2.024-20.13,2.033-3.62,14.911-.364,17.9,2.062,2.989,2.426-2.211,12.055,4.399,20.388,6.609,8.333,20.022,12.696,20.022,12.696,0,0-7.001-7.796-8.885-11.735-1.884-3.939-2.551-15.898-3.658-18.56-1.107-2.663-5.015-5.835-14.03-6.192-9.015-.357-28.286-4.052-29.881-10.709-1.147-4.787,21.471-9.391,34.524-19.536-.148-.204-.303-.403-.445-.613-.202-.161-.387-.334-.535-.52-.328-.413-.627-1.08-.722-1.709-1.342-2.86-1.884-6.133-.985-9.154.991-3.331,4.608-4.807,7.792-3.865,1.55.459,2.74,1.601,3.65,2.923.092-.598.157-1.205.178-1.828.691-21.342-28.252-30.512-29.367-31.325,0,0,13.911,10.034,7.853,29.532-6.058,19.498-30.216,17.483-43.16,33.541-3.917,4.86-2.354,10.151,1.808,15.112.925-.313,1.872-.566,2.811-.767Z" style="fill: #ff7300;"/>
              <g>
                <path d="M157.888,170.512c-2.793-5.59,3.072-2.252,12.726,4.99-3.62-3.824-8.805-10.796-21.912-14.146,2.323,3.779,9.186,9.156,9.186,9.156Z" style="fill: #fdfd00;"/>
                <path d="M-31.063,59.078v8.346c.875-1.323.969-3.984,0-8.346Z" style="fill: #fdfd00;"/>
                <path d="M66.824,28.21c-8.853-3.45-15.327,8.978-21.639-11.764-6.328-20.754,3.074-20.353,4.031-30.783.957-10.43-10.813-19.97-19.549-8.003C20.931-10.373,20.151-7.808,16.496-2.336,7.963,10.484-6.33,13.754-20.28,7.433c-5.535-2.514-8.956-7.099-10.783-13.07V2.386c1.578,1.999,3.443,3.818,5.646,5.427C-15.701,14.907-5.108,26.625,12.582,5.522c17.161-20.444-3.532,38.121-6.729,17.272-10.169,8.005-22.834,14.602-28.052-10.202-3.187-1.02-6.189-2.461-8.863-4.238v18.473c6.862,9.103,17.018,14.725,33.158,5.007,9.036-5.455,15.697,11.849,22.049-4.873,6.336-16.733,48.434,6.712,15.338,12.34-11.261,1.911,9.875,19.723,13.741,15.693,1.255-1.319,1.94-3.856,2.591-6.71-14.852-4.452,3.488-25.081,6.314-12.909,8.58-4.33,24.378,1.323,24.378,1.323,0,0-8.035-3.971-19.681-8.488Z" style="fill: #fdfd00;"/>
                <path d="M-28.27,85.575c-.728.376-1.677.179-2.793-.473v4.975c2.252,2.135,4.057,3.095,5.25,2.516,2.742-1.327,1.901-8.429-.619-18.19.867,5.468.646,9.899-1.838,11.172Z" style="fill: #fdfd00;"/>
                <path d="M97.264,77.477c-12.557,13.514-37.245,11.832-40.57,28.034-.755,3.68-.162,6.921,1.22,9.742,25.193-10.047,38.541,14.78,29.591,20.521,2.869,1.191,5.15,1.676,6.325,1.156,5.98-2.632-4.709-10.397-3.073-17.624.656-2.896,3.594-4.472,7.081-4.728-.21-.005-.437-.012-.63-.015-6.419-.094-23.562,2.696-19.717-10.701,3.844-13.397,22.02-10.516,33.856-16.111-12.446-2.585,5.029-34.169,8.97-17.799,1.603-16.641-24.228-27.577-25.355-28.23-.894-.507,23.361,13.091,2.302,35.755Z" style="fill: #fdfd00;"/>
                <path d="M109.403,118.986c12.757-2.956,2.067,15.431,2.041,16.372,4.431-8.087,12.659,3.826,12.942,6.756.334,3.457-2.241,3.941-2.241,3.941,5.044,3.088,10.042,6.136,12.036,5.254,0,0-4.115-3.799-5.553-7.867-1.438-4.068-2.951-5.345-6.603-7.786-8.097-5.41-8.464-20.438-1.279-14.161-1.1-4.596-12.061-6.269-19.455-6.759,3.021.497,6.045,1.901,8.112,4.25Z" style="fill: #fdfd00;"/>
                <path d="M55.713-38.447c-6.771,3.387-15.548,6.075-17.122,6.734,12.713-.545,15.851,5.066,14.101,17.063,0,0,2.669-15.032,6.196-22.197.313-.635.658-1.161,1.024-1.6h-4.199Z" style="fill: #fdfd00;"/>
                <path d="M22.272-38.447h-5.147c-1.751,1.671-3.29,3.562-4.475,5.7,14.714.145-1.082,24.8-3.489,17.24.501,7.157,2.858,12.47,2.858,12.47-1.458-8.634,7.567-25.627,20.175-25.971-6.829.397-12.865-3.912-9.922-9.439Z" style="fill: #fdfd00;"/>
              </g>
            </g>
            <g>
              <path d="M561.573-38.447h-42.02c10.997,9.757,25.154,12.058,42.02,0Z" style="fill: #ff1515;"/>
              <path d="M597.553-38.447c-4.476,43.886-54.851,44.032-46.902,18.622,0,0-32.486,29.713,6.339,42.391,38.825,12.677,64.503-39.996,65.765,0,1.892,59.965-62.787,81.97-62.199,44.371.299-19.117-46.051-24.914-47.937-15.847-1.886,9.066,5.769,29.822-5.15,27.336-10.919-2.486-20.997-5.943-24.563,0-3.565,5.943-.009,24.959-.009,24.959,0,0-.783-15.451,12.686-18.62,13.47-3.169,28.854,14.807,29.498,12.094.644-2.713.214-2.189.214-20.413s47.541-5.15,28.92,20.601c-18.62,25.751,118.059-4.358,107.759-9.904-10.3-5.547-23.374-21.393-5.15-39.221,18.224-17.828,32.288-27.534,17.63-44.569-14.658-17.035-15.649-43.975.99-38.627,16.639,5.348,35.061,36.052,38.231,7.923.443-3.931.123-7.61-.731-11.095h-115.392Z" style="fill: #ff1515;"/>
              <path d="M559.305-38.447h-31.156c.856.485,1.725.962,2.628,1.417,10.639,5.336,20.088,3.371,28.528-1.417Z" style="fill: #ff7300;"/>
              <path d="M649.42-11.839c-.94-7.831-6.631-18.979.025-25.612,3.26-3.249,7.793,2.97,9.717,6.676.894-3.244,1.931-5.757,3.081-7.672h-31.315c.527,10.223-5.364,18.731-17.439,13.27-14.143-6.396-6.008-17.215-13.351,3.289-11.724,32.708-34.25,30.903-52.604,8.51,0,0-10.102,26.028,11.671,33.801,21.797,7.773,44.498-22.915,60.614-14.952,16.092,7.987,7.083,40.671-1.949,61.399-1.078,2.473-.827.371,1.601,3.597,8.026,10.665-6.954,26.383-16.009,12.425-12.708,8.247-29.205,11.136-37.079,10.672-11.695-.689-4.516-23.509-9.294-32.541-4.778-9.033-26.837-13.026-38.27-11.695-11.433,1.331,2.116,31.9,1.854,34.015-.261,2.139-18.065-7.963-31.092-5.301-12.598,2.567-6.394,14.69-5.99,15.475-.166-.69-1.569-7.488,11.315-11.766,13.549-4.493,23.58,11.243,28.952,10.839,5.403-.463-3.969-24.398,5.325-29.974,9.294-5.562,27.906,6.656,29.237,12.693.782,3.548-2.183,12.147-2.543,19.112-.514,10.538,4.869,9.965,14.654,9.132,1.196-1.928,10.1-7.953,10.383-8.127,14.193-11.315,22.904-4.401,20.715,4.149,24.335-3.723,50.813-8.81,53.537-10.978,4.337-3.452-12.771-13.938-12.587-31.347-5.202,2.19-9.844.765-12.534-3.153-8.788-12.8,9.957-33.207,19.219-14.481,9.483-11.417,25.907-15.966,27.96-19.192,2.501-3.931-2.279-4.992-9.924-18.117-4.41,20.137-15.392,6.583-17.881-14.145Z" style="fill: #ff7300;"/>
              <path d="M681.089-38.447c11.954,8.936,24.697,25.266,30.009,11.234,1.313-3.455,1.11-7.243-.075-11.234h-29.934Z" style="fill: #ff7300;"/>
              <g>
                <path d="M483.574,92.264c.012.206.047.323.047.323,0,0-.02-.133-.047-.323Z" style="fill: #fdfd00;"/>
                <path d="M627.974,44.027c-.214.927-.428,1.83-.666,2.734.143-.903.38-1.807.666-2.734Z" style="fill: #fdfd00;"/>
                <path d="M485.779,78.185c7.488-3.993,22.724,1.997,30.26,6.133,1.212.642-2.163.951-1.022,1.593,12.265,6.632,2.234-20.324.261-30.45-1.402-7.203,16.853-5.277,31.9.689,15.07,5.966,6.347,16.829,21.013,31.805,6.085,6.204,28.073-8.201,33.92.262,9.389,13.525,46.447-10.364,14.952-18.351,4.421-5.824,7.939-14.215,10.245-23.105-1.165,6.869,1.902,12.907,12.622,11.671,3.756,25.696,9.925,29.269,1.415,33.832-2.338,1.244-22.905,4.976-36.71,8.513,2.081-33.052-37.397.501-41.436,2.935,0,0-7.447,1.097-6.906-3.294.541-4.391,9.07-14.27,5.671-19.999-2.152-3.626-5.628-14.396-11.984-17.456-13.727-6.61-33.482-3.118-30.184,3.836,4.825,10.15,2.139,17.78,2.496,22.796.214,3.209-4.231-.452-10.007-4.16-.594-.38,2.258-1.783,1.664-2.139-5.277-3.209-16.782-2.282-21.346.119-8.248,4.374-9.033,7.63-9.033,8.747-.309-2.092-1.474-11.98,2.211-13.977Z" style="fill: #fdfd00;"/>
              </g>
              <g>
                <path d="M652.695-38.447h-7.971c5.668,16.868,14.445,32.071,15.843,31.884-6.925-12.502-8.876-23.183-7.871-31.884Z" style="fill: #fdfd00;"/>
                <path d="M681.677-38.447c.426.31.845.609,1.254.893,10.079,7.012,21.179,12.194,22.487-.19.025-.239.043-.471.062-.703h-23.802Z" style="fill: #fdfd00;"/>
              </g>
              <path d="M663.011.694c3.637,10.839,8.51,23.271-4.231,18.921-6.747-2.303-15.439-30.536-19.237-58.061h-6.649c4.448,13.108,1.77,24.749-11.766,20.266-32.756-10.863-23.509-3.922-24.626,11.624-1.117,15.546-32.946,8.534-32.946,8.534,0,0,12.717,11.624,30.236,6.489,8.771-2.591-6.537-9.199,13.026-18.802,19.563-9.627,16.14-.594-3.114,14.024-9.556,7.274-21.227,17.519-33.136,13.145-12.075-4.421-24.317-23.556-24.317-23.556,0,0-18.802,23.39,16.639,26.575,25.363,2.258,39.673-18.208,56.668-17.21,11.291.666,12.884,21.726,8.415,41.384,3.898-12.408,19.634-24.816,27.859-1.26,5.277-3.233,22.487-20.395,17.59-25.601-4.659-4.968-8.011-10.53-10.411-16.473ZM644.684,20.423c-1.687.214-11.79-22.772-10.554-29.095,1.26-6.323,23.366,27.479,10.554,29.095Z" style="fill: #fdfd00;"/>
            </g>
            <g>
              <path d="M692.071,512.277c21.37-8.137,24.417-64.08,47.167-39.894,18.24,19.391-16.967,32.989-34.792,56.574h109.513v-130.889c-33.428-10.702-26.656,23.113-26.656,23.113,0,0,34.417,73.842-11.706,47.428-46.123-26.414-32.859-74.502-47.344-43.178-14.485,31.324-20.916,57.158-50.561,34.055-29.645-23.102,39.991-39.009,55.197-49.561,15.206-10.552-5.527-60.779-20.451-52.616-14.925,8.163-31.154-20.07,9.382-12.379,40.536,7.692-10.018-49.857-10.018-49.857-.426,8.53,15.974,36.246-8.66,24.332-24.633-11.914-48.321.498-51.986,8.336-3.665,7.838,16.395,41.769,20.576,41.261,4.181-.508,25.133-2.551,37.625-9.047,12.492-6.496,22.912,67.149-13.586,51.297-52.753-22.911-76.738,14.135-66.831,37.513,9.907,23.378,41.761,71.649,63.131,63.513Z" style="fill: #ff1515;"/>
              <path d="M655.712,471.115c7.485-11.872,40.273,22.582,24.501,35.05,16.095,9.649,24.928-13.179,41.653-40.117,13.746-22.128,29.517,11.172,29.828,22.428,6.915,11.181-1.274,32.608-9.747,40.481h19.623c-.925-4.119,7.697-15.14,5.415-36.741-.352-3.337,3.579-4.443,5.326-1.786,6.484,9.861.573,31.884-4.982,38.528h16.279c.997-1.575,2.293-3.163,3.934-4.725-5.5-7.751-7.607-23.795.796-30.072,1.509-1.127,1.659-.212,4.449-1.028,15.372-4.501,21.917,27.287,10.784,35.23-.317.226-.601.423-.856.595h11.244v-43.484c-3.895-7.531-3.959-17.472,0-25.762v-56.523c-12.052-4.086-21.224-4.102-21.869,3.579-2.037,24.079,11.992,38.156,12.151,57.121.144,18.948-8.677,15.367-29.754,11.983-22.776-3.657-36.815-60.202-43.356-56.257-7.68,6.771-17.096,42.448-26.957,52.003-10.977,10.661-32.763-3.428-37.148-23.81-4.388-20.352,62.523-33.331,68.879-45.004,10.103-18.579-14.367-45.192-21.541-44.594,21.309,18.709,8.876,50.639-5.163,57.906-5.396,2.802-16.592.297-28.891-2.032,2.478,2.544,3.983,5.901,2.977,9.56-4.271,15.542-27.494-2.219-20.055-12.108-45.267-3.768-39.399,40.494-7.628,73.992-.403-2.972-1.509-11.848.107-14.411Z" style="fill: #ff7300;"/>
              <path d="M712.564,528.957h18.996c-1.584-2.681-2.657-7.288-2.881-14.376-5.473,4.428-11.158,9.178-16.115,14.376Z" style="fill: #ff7300;"/>
              <path d="M722.287,328.326c-3.072,7.879-13.75.166-26.758-8.725-13.008-8.89-38.684,3.406-42.012,9.895-1.202,2.343.052,6.704,2.434,11.631.587-.412,1.25-.758,2.039-.991,3.079-.91,6.334.339,8.505,2.564,2.106,2.158,3.244,5.233,3.882,8.123.619,2.801.848,5.84.441,8.689-.148,1.038-.414,2.026-.782,2.962.693.828,1.335,1.559,1.9,2.163,6.296,6.729,31.637-3.656,32.25-4.426,0,0-15.143-.315-11.364-13.989,3.78-13.673,29.361-2.618,39.029-6.68,9.668-4.062-15.512-34.089-15.512-34.089,0,0,9.018,14.993,5.946,22.872Z" style="fill: #ff7300;"/>
              <g>
                <path d="M715.551,359.316c21.829,13.665,8.423,28.843,6.758,37.549,14.684-.1-.458,14.353-5.825,18.301,8.111-3.975,14.627-6.396,17.15-11.426,6.131-12.221-1.879-29.911-8.545-38.871-3.884-5.221-7.56-5.271-9.539-5.553Z" style="fill: #fdfd00;"/>
                <path d="M698.322,321.031c-21.915-9.741-46.734,5.378-43.202,15.288.696-9.303,25.129-3.369,17.229,25.916,2.92,1.989,29.905-1.959,29.905-1.959,0,0-15.174.082-18.698-3.907-3.651-4.132,4.477-12.395,12.517-15.708,20.515-8.452,29.05,4.001,33.018-2.762,3.862-6.583-7.976-21.067-7.976-21.067,0,0,3.633,11.421-1.434,13.307-3.331,1.24-12.665-5.245-21.358-9.109Z" style="fill: #fdfd00;"/>
              </g>
              <path d="M682.641,505.052c24.986,4.475,23.995-30.317,36.63-50.735,5.694-9.211,21.861-16.903,34.95,21.153,8.124,23.63.54,42.961-9.088,53.486h11.846c.986-5.453,4.883-14.341,5.898-23.834,1.385-12.984-5.192-28.313,5.834-19.248,14.555,11.96,8.958,33.094.447,43.082h9.159c2.394-3.132,5.503-5.35,8.758-5.37-12.489-13.412-10.44-26.692-.226-30.35-12.933-4.638,8.074-10.905,18.638-.103,2.193,2.257,3.509,5.259,4.628,8.232,3.321,8.822,2.534,19.754.301,27.59h3.542v-12.207c-1.359-7.349-2.832-15.354-2.902-15.924-.181-1.473,1.015-1.921,2.902-1.597v-3.484c-9.048-11.436-11.846-30.527,0-48.226v-39.923c-8.626-2.127-15.368-2.068-17.536,1.592-4.722,7.921,8.002,16.124,8.819,43.179.434,24.358-12.106,31.541-31.468,21.644-31.578-16.148-37.438-53.151-39.232-51.974-6.537,4.289-17.639,41.361-32.291,54.279-9.383,8.273-39.926-11.39-39.862-29.019.042-9.951,25.972-20.239,31.251-22.119,4.823-1.709,10.319-4.097,15.239-6.384-2.265.841-10.725,3.964-19.248,2.23-4.003-.835-11.163-4.465-13.214-5.547,27.719,15.967-21.239,22.887-18.63-5.396-14.196,2.256-24.126,18.236-26.642,24.79-3.177,8.264,4.495,26.211,16.083,41.977-8.029-40.841,66.413,13.01,35.413,28.201ZM753.405,465.236c.304-2.147,30.933,19.088,26.347,23.131-4.586,4.043-27.43-15.442-26.347-23.131Z" style="fill: #fdfd00;"/>
              <path d="M723.799,528.957c.044-1.415.24-3.004.632-4.794-2.31,1.566-4.405,3.168-6.323,4.794h5.691Z" style="fill: #fdfd00;"/>
            </g>
            <g>
              <path d="M484.814,366.759c17.58-8.409,18.602,3.97,27.325-14.033,8.723-18.003,5.908-26.447-14.709-35.53-20.617-9.083-25.175-9.832-25.175-9.832,0,0,21.076,12.316,20.207,27.975-.869,15.659-31.614,26.237-27.145,38.752,4.47,12.515,15.452,20.93,31.933,22.922-16.094-3.709-26.287-23.63-12.437-30.254Z" style="fill: #ff1515;"/>
              <path d="M477.22,388.652s-10.079-13.059-7.141-20.9c2.938-7.841,27.207-12.471,28.394-21.113,1.187-8.641-12.357-33.131-11.361-32.224s26.692,6.387,27.129,22.584c.438,16.197-9.004,24.155-19.513,23.09-10.509-1.065-18.085-.826-20.423,10.413-2.338,11.239,2.914,18.149,2.914,18.149Z" style="fill: #ff7300;"/>
              <g>
                <path d="M488.62,317.096s6.163,5.97,8.783,13.039c21.609,2.507,7.041,38.536-.016,16.759-5.652,4.283-20.11,10.386-24.255,15.383-6.149,7.413-4.419,16.27,3.331,25.466-3.502-5.083-2.282-13.984-.819-17.72-11.11,2.13,3.8-12.958,8.865-14.224,9.963-2.49,19.433,7.05,25.842-12.542,6.409-19.592-21.731-26.161-21.731-26.161Z" style="fill: #fdfd00;"/>
                <path d="M477.132,388.564c-1.189-1.579-.605-.564.316.366-.108-.118-.216-.233-.316-.366Z" style="fill: #fdfd00;"/>
                <path d="M477.447,388.93c.19.208.388.406.605.603-.211-.192-.404-.401-.605-.603Z" style="fill: #fdfd00;"/>
              </g>
            </g>
          </g>
        </g>
      </g>
    </g>
  </g>
</svg>