<?xml version="1.0" encoding="UTF-8"?>
<!DOCTYPE svg PUBLIC "-//W3C//DTD SVG 1.1//EN" "http://www.w3.org/Graphics/SVG/1.1/DTD/svg11.dtd">
<!-- Creator: CorelDRAW X6 -->
<svg xmlns="http://www.w3.org/2000/svg" xml:space="preserve" width="231.882mm" height="54.2762mm" version="1.1" style="shape-rendering:geometricPrecision; text-rendering:geometricPrecision; image-rendering:optimizeQuality; fill-rule:evenodd; clip-rule:evenodd"
viewBox="0 0 12354 2892"
 xmlns:xlink="http://www.w3.org/1999/xlink">
 <defs>
  <style type="text/css">
   <![CDATA[
    .fil0 {fill:black;fill-rule:nonzero}
   ]]>
  </style>
 </defs>
 <g id="Capa_x0020_1">
  <metadata id="CorelCorpID_0Corel-Layer"/>
  <path class="fil0" d="M0 2097c0,0 1319,-2045 1319,-2045 0,0 527,0 527,0 128,0 225,12 292,36 66,24 116,76 149,156 33,80 36,182 11,305 -26,123 -79,262 -160,418 -104,202 -226,383 -368,544 -140,161 -283,288 -427,383 -144,94 -267,152 -368,172 -101,21 -233,31 -397,31 0,0 -578,0 -578,0zm768 -457c0,0 106,0 106,0 112,0 205,-20 279,-61 74,-41 159,-117 256,-229 96,-111 184,-245 265,-401 155,-302 145,-452 -32,-452 0,0 -137,0 -137,0 0,0 -737,1143 -737,1143zm3826 -1111c0,0 -474,133 -474,133 20,-61 16,-109 -13,-143 -28,-36 -70,-53 -125,-53 -104,0 -180,45 -226,134 -15,29 -20,54 -16,75 4,21 31,47 83,78 0,0 191,116 191,116 50,29 88,74 114,132 27,58 34,122 23,191 -11,69 -37,144 -78,222 -106,207 -257,377 -452,512 -194,134 -396,201 -605,201 -179,0 -310,-47 -394,-141 -85,-94 -103,-237 -56,-430 0,0 514,-115 514,-115 -35,145 24,217 179,217 64,0 119,-15 164,-45 44,-31 76,-65 96,-104 13,-25 19,-47 18,-66 -2,-19 -7,-32 -15,-41 -8,-8 -53,-38 -134,-88 -110,-67 -184,-122 -221,-162 -37,-40 -54,-101 -51,-181 2,-79 31,-173 87,-281 96,-187 231,-345 404,-474 172,-130 368,-195 586,-195 166,0 286,46 357,137 72,90 87,214 44,371zm-64 1620c-186,0 -308,-79 -363,-238 -55,-158 -7,-384 146,-680 177,-343 403,-633 680,-872 277,-239 539,-359 787,-359 198,0 317,84 358,251 41,167 -9,386 -148,656 -179,346 -406,639 -681,880 -276,241 -535,362 -779,362zm249 -475c80,0 165,-45 253,-135 88,-89 189,-220 303,-394 113,-172 186,-289 218,-351 54,-104 76,-184 67,-238 -9,-54 -44,-81 -105,-81 -116,0 -253,106 -411,319 -157,214 -278,402 -363,566 -107,209 -95,314 38,314zm2278 -432c0,0 -271,855 -271,855 0,0 -468,0 -468,0 0,0 262,-776 262,-776 0,0 -187,0 -187,0 0,0 -501,776 -501,776 0,0 -450,0 -450,0 0,0 1319,-2045 1319,-2045 0,0 690,0 690,0 187,0 299,53 334,160 35,106 6,251 -89,434 -151,293 -364,491 -639,596zm-389 -347c0,0 178,0 178,0 171,0 296,-75 373,-225 65,-126 26,-189 -118,-189 0,0 -166,0 -166,0 0,0 -267,414 -267,414zm-3275 -843c0,0 -1319,2045 -1319,2045 0,0 -449,0 -449,0 0,0 1319,-2045 1319,-2045 0,0 449,0 449,0zm3620 2045c0,0 1319,-2045 1319,-2045 0,0 527,0 527,0 128,0 225,12 292,36 67,24 116,76 150,156 32,80 36,182 10,305 -26,123 -79,262 -159,418 -104,202 -227,383 -368,544 -141,161 -283,288 -428,383 -143,94 -266,152 -368,172 -101,21 -233,31 -397,31 0,0 -578,0 -578,0zm768 -457c0,0 106,0 106,0 112,0 205,-20 279,-61 75,-41 160,-117 256,-229 96,-111 184,-245 265,-401 156,-302 145,-452 -32,-452 0,0 -137,0 -137,0 0,0 -737,1143 -737,1143zm2325 -12c0,0 -304,469 -304,469 0,0 -1164,0 -1164,0 0,0 1319,-2045 1319,-2045 0,0 1136,0 1136,0 0,0 -289,448 -289,448 0,0 -676,0 -676,0 0,0 -208,322 -208,322 0,0 569,0 569,0 0,0 -287,444 -287,444 0,0 -569,0 -569,0 0,0 -233,362 -233,362 0,0 706,0 706,0zm1505 -386c0,0 -271,855 -271,855 0,0 -467,0 -467,0 0,0 261,-776 261,-776 0,0 -187,0 -187,0 0,0 -501,776 -501,776 0,0 -450,0 -450,0 0,0 1319,-2045 1319,-2045 0,0 690,0 690,0 188,0 299,53 334,160 36,106 6,251 -88,434 -152,293 -365,491 -640,596zm-389 -347c0,0 178,0 178,0 171,0 296,-75 373,-225 66,-126 26,-189 -118,-189 0,0 -166,0 -166,0 0,0 -267,414 -267,414z"/>
  <path class="fil0" d="M349 2890c-109,0 -188,-16 -239,-49 -51,-33 -76,-89 -76,-170l0 -214 115 0 -1 220c0,22 4,41 11,58 7,16 16,29 28,39 12,10 26,18 44,24 18,6 36,10 55,12 19,2 40,3 63,3 135,0 202,-45 202,-136l0 -220 115 0 0 214c0,77 -26,133 -78,168 -52,34 -131,51 -239,51zm458 -16l0 -417 129 0 478 311 0 -311 115 0 0 417 -127 0 -480 -301 0 301 -115 0zm880 0l0 -417 300 0c75,0 141,8 199,25 58,16 103,41 135,72 33,32 49,69 49,111 0,43 -16,80 -49,111 -32,32 -77,56 -135,73 -58,16 -124,25 -199,25l-300 0zm152 -78l137 0c84,0 149,-11 195,-33 47,-23 71,-55 73,-98 2,-38 -18,-70 -60,-94 -41,-24 -102,-37 -181,-37l-201 0 0 227c0,24 13,35 37,35zm649 78l0 -417 609 0 0 77 -494 0 0 90 412 0 0 71 -412 0 0 101 494 0 0 78 -609 0zm1365 0l-132 0 -165 -166 -212 -1 0 167 -115 0 0 -417 422 0c56,0 102,11 137,33 36,22 53,53 53,95 0,76 -55,117 -165,122l177 167zm-509 -340l0 105 301 0c51,0 76,-18 76,-54 0,-16 -7,-28 -20,-37 -14,-9 -33,-14 -56,-14l-301 0zm1007 358c-80,0 -153,-10 -217,-30 -64,-19 -113,-46 -149,-81 -35,-35 -53,-73 -53,-116 0,-42 18,-81 53,-115 36,-35 85,-62 150,-82 64,-19 136,-29 216,-29 127,0 225,15 293,45l0 101 -32 0c-19,-23 -53,-40 -104,-52 -51,-11 -103,-17 -157,-17 -86,0 -157,14 -210,42 -54,28 -81,64 -81,107 0,45 26,81 77,108 52,27 123,41 214,41 33,0 66,-3 100,-8 35,-6 62,-14 82,-25l0 -83 -302 0 0 -69 413 0 12 219c-81,29 -182,44 -305,44zm1070 -18l-133 0 -164 -166 -212 -1 0 167 -115 0 0 -417 421 0c57,0 102,11 138,33 35,22 53,53 53,95 0,76 -55,117 -165,122l177 167zm-509 -340l0 105 300 0c51,0 77,-18 77,-54 0,-16 -7,-28 -21,-37 -13,-9 -32,-14 -56,-14l-300 0zm1247 294c-74,42 -168,64 -283,64 -115,0 -209,-22 -283,-64 -74,-42 -110,-96 -110,-163 0,-66 36,-120 110,-163 74,-42 168,-63 283,-63 115,0 209,21 283,63 74,43 110,97 110,163 0,67 -36,121 -110,163zm-295 -14c82,0 149,-14 201,-42 52,-28 78,-64 78,-109 0,-44 -23,-79 -68,-106 -46,-27 -108,-41 -187,-41 -81,0 -148,14 -200,42 -52,28 -78,64 -78,109 0,44 22,80 67,107 46,27 108,40 187,40zm815 76c-109,0 -189,-16 -239,-49 -51,-33 -77,-89 -77,-170l0 -214 116 0 -1 220c0,22 3,41 10,58 8,16 17,29 29,39 12,10 26,18 44,24 18,6 36,10 55,12 19,2 40,3 63,3 134,0 202,-45 202,-136l0 -220 115 0 0 214c0,77 -26,133 -78,168 -52,34 -132,51 -239,51zm458 -16l0 -417 129 0 477 311 0 -311 115 0 0 417 -126 0 -480 -301 0 301 -115 0zm880 0l0 -417 300 0c75,0 141,8 199,25 57,16 103,41 135,72 33,32 49,69 49,111 0,43 -16,80 -49,111 -32,32 -78,56 -135,73 -58,16 -124,25 -199,25l-300 0zm152 -78l136 0c84,0 150,-11 196,-33 47,-23 71,-55 72,-98 2,-38 -17,-70 -59,-94 -41,-24 -102,-37 -182,-37l-200 0 0 227c0,24 12,35 37,35zm1318 96c-75,0 -142,-6 -201,-18 -59,-12 -105,-28 -139,-48l9 -89c35,25 80,45 132,59 53,14 122,21 208,21 66,0 113,-6 142,-17 30,-11 44,-28 44,-51 0,-12 -7,-22 -22,-29 -15,-7 -35,-11 -60,-13 -24,-2 -52,-4 -84,-5 -31,-1 -63,-2 -96,-2 -32,0 -64,-2 -96,-7 -31,-5 -59,-11 -84,-19 -25,-8 -45,-21 -60,-39 -14,-17 -22,-39 -22,-65 0,-87 98,-131 294,-131 133,0 243,14 329,41l0 98 -33 0c-20,-22 -59,-38 -117,-49 -59,-10 -116,-16 -171,-16 -67,0 -114,5 -141,14 -27,8 -40,22 -40,41 0,14 10,25 30,33 19,8 44,12 75,14 31,1 66,2 103,3 38,0 76,2 113,5 38,3 73,8 104,15 31,8 56,20 76,39 19,18 29,42 29,71 0,52 -27,89 -81,111 -53,22 -133,33 -241,33zm1096 -435l115 0 0 417 -115 0 0 -182 -509 0 0 182 -115 0 0 -417 115 0 0 158 509 0 0 -158zm909 371c-73,42 -168,64 -283,64 -115,0 -209,-22 -283,-64 -73,-42 -110,-96 -110,-163 0,-66 37,-120 110,-163 74,-42 168,-63 283,-63 115,0 210,21 283,63 74,43 111,97 111,163 0,67 -37,121 -111,163zm-295 -14c82,0 149,-14 201,-42 52,-28 78,-64 78,-109 0,-44 -23,-79 -68,-106 -46,-27 -108,-41 -186,-41 -82,0 -149,14 -201,42 -52,28 -78,64 -78,109 0,44 23,80 68,107 45,27 107,40 186,40zm523 60l0 -417 422 0c56,0 102,11 137,33 36,22 53,55 53,98 0,84 -63,126 -190,126l-307 -1 0 161 -115 0zm115 -229l301 0c51,0 76,-19 76,-57 0,-17 -7,-30 -20,-40 -14,-9 -33,-14 -56,-14l-301 0 0 111z"/>
 </g>
</svg>
