<?xml version="1.0" encoding="UTF-8"?>
<!DOCTYPE svg PUBLIC "-//W3C//DTD SVG 1.1//EN" "http://www.w3.org/Graphics/SVG/1.1/DTD/svg11.dtd">
<!-- Creator: CorelDRAW X6 -->
<svg xmlns="http://www.w3.org/2000/svg" xml:space="preserve" width="94.0767mm" height="87.0339mm" version="1.1" style="shape-rendering:geometricPrecision; text-rendering:geometricPrecision; image-rendering:optimizeQuality; fill-rule:evenodd; clip-rule:evenodd"
viewBox="0 0 2272 2102"
 xmlns:xlink="http://www.w3.org/1999/xlink">
 <defs>
  <style type="text/css">
   <![CDATA[
    .str0 {stroke:#1C1B17;stroke-width:81.553;stroke-linejoin:round}
    .fil0 {fill:none}
    .fil1 {fill:#1C1B17}
    .fil3 {fill:#F5B5D2}
    .fil2 {fill:url(#id0)}
   ]]>
  </style>
  <linearGradient id="id0" gradientUnits="objectBoundingBox" x1="50%" y1="100%" x2="50%" y2="0%">
   <stop offset="0" style="stop-color:#E52936"/>
   <stop offset="0.439216" style="stop-color:#E52936"/>
   <stop offset="0.54902" style="stop-color:#F5B5D2"/>
   <stop offset="1" style="stop-color:#FEFEFE"/>
  </linearGradient>
 </defs>
 <g id="Capa_x0020_1">
  <metadata id="CorelCorpID_0Corel-Layer"/>
  <g id="_1225470128">
   <g>
    <path class="fil0 str0" d="M812 421c4,-4 8,-31 10,-39 3,-12 6,-32 7,-43 0,-15 4,-31 5,-45 1,-16 2,-32 4,-47 1,-19 2,-29 -1,-48 -4,-30 -10,-47 -33,-67 -8,-7 -23,-13 -37,-14 -36,-3 -55,3 -86,13 -40,13 -69,24 -101,49 -11,9 -17,16 -28,24 -16,14 -34,34 -46,54 -34,55 -28,98 -4,157 18,43 81,104 123,128 32,19 66,36 100,51 33,14 37,16 69,32 10,6 58,32 62,39 -10,15 -40,18 -60,20 -13,1 -41,6 -54,6 -20,1 -37,2 -58,2 -13,0 -27,0 -40,0 -13,1 -27,1 -40,1 -13,0 -26,2 -38,1l10 -29c3,-11 12,-55 0,-66 -9,-8 -18,-11 -31,-9 -27,4 -41,7 -62,16 -21,8 -21,23 -33,46 -5,8 -9,18 -13,26 -15,36 -32,55 -18,88 3,8 10,17 15,25l22 36c3,4 7,6 11,10 9,8 14,10 30,7 83,-18 66,-9 143,-14 13,0 24,-2 37,-2 61,-2 177,-27 222,-51 18,-9 31,-21 39,-40 1,-4 3,-10 5,-13 12,-25 6,-17 11,-29 2,-6 3,-10 4,-16 5,-24 6,-47 -5,-66 -5,-8 -12,-15 -18,-21 -30,-34 -78,-58 -118,-79 -38,-20 -67,-32 -108,-47 -7,-2 -17,-9 -25,-13 -9,-6 -17,-10 -25,-15 -30,-19 -42,-30 -58,-61 -3,-7 -7,-22 -8,-30 -1,-22 13,-33 29,-50 15,-16 25,-23 41,-37 20,-17 49,-36 78,-41 16,-2 18,-3 30,5 12,8 11,10 14,25 2,10 5,24 6,35 1,5 2,10 3,15 4,21 4,62 8,91 2,11 2,28 10,30zm559 787l1 1c2,4 3,24 4,30 3,32 17,84 34,111 15,26 5,13 23,31 3,2 6,6 10,8 10,5 53,13 65,-4 3,-5 4,-9 2,-16 -1,-6 -1,-10 -3,-16 -4,-10 -6,-20 -10,-30 -16,-45 -15,-46 -21,-97 -5,-43 -7,-105 -5,-150 1,-32 4,-62 6,-93 1,-9 2,-18 3,-28 3,-25 2,-32 3,-57 0,-12 -4,-13 -13,-15 -23,-6 -25,-6 -50,-1 -9,2 -15,5 -22,8 -8,4 -9,8 -13,16 -3,7 -5,13 -8,20 -6,15 -11,29 -16,44 -3,8 -59,162 -64,171 -4,-28 -8,-54 -12,-81 -5,-31 -27,-170 -42,-190 -3,-4 -11,-6 -17,-3 -6,3 -3,14 -3,27 0,4 1,11 1,16 3,56 3,111 3,168l-3 197c1,37 -8,65 7,101 4,10 15,31 22,38 23,24 32,20 47,-11 6,-13 3,-3 9,-21 11,-28 20,-58 30,-88 10,-28 22,-60 32,-86zm-423 -682l13 0c3,8 5,18 8,26 11,37 22,63 38,97 9,19 38,71 49,88 4,7 10,15 14,21 15,23 41,58 59,78 10,11 26,29 40,29 19,0 27,-20 33,-35 9,-22 14,-31 14,-58 0,-20 -5,-23 -15,-37 -42,-56 -74,-101 -103,-167 -4,-10 -28,-70 -28,-80 11,-7 24,-13 38,-23 12,-9 40,-28 51,-40 13,-14 14,-21 21,-40 3,-11 9,-41 -3,-48 -13,-8 -33,-3 -47,0 -7,2 -15,4 -21,8 -9,4 -36,32 -46,41 -3,3 -13,13 -17,13 -2,-6 -5,-22 -6,-29 -16,-68 -19,-130 -29,-198 -3,-18 -5,-48 -11,-64 -4,-10 -8,-18 -21,-16 -12,2 -19,3 -24,13 -17,33 -22,87 -26,125l-4 66 1 35c0,28 20,129 19,132 -36,10 -102,-12 -85,20 3,5 5,10 8,14 18,16 54,29 80,29zm567 -133c1,21 8,69 12,91 16,96 60,179 106,262 15,27 39,73 62,95 11,11 27,32 45,33 6,0 8,-3 15,-12 5,-5 6,-9 9,-17 2,-5 6,-11 9,-17 1,-2 14,-36 14,-39 0,-16 5,-29 -3,-42l-21 -27c-34,-47 -81,-128 -107,-181 -22,-44 -36,-88 -51,-139l-16 -56c-11,-38 -22,-101 -17,-140 1,-6 2,-20 -3,-24 -2,-2 -5,-2 -8,-2 -13,0 -14,7 -18,18 -4,8 -7,18 -10,27 -6,19 -11,38 -14,59 -7,47 -6,63 -4,111zm-159 15c1,5 0,20 1,27 3,36 25,133 34,166 17,59 41,110 68,160 14,24 27,50 42,72 9,13 17,20 26,31 18,22 39,16 49,-8 10,-23 20,-38 18,-68 0,-11 -12,-23 -21,-35 -23,-32 -46,-74 -63,-110 -27,-52 -42,-110 -60,-167 -20,-62 -29,-128 -36,-193 -3,-28 -3,-23 -3,-54 0,-9 3,-29 -16,-24 -5,1 -6,2 -8,7 -11,34 -18,54 -24,90 -2,8 -3,15 -4,23 -4,20 -7,65 -3,83zm-135 116l2 37c2,11 3,23 6,34 9,43 20,81 39,119 13,26 46,93 71,109 4,3 7,5 15,4 14,-2 22,-20 27,-32 3,-9 8,-17 10,-29 3,-16 10,-33 -1,-52 -4,-8 -9,-17 -14,-25 -42,-70 -67,-145 -86,-232 -5,-22 -8,-45 -14,-65 -3,-11 -5,-23 -16,-24 -15,-2 -18,6 -21,18 -6,21 -12,42 -16,63 -2,18 -6,56 -2,75zm-52 1115c16,-2 32,-3 48,-3 8,0 20,-2 27,-3 23,0 47,-3 69,-3l23 -1c26,0 51,-2 77,-2 10,0 20,-1 30,-1 21,1 97,0 113,0l56 1c96,1 198,10 290,29 14,3 27,7 40,10 12,3 26,7 38,10 26,9 49,15 74,26 30,13 53,27 77,44 6,4 6,8 13,13 6,5 8,5 14,11 5,5 10,6 17,1 10,-7 12,-20 19,-31 9,-14 14,-40 13,-58 -2,-16 -11,-34 -11,-68l-1 -32c0,-53 -1,-106 0,-160l0 -244c0,-22 2,-44 2,-65l5 -65c1,-10 2,-21 2,-31 2,-20 4,-41 7,-62 3,-29 9,-57 15,-86 2,-8 5,-24 5,-32 0,-15 1,-13 -6,-23 -3,-5 -3,-5 -7,-8 -13,-9 -57,1 -67,5 -17,7 -17,11 -22,33l-13 66c-2,6 -3,17 -5,22 -1,-13 -5,-17 -14,-21 -28,-15 -55,-11 -85,-1 -38,13 -58,34 -77,62 -18,27 -35,57 -49,90 -11,24 -20,52 -25,78 -1,5 -2,10 -3,15l-2 13c-1,2 0,0 -2,2l-1 -64c1,-64 8,-127 21,-190 2,-8 2,-12 3,-22 1,-6 1,-14 -3,-20 -4,-7 -2,-8 -12,-12 -12,-4 -32,-4 -45,-1 -42,6 -36,6 -44,31 -19,54 -41,107 -61,163l-39 109c-3,7 -10,34 -14,37l-3 -110c0,-21 -2,-41 -2,-61 0,-11 -1,-21 -1,-31 0,-5 -1,-6 -1,-10 -1,-28 -3,-66 -9,-92 -2,-7 -10,-7 -15,-4 -5,3 -4,11 -4,18l-2 56c0,23 -3,47 -4,70 0,24 -5,52 -6,77 -1,21 -6,54 -7,78 -1,22 -5,46 -5,69l0 27c0,41 -1,73 24,107 6,8 11,16 23,19 15,5 26,-14 31,-23 15,-25 25,-51 36,-78 11,-28 21,-55 32,-83 1,3 1,8 2,11 4,35 10,78 25,109 6,11 13,21 20,30 7,12 24,35 40,35 17,-1 18,-14 22,-27 8,-21 11,-37 16,-59 5,14 11,27 17,41 8,16 40,58 54,66 16,11 27,10 45,2 35,-16 75,-81 94,-116 3,-6 6,-14 10,-19l-1 139c1,39 0,78 1,117l1 41c-9,-2 -29,-13 -39,-17 -12,-6 -28,-12 -41,-16 -101,-33 -171,-46 -281,-55 -49,-4 -97,-7 -146,-7l-24 -1c-30,1 -60,0 -90,0l-122 1c-52,0 -105,5 -158,6 -7,0 -14,2 -21,1 -17,-1 -46,4 -65,4l-90 8c-57,7 -116,14 -173,24 -80,15 -158,36 -235,62 -56,19 -107,40 -157,65l-25 12c-3,1 -5,3 -8,4 -27,14 -54,28 -79,44 -22,14 -39,25 -61,39 -38,26 -78,55 -110,87 -34,33 -59,74 -84,114 -13,20 -25,42 -36,63 -3,4 -8,11 -6,17 4,8 8,7 15,3 77,-38 155,-72 224,-122 58,-42 132,-91 197,-123l50 -25c24,-12 45,-22 68,-31 72,-30 148,-55 225,-72 28,-6 55,-12 82,-16 43,-7 87,-14 130,-18 15,-1 31,-3 46,-5 15,-2 30,-2 45,-4l46 -3zm801 -347c4,-1 22,-30 25,-34 27,-43 41,-75 58,-125 17,-47 32,-88 44,-137 4,-17 7,-34 11,-50 -7,-7 -7,-9 -18,-9 -27,0 -48,17 -64,31 -17,15 -27,36 -37,58 -8,21 -18,46 -24,70 -3,13 -6,25 -8,39 -6,36 -4,51 -4,84 0,18 9,61 17,73zm-468 -158c3,51 7,103 22,153 6,21 13,31 22,49 3,7 9,15 14,20 5,4 16,14 22,15 6,-15 8,-49 8,-69 -1,-24 -11,-46 -17,-68 -7,-22 -13,-45 -17,-69 -5,-25 -9,-48 -13,-74 -1,-12 -4,-26 -4,-38 0,-7 -1,-14 -2,-20 0,-4 0,-8 0,-11 0,-5 -1,-6 -1,-14l-3 -91c-14,-11 -17,7 -19,17 -2,12 -4,23 -6,36 -3,23 -6,51 -6,75l0 89zm-1187 548c3,3 7,-1 10,-3l31 -15c95,-45 160,-73 262,-109 10,-4 11,-5 16,-15 12,-28 -3,-27 -22,-22 -13,3 -165,80 -186,91 -13,8 -26,15 -40,22l-58 35c-3,2 -18,11 -13,16zm910 -1470c-16,0 -53,-31 -85,-22 -10,3 -11,8 -7,18 19,53 78,64 98,98 3,3 11,13 15,13 14,0 7,-30 27,-57 9,-13 24,-26 38,-46 11,-16 23,-35 29,-55 3,-14 4,-35 -6,-45 -11,-12 -30,-9 -43,-5 -14,3 -27,12 -36,20 -25,25 -15,51 -30,81zm10 79c3,-17 9,-31 17,-43 10,-16 24,-27 36,-41 15,-18 37,-49 31,-73 -21,-4 -39,11 -50,21 -14,13 -7,27 -17,55 -3,10 -7,18 -11,25 -7,10 -16,7 -26,2 -13,-4 -41,-20 -53,-20 2,6 13,16 16,20 8,8 10,12 19,18 7,6 12,11 19,17 11,9 14,17 19,19zm-695 1206c-12,0 -58,14 -71,18 -33,12 -88,42 -119,60 -10,6 -18,10 -28,17 -6,5 -25,15 -19,22 5,6 16,-5 29,-11 34,-17 58,-27 94,-41 74,-31 52,-20 109,-58 3,-2 5,-2 5,-7zm375 -514c10,0 23,0 32,-2l8 114c-19,16 -20,13 -37,23 -4,4 -10,13 -9,20 1,8 4,18 7,24 12,25 10,36 39,54 8,4 11,6 21,9 8,40 14,56 25,93 5,15 12,25 21,38 9,14 25,35 40,25 4,-3 5,-4 6,-9 7,-33 4,-49 -1,-83 -4,-24 -11,-32 -13,-43 13,0 79,17 98,9 15,-5 20,-14 28,-28 10,-19 14,-34 14,-53 0,-10 -11,-25 -15,-27 -12,-7 -101,-13 -106,-17 1,-3 39,-43 42,-47 25,-28 63,-67 81,-101l15 -31c7,-24 9,-21 9,-46 0,-8 -4,-15 -9,-17 -16,-8 -30,-6 -47,-5 -8,0 -18,1 -26,3 -51,8 -94,20 -142,37 -6,2 -16,6 -22,7 -4,-5 -3,-19 -17,-15 -11,2 -8,6 -10,24 -3,2 -19,7 -24,9 -34,11 -45,8 -34,26 5,8 13,9 26,9zm86 72l24 -23c10,-10 67,-66 71,-73 -15,-1 -45,5 -60,7 -18,3 -35,6 -52,10 1,10 14,75 17,79zm-819 -113c2,16 6,35 9,53 3,17 7,35 10,53 1,5 6,20 4,24 -6,8 -9,13 -7,24 2,19 10,32 19,45 4,7 6,13 11,20 7,14 4,6 10,22 13,39 27,77 44,115 2,5 9,18 10,23 -7,2 -16,6 -23,9 -11,4 -79,9 -93,9l-16 0c-15,0 -50,-8 -61,-3 -2,11 38,67 47,78 15,18 31,30 49,44 15,11 36,20 57,20 23,0 55,-9 76,-16 22,-9 45,-18 65,-29 16,-9 35,-20 50,-31 15,-11 32,-23 46,-35 39,-33 72,-69 98,-114l23 -45c3,-6 5,-11 7,-17 8,-19 19,-50 22,-71l1 58c1,68 9,159 50,214 6,7 27,31 42,31l1 0c16,0 22,-14 28,-24 12,-19 19,-42 25,-64 6,-18 10,-38 14,-57 3,-9 5,-18 7,-28 2,-10 4,-20 7,-29 2,13 25,63 35,76 3,4 5,7 8,11 20,26 36,21 51,-8l10 -28c11,-44 1,-53 -13,-92 -23,-63 -37,-139 -37,-208l2 -97c0,-23 -1,-46 -25,-46 -16,0 -32,5 -46,9 -9,3 -12,1 -17,10 -11,22 -16,90 -21,117 -8,55 -16,110 -27,164 -2,7 -5,18 -5,24 -5,-6 -13,-73 -13,-79 -3,-31 -7,-65 -7,-97 0,-18 0,-84 -4,-96 -3,-8 -19,-8 -23,-1 -2,2 -22,97 -25,109l-12 55c0,-2 0,0 0,-3 -2,-12 -4,-22 -10,-33 -6,-11 -13,-19 -22,-25 -27,-20 -48,-24 -84,-23 -27,0 -75,9 -102,15 -9,2 -23,7 -31,8 1,-4 7,-12 10,-17 3,-5 5,-9 9,-16 5,-9 14,-24 18,-35l6 -19c8,-29 9,-44 -17,-53 -30,-10 -116,13 -152,23 -8,2 -15,5 -22,6 -1,-6 -6,-20 -8,-27 -3,-9 -6,-17 -9,-27 -6,-18 -10,-37 -16,-56 -2,-7 -5,-22 -9,-25 -4,-3 -10,-3 -14,-1 -14,4 -18,62 -18,77 0,15 -1,48 1,61 1,5 2,21 1,26 -8,4 -103,46 -105,55 -1,4 2,22 19,17 22,-6 75,-27 92,-30zm101 36l57 -69c-14,-2 -64,6 -76,10 0,6 7,23 9,30l10 29zm102 289c7,-1 37,-27 43,-32 7,-6 14,-13 20,-18 7,-8 12,-13 19,-20 12,-14 23,-28 33,-44 6,-11 22,-42 22,-54 -23,-2 -80,11 -103,18 -14,4 -26,9 -41,14 -13,5 -28,13 -40,17 0,8 8,24 11,31 4,12 32,82 36,88z"/>
    <path id="1" class="fil1" d="M812 421c4,-4 8,-31 10,-39 3,-12 6,-32 7,-43 0,-15 4,-31 5,-45 1,-16 2,-32 4,-47 1,-19 2,-29 -1,-48 -4,-30 -10,-47 -33,-67 -8,-7 -23,-13 -37,-14 -36,-3 -55,3 -86,13 -40,13 -69,24 -101,49 -11,9 -17,16 -28,24 -16,14 -34,34 -46,54 -34,55 -28,98 -4,157 18,43 81,104 123,128 32,19 66,36 100,51 33,14 37,16 69,32 10,6 58,32 62,39 -10,15 -40,18 -60,20 -13,1 -41,6 -54,6 -20,1 -37,2 -58,2 -13,0 -27,0 -40,0 -13,1 -27,1 -40,1 -13,0 -26,2 -38,1l10 -29c3,-11 12,-55 0,-66 -9,-8 -18,-11 -31,-9 -27,4 -41,7 -62,16 -21,8 -21,23 -33,46 -5,8 -9,18 -13,26 -15,36 -32,55 -18,88 3,8 10,17 15,25l22 36c3,4 7,6 11,10 9,8 14,10 30,7 83,-18 66,-9 143,-14 13,0 24,-2 37,-2 61,-2 177,-27 222,-51 18,-9 31,-21 39,-40 1,-4 3,-10 5,-13 12,-25 6,-17 11,-29 2,-6 3,-10 4,-16 5,-24 6,-47 -5,-66 -5,-8 -12,-15 -18,-21 -30,-34 -78,-58 -118,-79 -38,-20 -67,-32 -108,-47 -7,-2 -17,-9 -25,-13 -9,-6 -17,-10 -25,-15 -30,-19 -42,-30 -58,-61 -3,-7 -7,-22 -8,-30 -1,-22 13,-33 29,-50 15,-16 25,-23 41,-37 20,-17 49,-36 78,-41 16,-2 18,-3 30,5 12,8 11,10 14,25 2,10 5,24 6,35 1,5 2,10 3,15 4,21 4,62 8,91 2,11 2,28 10,30zm559 787l1 1c2,4 3,24 4,30 3,32 17,84 34,111 15,26 5,13 23,31 3,2 6,6 10,8 10,5 53,13 65,-4 3,-5 4,-9 2,-16 -1,-6 -1,-10 -3,-16 -4,-10 -6,-20 -10,-30 -16,-45 -15,-46 -21,-97 -5,-43 -7,-105 -5,-150 1,-32 4,-62 6,-93 1,-9 2,-18 3,-28 3,-25 2,-32 3,-57 0,-12 -4,-13 -13,-15 -23,-6 -25,-6 -50,-1 -9,2 -15,5 -22,8 -8,4 -9,8 -13,16 -3,7 -5,13 -8,20 -6,15 -11,29 -16,44 -3,8 -59,162 -64,171 -4,-28 -8,-54 -12,-81 -5,-31 -27,-170 -42,-190 -3,-4 -11,-6 -17,-3 -6,3 -3,14 -3,27 0,4 1,11 1,16 3,56 3,111 3,168l-3 197c1,37 -8,65 7,101 4,10 15,31 22,38 23,24 32,20 47,-11 6,-13 3,-3 9,-21 11,-28 20,-58 30,-88 10,-28 22,-60 32,-86zm-423 -682l13 0c3,8 5,18 8,26 11,37 22,63 38,97 9,19 38,71 49,88 4,7 10,15 14,21 15,23 41,58 59,78 10,11 26,29 40,29 19,0 27,-20 33,-35 9,-22 14,-31 14,-58 0,-20 -5,-23 -15,-37 -42,-56 -74,-101 -103,-167 -4,-10 -28,-70 -28,-80 11,-7 24,-13 38,-23 12,-9 40,-28 51,-40 13,-14 14,-21 21,-40 3,-11 9,-41 -3,-48 -13,-8 -33,-3 -47,0 -7,2 -15,4 -21,8 -9,4 -36,32 -46,41 -3,3 -13,13 -17,13 -2,-6 -5,-22 -6,-29 -16,-68 -19,-130 -29,-198 -3,-18 -5,-48 -11,-64 -4,-10 -8,-18 -21,-16 -12,2 -19,3 -24,13 -17,33 -22,87 -26,125l-4 66 1 35c0,28 20,129 19,132 -36,10 -102,-12 -85,20 3,5 5,10 8,14 18,16 54,29 80,29zm567 -133c1,21 8,69 12,91 16,96 60,179 106,262 15,27 39,73 62,95 11,11 27,32 45,33 6,0 8,-3 15,-12 5,-5 6,-9 9,-17 2,-5 6,-11 9,-17 1,-2 14,-36 14,-39 0,-16 5,-29 -3,-42l-21 -27c-34,-47 -81,-128 -107,-181 -22,-44 -36,-88 -51,-139l-16 -56c-11,-38 -22,-101 -17,-140 1,-6 2,-20 -3,-24 -2,-2 -5,-2 -8,-2 -13,0 -14,7 -18,18 -4,8 -7,18 -10,27 -6,19 -11,38 -14,59 -7,47 -6,63 -4,111zm-159 15c1,5 0,20 1,27 3,36 25,133 34,166 17,59 41,110 68,160 14,24 27,50 42,72 9,13 17,20 26,31 18,22 39,16 49,-8 10,-23 20,-38 18,-68 0,-11 -12,-23 -21,-35 -23,-32 -46,-74 -63,-110 -27,-52 -42,-110 -60,-167 -20,-62 -29,-128 -36,-193 -3,-28 -3,-23 -3,-54 0,-9 3,-29 -16,-24 -5,1 -6,2 -8,7 -11,34 -18,54 -24,90 -2,8 -3,15 -4,23 -4,20 -7,65 -3,83zm-135 116l2 37c2,11 3,23 6,34 9,43 20,81 39,119 13,26 46,93 71,109 4,3 7,5 15,4 14,-2 22,-20 27,-32 3,-9 8,-17 10,-29 3,-16 10,-33 -1,-52 -4,-8 -9,-17 -14,-25 -42,-70 -67,-145 -86,-232 -5,-22 -8,-45 -14,-65 -3,-11 -5,-23 -16,-24 -15,-2 -18,6 -21,18 -6,21 -12,42 -16,63 -2,18 -6,56 -2,75zm-52 1115c16,-2 32,-3 48,-3 8,0 20,-2 27,-3 23,0 47,-3 69,-3l23 -1c26,0 51,-2 77,-2 10,0 20,-1 30,-1 21,1 97,0 113,0l56 1c96,1 198,10 290,29 14,3 27,7 40,10 12,3 26,7 38,10 26,9 49,15 74,26 30,13 53,27 77,44 6,4 6,8 13,13 6,5 8,5 14,11 5,5 10,6 17,1 10,-7 12,-20 19,-31 9,-14 14,-40 13,-58 -2,-16 -11,-34 -11,-68l-1 -32c0,-53 -1,-106 0,-160l0 -244c0,-22 2,-44 2,-65l5 -65c1,-10 2,-21 2,-31 2,-20 4,-41 7,-62 3,-29 9,-57 15,-86 2,-8 5,-24 5,-32 0,-15 1,-13 -6,-23 -3,-5 -3,-5 -7,-8 -13,-9 -57,1 -67,5 -17,7 -17,11 -22,33l-13 66c-2,6 -3,17 -5,22 -1,-13 -5,-17 -14,-21 -28,-15 -55,-11 -85,-1 -38,13 -58,34 -77,62 -18,27 -35,57 -49,90 -11,24 -20,52 -25,78 -1,5 -2,10 -3,15l-2 13c-1,2 0,0 -2,2l-1 -64c1,-64 8,-127 21,-190 2,-8 2,-12 3,-22 1,-6 1,-14 -3,-20 -4,-7 -2,-8 -12,-12 -12,-4 -32,-4 -45,-1 -42,6 -36,6 -44,31 -19,54 -41,107 -61,163l-39 109c-3,7 -10,34 -14,37l-3 -110c0,-21 -2,-41 -2,-61 0,-11 -1,-21 -1,-31 0,-5 -1,-6 -1,-10 -1,-28 -3,-66 -9,-92 -2,-7 -10,-7 -15,-4 -5,3 -4,11 -4,18l-2 56c0,23 -3,47 -4,70 0,24 -5,52 -6,77 -1,21 -6,54 -7,78 -1,22 -5,46 -5,69l0 27c0,41 -1,73 24,107 6,8 11,16 23,19 15,5 26,-14 31,-23 15,-25 25,-51 36,-78 11,-28 21,-55 32,-83 1,3 1,8 2,11 4,35 10,78 25,109 6,11 13,21 20,30 7,12 24,35 40,35 17,-1 18,-14 22,-27 8,-21 11,-37 16,-59 5,14 11,27 17,41 8,16 40,58 54,66 16,11 27,10 45,2 35,-16 75,-81 94,-116 3,-6 6,-14 10,-19l-1 139c1,39 0,78 1,117l1 41c-9,-2 -29,-13 -39,-17 -12,-6 -28,-12 -41,-16 -101,-33 -171,-46 -281,-55 -49,-4 -97,-7 -146,-7l-24 -1c-30,1 -60,0 -90,0l-122 1c-52,0 -105,5 -158,6 -7,0 -14,2 -21,1 -17,-1 -46,4 -65,4l-90 8c-57,7 -116,14 -173,24 -80,15 -158,36 -235,62 -56,19 -107,40 -157,65l-25 12c-3,1 -5,3 -8,4 -27,14 -54,28 -79,44 -22,14 -39,25 -61,39 -38,26 -78,55 -110,87 -34,33 -59,74 -84,114 -13,20 -25,42 -36,63 -3,4 -8,11 -6,17 4,8 8,7 15,3 77,-38 155,-72 224,-122 58,-42 132,-91 197,-123l50 -25c24,-12 45,-22 68,-31 72,-30 148,-55 225,-72 28,-6 55,-12 82,-16 43,-7 87,-14 130,-18 15,-1 31,-3 46,-5 15,-2 30,-2 45,-4l46 -3zm801 -347c4,-1 22,-30 25,-34 27,-43 41,-75 58,-125 17,-47 32,-88 44,-137 4,-17 7,-34 11,-50 -7,-7 -7,-9 -18,-9 -27,0 -48,17 -64,31 -17,15 -27,36 -37,58 -8,21 -18,46 -24,70 -3,13 -6,25 -8,39 -6,36 -4,51 -4,84 0,18 9,61 17,73zm-468 -158c3,51 7,103 22,153 6,21 13,31 22,49 3,7 9,15 14,20 5,4 16,14 22,15 6,-15 8,-49 8,-69 -1,-24 -11,-46 -17,-68 -7,-22 -13,-45 -17,-69 -5,-25 -9,-48 -13,-74 -1,-12 -4,-26 -4,-38 0,-7 -1,-14 -2,-20 0,-4 0,-8 0,-11 0,-5 -1,-6 -1,-14l-3 -91c-14,-11 -17,7 -19,17 -2,12 -4,23 -6,36 -3,23 -6,51 -6,75l0 89zm-1187 548c3,3 7,-1 10,-3l31 -15c95,-45 160,-73 262,-109 10,-4 11,-5 16,-15 12,-28 -3,-27 -22,-22 -13,3 -165,80 -186,91 -13,8 -26,15 -40,22l-58 35c-3,2 -18,11 -13,16zm910 -1470c-16,0 -53,-31 -85,-22 -10,3 -11,8 -7,18 19,53 78,64 98,98 3,3 11,13 15,13 14,0 7,-30 27,-57 9,-13 24,-26 38,-46 11,-16 23,-35 29,-55 3,-14 4,-35 -6,-45 -11,-12 -30,-9 -43,-5 -14,3 -27,12 -36,20 -25,25 -15,51 -30,81zm10 79c3,-17 9,-31 17,-43 10,-16 24,-27 36,-41 15,-18 37,-49 31,-73 -21,-4 -39,11 -50,21 -14,13 -7,27 -17,55 -3,10 -7,18 -11,25 -7,10 -16,7 -26,2 -13,-4 -41,-20 -53,-20 2,6 13,16 16,20 8,8 10,12 19,18 7,6 12,11 19,17 11,9 14,17 19,19zm-695 1206c-12,0 -58,14 -71,18 -33,12 -88,42 -119,60 -10,6 -18,10 -28,17 -6,5 -25,15 -19,22 5,6 16,-5 29,-11 34,-17 58,-27 94,-41 74,-31 52,-20 109,-58 3,-2 5,-2 5,-7zm375 -514c10,0 23,0 32,-2l8 114c-19,16 -20,13 -37,23 -4,4 -10,13 -9,20 1,8 4,18 7,24 12,25 10,36 39,54 8,4 11,6 21,9 8,40 14,56 25,93 5,15 12,25 21,38 9,14 25,35 40,25 4,-3 5,-4 6,-9 7,-33 4,-49 -1,-83 -4,-24 -11,-32 -13,-43 13,0 79,17 98,9 15,-5 20,-14 28,-28 10,-19 14,-34 14,-53 0,-10 -11,-25 -15,-27 -12,-7 -101,-13 -106,-17 1,-3 39,-43 42,-47 25,-28 63,-67 81,-101l15 -31c7,-24 9,-21 9,-46 0,-8 -4,-15 -9,-17 -16,-8 -30,-6 -47,-5 -8,0 -18,1 -26,3 -51,8 -94,20 -142,37 -6,2 -16,6 -22,7 -4,-5 -3,-19 -17,-15 -11,2 -8,6 -10,24 -3,2 -19,7 -24,9 -34,11 -45,8 -34,26 5,8 13,9 26,9zm86 72l24 -23c10,-10 67,-66 71,-73 -15,-1 -45,5 -60,7 -18,3 -35,6 -52,10 1,10 14,75 17,79zm-819 -113c2,16 6,35 9,53 3,17 7,35 10,53 1,5 6,20 4,24 -6,8 -9,13 -7,24 2,19 10,32 19,45 4,7 6,13 11,20 7,14 4,6 10,22 13,39 27,77 44,115 2,5 9,18 10,23 -7,2 -16,6 -23,9 -11,4 -79,9 -93,9l-16 0c-15,0 -50,-8 -61,-3 -2,11 38,67 47,78 15,18 31,30 49,44 15,11 36,20 57,20 23,0 55,-9 76,-16 22,-9 45,-18 65,-29 16,-9 35,-20 50,-31 15,-11 32,-23 46,-35 39,-33 72,-69 98,-114l23 -45c3,-6 5,-11 7,-17 8,-19 19,-50 22,-71l1 58c1,68 9,159 50,214 6,7 27,31 42,31l1 0c16,0 22,-14 28,-24 12,-19 19,-42 25,-64 6,-18 10,-38 14,-57 3,-9 5,-18 7,-28 2,-10 4,-20 7,-29 2,13 25,63 35,76 3,4 5,7 8,11 20,26 36,21 51,-8l10 -28c11,-44 1,-53 -13,-92 -23,-63 -37,-139 -37,-208l2 -97c0,-23 -1,-46 -25,-46 -16,0 -32,5 -46,9 -9,3 -12,1 -17,10 -11,22 -16,90 -21,117 -8,55 -16,110 -27,164 -2,7 -5,18 -5,24 -5,-6 -13,-73 -13,-79 -3,-31 -7,-65 -7,-97 0,-18 0,-84 -4,-96 -3,-8 -19,-8 -23,-1 -2,2 -22,97 -25,109l-12 55c0,-2 0,0 0,-3 -2,-12 -4,-22 -10,-33 -6,-11 -13,-19 -22,-25 -27,-20 -48,-24 -84,-23 -27,0 -75,9 -102,15 -9,2 -23,7 -31,8 1,-4 7,-12 10,-17 3,-5 5,-9 9,-16 5,-9 14,-24 18,-35l6 -19c8,-29 9,-44 -17,-53 -30,-10 -116,13 -152,23 -8,2 -15,5 -22,6 -1,-6 -6,-20 -8,-27 -3,-9 -6,-17 -9,-27 -6,-18 -10,-37 -16,-56 -2,-7 -5,-22 -9,-25 -4,-3 -10,-3 -14,-1 -14,4 -18,62 -18,77 0,15 -1,48 1,61 1,5 2,21 1,26 -8,4 -103,46 -105,55 -1,4 2,22 19,17 22,-6 75,-27 92,-30zm101 36l57 -69c-14,-2 -64,6 -76,10 0,6 7,23 9,30l10 29zm102 289c7,-1 37,-27 43,-32 7,-6 14,-13 20,-18 7,-8 12,-13 19,-20 12,-14 23,-28 33,-44 6,-11 22,-42 22,-54 -23,-2 -80,11 -103,18 -14,4 -26,9 -41,14 -13,5 -28,13 -40,17 0,8 8,24 11,31 4,12 32,82 36,88z"/>
   </g>
   <g>
    <path class="fil0 str0" d="M812 370c4,-4 8,-31 10,-39 3,-12 6,-32 7,-43 0,-15 4,-31 5,-45 1,-16 2,-32 4,-47 1,-19 2,-29 -1,-48 -4,-30 -10,-47 -33,-67 -8,-7 -23,-13 -37,-14 -36,-3 -55,3 -86,13 -40,13 -69,24 -101,49 -11,9 -17,16 -28,24 -16,14 -34,34 -46,54 -34,55 -28,98 -4,157 18,43 81,104 123,128 32,19 66,36 100,51 33,14 37,16 69,32 10,6 58,32 62,39 -10,15 -40,18 -60,20 -13,1 -41,6 -54,6 -20,1 -37,2 -58,2 -13,0 -27,0 -40,0 -13,1 -27,1 -40,1 -13,0 -26,2 -38,1l10 -29c3,-11 12,-55 0,-66 -9,-8 -18,-11 -31,-9 -27,4 -41,7 -62,16 -21,8 -21,23 -33,46 -5,8 -9,18 -13,26 -15,36 -32,55 -18,88 3,8 10,17 15,25l22 36c3,4 7,6 11,10 9,8 14,10 30,7 83,-18 66,-9 143,-14 13,0 24,-2 37,-2 61,-2 177,-27 222,-51 18,-9 31,-21 39,-40 1,-4 3,-10 5,-13 12,-25 6,-17 11,-29 2,-6 3,-10 4,-16 5,-24 6,-47 -5,-66 -5,-8 -12,-15 -18,-21 -30,-34 -78,-58 -118,-79 -38,-20 -67,-32 -108,-47 -7,-2 -17,-9 -25,-13 -9,-6 -17,-10 -25,-15 -30,-19 -42,-30 -58,-61 -3,-7 -7,-22 -8,-30 -1,-22 13,-33 29,-50 15,-16 25,-23 41,-37 20,-17 49,-36 78,-41 16,-2 18,-3 30,5 12,8 11,10 14,25 2,10 5,24 6,35 1,5 2,10 3,15 4,21 4,62 8,91 2,11 2,28 10,30zm559 787l1 1c2,4 3,24 4,30 3,32 17,84 34,111 15,26 5,13 23,30 3,3 6,7 10,9 10,5 53,13 65,-4 3,-5 4,-9 2,-16 -1,-6 -1,-10 -3,-16 -4,-10 -6,-20 -10,-30 -16,-45 -15,-46 -21,-97 -5,-43 -7,-105 -5,-150 1,-32 4,-62 6,-93 1,-9 2,-18 3,-28 3,-25 2,-32 3,-57 0,-12 -4,-13 -13,-15 -23,-6 -25,-6 -50,-1 -9,2 -15,5 -22,8 -8,4 -9,8 -13,16 -3,7 -5,13 -8,20 -6,15 -11,29 -16,44 -3,8 -59,162 -64,171 -4,-28 -8,-54 -12,-81 -5,-31 -27,-170 -42,-190 -3,-4 -11,-6 -17,-3 -6,3 -3,14 -3,27 0,4 1,11 1,16 3,56 3,111 3,168l-3 197c1,37 -8,65 7,101 4,10 15,31 22,38 23,24 32,20 47,-11 6,-13 3,-3 9,-21 11,-28 20,-58 30,-88 10,-28 22,-60 32,-86zm-423 -682l13 0c3,8 5,18 8,26 11,37 22,63 38,97 9,19 38,71 49,88 4,7 10,15 14,21 15,23 41,58 59,78 10,11 26,29 40,29 19,0 27,-20 33,-35 9,-22 14,-31 14,-58 0,-20 -5,-23 -15,-37 -42,-56 -74,-101 -103,-167 -4,-10 -28,-70 -28,-80 11,-7 24,-13 38,-23 12,-9 40,-28 51,-40 13,-14 14,-21 21,-40 3,-11 9,-41 -3,-48 -13,-8 -33,-3 -47,0 -7,2 -15,4 -21,8 -9,4 -36,32 -46,41 -3,3 -13,13 -17,13 -2,-6 -5,-22 -6,-29 -16,-68 -19,-130 -29,-198 -3,-18 -5,-48 -11,-64 -4,-10 -8,-18 -21,-16 -12,2 -19,3 -24,13 -17,33 -22,87 -26,125l-4 66 1 35c0,28 20,129 19,132 -36,10 -102,-12 -85,20 3,5 5,10 8,14 18,16 54,29 80,29zm567 -133c1,21 8,69 12,91 16,96 60,179 106,262 15,27 39,73 62,95 11,11 27,32 45,33 6,0 8,-3 15,-12 5,-5 6,-10 9,-17 2,-5 6,-11 9,-17 1,-2 14,-36 14,-39 0,-16 5,-29 -3,-42l-21 -27c-34,-47 -81,-128 -107,-181 -22,-44 -36,-88 -51,-139l-16 -56c-11,-38 -22,-101 -17,-140 1,-6 2,-20 -3,-24 -2,-2 -5,-2 -8,-2 -13,0 -14,7 -18,18 -4,8 -7,18 -10,27 -6,19 -11,38 -14,59 -7,47 -6,63 -4,111zm-159 15c1,5 0,20 1,27 3,36 25,133 34,165 17,60 41,111 68,161 14,24 27,50 42,72 9,12 17,20 26,31 18,22 39,16 49,-8 10,-23 20,-38 18,-68 0,-11 -12,-23 -21,-35 -23,-32 -46,-74 -63,-110 -27,-52 -42,-110 -60,-167 -20,-62 -29,-128 -36,-193 -3,-28 -3,-23 -3,-54 0,-9 3,-29 -16,-24 -5,1 -6,2 -8,7 -11,34 -18,54 -24,90 -2,8 -3,15 -4,23 -4,20 -7,65 -3,83zm-135 116l2 37c2,11 3,23 6,34 9,43 20,81 39,119 13,26 46,93 71,109 4,3 7,5 15,4 14,-2 22,-20 27,-32 3,-9 8,-17 10,-29 3,-16 10,-33 -1,-52 -4,-8 -9,-17 -14,-25 -42,-70 -67,-145 -86,-232 -5,-22 -8,-45 -14,-65 -3,-11 -5,-23 -16,-24 -15,-2 -18,6 -21,18 -6,21 -12,42 -16,63 -2,18 -6,56 -2,75zm-52 1115c16,-2 32,-3 48,-3 8,0 20,-2 27,-3 23,0 47,-3 69,-3l23 -1c26,0 51,-2 77,-2 10,0 20,-1 30,-1 21,1 97,0 113,0l56 1c96,1 198,10 290,29 14,3 27,7 40,10 12,3 26,6 38,10 26,9 49,15 74,26 30,13 53,27 77,44 6,4 6,8 13,13 6,5 8,5 14,11 5,5 10,6 17,1 10,-7 12,-20 19,-31 9,-14 14,-40 13,-58 -2,-16 -11,-34 -11,-68l-1 -32c0,-53 -1,-106 0,-160l0 -244c0,-22 2,-44 2,-65l5 -65c1,-10 2,-21 2,-31 2,-20 4,-41 7,-62 3,-29 9,-57 15,-86 2,-8 5,-24 5,-32 0,-15 1,-13 -6,-23 -3,-5 -3,-5 -7,-8 -13,-9 -57,1 -67,5 -17,7 -17,11 -22,33l-13 66c-2,6 -3,17 -5,22 -1,-13 -5,-17 -14,-21 -28,-15 -55,-11 -85,-1 -38,13 -58,34 -77,62 -18,27 -35,57 -49,90 -11,24 -20,52 -25,78 -1,5 -2,10 -3,15l-2 13c-1,2 0,0 -2,2l-1 -64c1,-64 8,-127 21,-190 2,-8 2,-12 3,-22 1,-6 1,-14 -3,-20 -4,-7 -2,-8 -12,-12 -12,-4 -32,-4 -45,-1 -42,6 -36,6 -44,31 -19,54 -41,107 -61,163l-39 109c-3,7 -10,34 -14,37l-3 -110c0,-21 -2,-41 -2,-61 0,-11 -1,-21 -1,-31 0,-5 -1,-6 -1,-10 -1,-28 -3,-66 -9,-92 -2,-7 -10,-7 -15,-4 -5,3 -4,11 -4,18l-2 56c0,23 -3,47 -4,70 0,23 -5,52 -6,77 -1,21 -6,54 -7,78 -1,22 -5,46 -5,69l0 26c0,42 -1,74 24,108 6,8 11,16 23,19 15,5 26,-14 31,-23 15,-25 25,-51 36,-78 11,-28 21,-55 32,-83 1,3 1,8 2,11 4,35 10,78 25,109 6,11 13,21 20,30 7,12 24,35 40,35 17,-1 18,-14 22,-27 8,-21 11,-37 16,-59 5,14 11,27 17,41 8,16 40,58 54,66 16,11 27,10 45,2 35,-16 75,-81 94,-116 3,-6 6,-14 10,-19l-1 139c1,39 0,78 1,117l1 41c-9,-2 -29,-13 -39,-17 -12,-6 -28,-12 -41,-16 -101,-33 -171,-46 -281,-55 -49,-4 -97,-7 -146,-7l-24 -1c-30,1 -60,0 -90,0l-122 1c-52,0 -105,5 -158,6 -7,0 -14,2 -21,1 -17,-1 -46,4 -65,4l-90 8c-57,7 -116,14 -173,24 -80,15 -158,36 -235,62 -56,19 -107,40 -157,65l-25 12c-3,1 -5,3 -8,4 -27,14 -54,28 -79,44 -22,14 -39,25 -61,39 -38,26 -78,55 -110,87 -34,33 -59,74 -84,114 -13,20 -25,42 -36,63 -3,4 -8,11 -6,17 4,8 8,7 15,3 77,-38 155,-72 224,-122 58,-42 132,-91 197,-123l50 -25c24,-12 45,-22 68,-31 72,-30 148,-55 225,-72 28,-6 55,-12 82,-16 43,-7 87,-14 130,-18 15,-1 31,-3 46,-5 15,-2 30,-2 45,-4l46 -3zm801 -347c4,-1 22,-30 25,-34 27,-43 41,-75 58,-125 17,-47 32,-88 44,-137 4,-17 7,-34 11,-50 -7,-7 -7,-9 -18,-9 -27,0 -48,17 -64,31 -17,15 -27,36 -37,58 -8,21 -18,46 -24,70 -3,13 -6,25 -8,39 -6,36 -4,51 -4,84 0,18 9,61 17,73zm-468 -158c3,51 7,103 22,153 6,21 13,31 22,49 3,7 9,15 14,20 5,4 16,14 22,15 6,-15 8,-49 8,-69 -1,-24 -11,-46 -17,-68 -7,-22 -13,-45 -17,-69 -5,-25 -9,-48 -13,-74 -1,-12 -4,-26 -4,-38 0,-7 -1,-14 -2,-20 0,-4 0,-8 0,-11 0,-5 -1,-6 -1,-14l-3 -91c-14,-11 -17,7 -19,17 -2,12 -4,23 -6,36 -3,23 -6,51 -6,75l0 89zm-1187 548c3,3 7,-1 10,-3l31 -15c95,-45 160,-73 262,-109 10,-4 11,-5 16,-15 12,-28 -3,-27 -22,-22 -13,3 -165,80 -186,91 -13,8 -26,15 -40,22l-58 35c-3,2 -18,11 -13,16zm910 -1470c-16,0 -53,-31 -85,-22 -10,3 -11,8 -7,18 19,53 78,64 98,98 3,3 11,13 15,13 14,0 7,-30 27,-57 9,-13 24,-26 38,-46 11,-16 23,-35 29,-55 3,-14 4,-35 -6,-45 -11,-12 -30,-9 -43,-6 -14,4 -27,13 -36,21 -25,25 -15,51 -30,81zm10 79c3,-17 9,-31 17,-43 10,-16 24,-27 36,-41 15,-18 37,-49 31,-73 -21,-4 -39,11 -50,21 -14,13 -7,27 -17,55 -3,10 -7,18 -11,25 -7,10 -16,7 -26,2 -13,-4 -41,-20 -53,-20 2,6 13,16 16,20 8,8 10,12 19,18 7,6 12,11 19,17 11,9 14,17 19,19zm-695 1206c-12,0 -58,14 -71,18 -33,12 -88,42 -119,60 -10,6 -18,10 -28,17 -6,5 -25,15 -19,22 5,6 16,-5 29,-11 34,-17 58,-27 94,-41 74,-31 52,-20 109,-58 3,-2 5,-2 5,-7zm375 -514c10,0 23,0 32,-2l8 114c-19,16 -20,13 -37,23 -4,4 -10,13 -9,20 1,8 4,18 7,24 12,25 10,36 39,54 8,4 11,6 21,9 8,40 14,56 25,93 5,15 12,25 21,38 9,14 25,35 40,25 4,-3 5,-4 6,-9 7,-33 4,-49 -1,-83 -4,-24 -11,-32 -13,-43 13,-1 79,17 98,9 15,-5 20,-14 28,-28 10,-19 14,-34 14,-53 0,-10 -11,-25 -15,-27 -12,-7 -101,-13 -106,-17 1,-3 39,-43 42,-47 25,-28 63,-67 81,-101l15 -31c7,-24 9,-21 9,-46 0,-8 -4,-15 -9,-17 -16,-8 -30,-6 -47,-5 -8,0 -18,1 -26,3 -51,8 -94,20 -142,37 -6,2 -16,6 -22,7 -4,-5 -3,-19 -17,-15 -11,2 -8,6 -10,24 -3,2 -19,7 -24,9 -34,11 -45,8 -34,26 5,8 13,9 26,9zm86 72l24 -23c10,-10 67,-66 71,-73 -15,-1 -45,5 -60,7 -18,3 -35,6 -52,10 1,10 14,75 17,79zm-819 -113c2,16 6,35 9,53 3,17 7,35 10,53 1,5 6,20 4,24 -6,8 -9,13 -7,24 2,19 10,32 19,45 4,7 6,13 11,20 7,14 4,6 10,22 13,39 27,77 44,115 2,5 9,18 10,23 -7,2 -16,6 -23,9 -11,4 -79,9 -93,9l-16 0c-15,0 -50,-8 -61,-3 -2,11 38,67 47,78 15,18 31,30 49,44 15,11 36,20 57,20 23,0 55,-9 76,-16 22,-9 45,-18 65,-29 16,-9 35,-20 50,-31 15,-11 32,-23 46,-35 39,-33 72,-69 98,-114l23 -45c3,-6 5,-11 7,-17 8,-19 19,-50 22,-71l1 58c1,68 9,159 50,214 6,7 27,31 42,31l1 0c16,0 22,-14 28,-24 12,-19 19,-42 25,-64 6,-18 10,-38 14,-57 3,-9 5,-18 7,-28 2,-10 4,-20 7,-29 2,13 25,63 35,76 3,4 5,7 8,11 20,26 36,21 51,-8l10 -28c11,-44 1,-53 -13,-92 -23,-63 -37,-139 -37,-208l2 -97c0,-23 -1,-46 -25,-46 -16,0 -32,5 -46,9 -9,3 -12,1 -17,10 -11,22 -16,90 -21,117 -8,55 -16,110 -27,164 -2,7 -5,18 -5,24 -5,-6 -13,-73 -13,-79 -3,-31 -7,-65 -7,-97 0,-18 0,-84 -4,-96 -3,-8 -19,-8 -23,-1 -2,2 -22,97 -25,109l-12 55c0,-2 0,0 0,-3 -2,-12 -4,-22 -10,-33 -6,-11 -13,-19 -22,-25 -27,-20 -48,-24 -84,-23 -27,0 -75,9 -102,15 -9,2 -23,7 -31,8 1,-4 7,-12 10,-17 3,-5 5,-9 9,-16 5,-9 14,-24 18,-35l6 -19c8,-29 9,-44 -17,-53 -30,-10 -116,13 -152,23 -8,2 -15,5 -22,6 -1,-6 -6,-20 -8,-27 -3,-9 -6,-17 -9,-27 -6,-18 -10,-37 -16,-56 -2,-7 -5,-22 -9,-25 -4,-3 -10,-3 -14,-1 -14,4 -18,62 -18,77 0,15 -1,48 1,61 1,5 2,21 1,26 -8,4 -103,46 -105,55 -1,4 2,22 19,17 22,-6 75,-27 92,-30zm101 36l57 -69c-14,-2 -64,6 -76,10 0,6 7,23 9,30l10 29zm102 289c7,-1 37,-27 43,-32 7,-6 14,-13 20,-18 7,-8 12,-13 19,-21 12,-13 23,-27 33,-43 6,-11 22,-42 22,-54 -23,-2 -80,11 -103,18 -14,4 -26,9 -41,14 -13,5 -28,13 -40,17 0,8 8,24 11,31 4,12 32,82 36,88z"/>
    <path id="1" class="fil2" d="M812 370c4,-4 8,-31 10,-39 3,-12 6,-32 7,-43 0,-15 4,-31 5,-45 1,-16 2,-32 4,-47 1,-19 2,-29 -1,-48 -4,-30 -10,-47 -33,-67 -8,-7 -23,-13 -37,-14 -36,-3 -55,3 -86,13 -40,13 -69,24 -101,49 -11,9 -17,16 -28,24 -16,14 -34,34 -46,54 -34,55 -28,98 -4,157 18,43 81,104 123,128 32,19 66,36 100,51 33,14 37,16 69,32 10,6 58,32 62,39 -10,15 -40,18 -60,20 -13,1 -41,6 -54,6 -20,1 -37,2 -58,2 -13,0 -27,0 -40,0 -13,1 -27,1 -40,1 -13,0 -26,2 -38,1l10 -29c3,-11 12,-55 0,-66 -9,-8 -18,-11 -31,-9 -27,4 -41,7 -62,16 -21,8 -21,23 -33,46 -5,8 -9,18 -13,26 -15,36 -32,55 -18,88 3,8 10,17 15,25l22 36c3,4 7,6 11,10 9,8 14,10 30,7 83,-18 66,-9 143,-14 13,0 24,-2 37,-2 61,-2 177,-27 222,-51 18,-9 31,-21 39,-40 1,-4 3,-10 5,-13 12,-25 6,-17 11,-29 2,-6 3,-10 4,-16 5,-24 6,-47 -5,-66 -5,-8 -12,-15 -18,-21 -30,-34 -78,-58 -118,-79 -38,-20 -67,-32 -108,-47 -7,-2 -17,-9 -25,-13 -9,-6 -17,-10 -25,-15 -30,-19 -42,-30 -58,-61 -3,-7 -7,-22 -8,-30 -1,-22 13,-33 29,-50 15,-16 25,-23 41,-37 20,-17 49,-36 78,-41 16,-2 18,-3 30,5 12,8 11,10 14,25 2,10 5,24 6,35 1,5 2,10 3,15 4,21 4,62 8,91 2,11 2,28 10,30zm559 787l1 1c2,4 3,24 4,30 3,32 17,84 34,111 15,26 5,13 23,30 3,3 6,7 10,9 10,5 53,13 65,-4 3,-5 4,-9 2,-16 -1,-6 -1,-10 -3,-16 -4,-10 -6,-20 -10,-30 -16,-45 -15,-46 -21,-97 -5,-43 -7,-105 -5,-150 1,-32 4,-62 6,-93 1,-9 2,-18 3,-28 3,-25 2,-32 3,-57 0,-12 -4,-13 -13,-15 -23,-6 -25,-6 -50,-1 -9,2 -15,5 -22,8 -8,4 -9,8 -13,16 -3,7 -5,13 -8,20 -6,15 -11,29 -16,44 -3,8 -59,162 -64,171 -4,-28 -8,-54 -12,-81 -5,-31 -27,-170 -42,-190 -3,-4 -11,-6 -17,-3 -6,3 -3,14 -3,27 0,4 1,11 1,16 3,56 3,111 3,168l-3 197c1,37 -8,65 7,101 4,10 15,31 22,38 23,24 32,20 47,-11 6,-13 3,-3 9,-21 11,-28 20,-58 30,-88 10,-28 22,-60 32,-86zm-423 -682l13 0c3,8 5,18 8,26 11,37 22,63 38,97 9,19 38,71 49,88 4,7 10,15 14,21 15,23 41,58 59,78 10,11 26,29 40,29 19,0 27,-20 33,-35 9,-22 14,-31 14,-58 0,-20 -5,-23 -15,-37 -42,-56 -74,-101 -103,-167 -4,-10 -28,-70 -28,-80 11,-7 24,-13 38,-23 12,-9 40,-28 51,-40 13,-14 14,-21 21,-40 3,-11 9,-41 -3,-48 -13,-8 -33,-3 -47,0 -7,2 -15,4 -21,8 -9,4 -36,32 -46,41 -3,3 -13,13 -17,13 -2,-6 -5,-22 -6,-29 -16,-68 -19,-130 -29,-198 -3,-18 -5,-48 -11,-64 -4,-10 -8,-18 -21,-16 -12,2 -19,3 -24,13 -17,33 -22,87 -26,125l-4 66 1 35c0,28 20,129 19,132 -36,10 -102,-12 -85,20 3,5 5,10 8,14 18,16 54,29 80,29zm567 -133c1,21 8,69 12,91 16,96 60,179 106,262 15,27 39,73 62,95 11,11 27,32 45,33 6,0 8,-3 15,-12 5,-5 6,-10 9,-17 2,-5 6,-11 9,-17 1,-2 14,-36 14,-39 0,-16 5,-29 -3,-42l-21 -27c-34,-47 -81,-128 -107,-181 -22,-44 -36,-88 -51,-139l-16 -56c-11,-38 -22,-101 -17,-140 1,-6 2,-20 -3,-24 -2,-2 -5,-2 -8,-2 -13,0 -14,7 -18,18 -4,8 -7,18 -10,27 -6,19 -11,38 -14,59 -7,47 -6,63 -4,111zm-159 15c1,5 0,20 1,27 3,36 25,133 34,165 17,60 41,111 68,161 14,24 27,50 42,72 9,12 17,20 26,31 18,22 39,16 49,-8 10,-23 20,-38 18,-68 0,-11 -12,-23 -21,-35 -23,-32 -46,-74 -63,-110 -27,-52 -42,-110 -60,-167 -20,-62 -29,-128 -36,-193 -3,-28 -3,-23 -3,-54 0,-9 3,-29 -16,-24 -5,1 -6,2 -8,7 -11,34 -18,54 -24,90 -2,8 -3,15 -4,23 -4,20 -7,65 -3,83zm-135 116l2 37c2,11 3,23 6,34 9,43 20,81 39,119 13,26 46,93 71,109 4,3 7,5 15,4 14,-2 22,-20 27,-32 3,-9 8,-17 10,-29 3,-16 10,-33 -1,-52 -4,-8 -9,-17 -14,-25 -42,-70 -67,-145 -86,-232 -5,-22 -8,-45 -14,-65 -3,-11 -5,-23 -16,-24 -15,-2 -18,6 -21,18 -6,21 -12,42 -16,63 -2,18 -6,56 -2,75zm-52 1115c16,-2 32,-3 48,-3 8,0 20,-2 27,-3 23,0 47,-3 69,-3l23 -1c26,0 51,-2 77,-2 10,0 20,-1 30,-1 21,1 97,0 113,0l56 1c96,1 198,10 290,29 14,3 27,7 40,10 12,3 26,6 38,10 26,9 49,15 74,26 30,13 53,27 77,44 6,4 6,8 13,13 6,5 8,5 14,11 5,5 10,6 17,1 10,-7 12,-20 19,-31 9,-14 14,-40 13,-58 -2,-16 -11,-34 -11,-68l-1 -32c0,-53 -1,-106 0,-160l0 -244c0,-22 2,-44 2,-65l5 -65c1,-10 2,-21 2,-31 2,-20 4,-41 7,-62 3,-29 9,-57 15,-86 2,-8 5,-24 5,-32 0,-15 1,-13 -6,-23 -3,-5 -3,-5 -7,-8 -13,-9 -57,1 -67,5 -17,7 -17,11 -22,33l-13 66c-2,6 -3,17 -5,22 -1,-13 -5,-17 -14,-21 -28,-15 -55,-11 -85,-1 -38,13 -58,34 -77,62 -18,27 -35,57 -49,90 -11,24 -20,52 -25,78 -1,5 -2,10 -3,15l-2 13c-1,2 0,0 -2,2l-1 -64c1,-64 8,-127 21,-190 2,-8 2,-12 3,-22 1,-6 1,-14 -3,-20 -4,-7 -2,-8 -12,-12 -12,-4 -32,-4 -45,-1 -42,6 -36,6 -44,31 -19,54 -41,107 -61,163l-39 109c-3,7 -10,34 -14,37l-3 -110c0,-21 -2,-41 -2,-61 0,-11 -1,-21 -1,-31 0,-5 -1,-6 -1,-10 -1,-28 -3,-66 -9,-92 -2,-7 -10,-7 -15,-4 -5,3 -4,11 -4,18l-2 56c0,23 -3,47 -4,70 0,23 -5,52 -6,77 -1,21 -6,54 -7,78 -1,22 -5,46 -5,69l0 26c0,42 -1,74 24,108 6,8 11,16 23,19 15,5 26,-14 31,-23 15,-25 25,-51 36,-78 11,-28 21,-55 32,-83 1,3 1,8 2,11 4,35 10,78 25,109 6,11 13,21 20,30 7,12 24,35 40,35 17,-1 18,-14 22,-27 8,-21 11,-37 16,-59 5,14 11,27 17,41 8,16 40,58 54,66 16,11 27,10 45,2 35,-16 75,-81 94,-116 3,-6 6,-14 10,-19l-1 139c1,39 0,78 1,117l1 41c-9,-2 -29,-13 -39,-17 -12,-6 -28,-12 -41,-16 -101,-33 -171,-46 -281,-55 -49,-4 -97,-7 -146,-7l-24 -1c-30,1 -60,0 -90,0l-122 1c-52,0 -105,5 -158,6 -7,0 -14,2 -21,1 -17,-1 -46,4 -65,4l-90 8c-57,7 -116,14 -173,24 -80,15 -158,36 -235,62 -56,19 -107,40 -157,65l-25 12c-3,1 -5,3 -8,4 -27,14 -54,28 -79,44 -22,14 -39,25 -61,39 -38,26 -78,55 -110,87 -34,33 -59,74 -84,114 -13,20 -25,42 -36,63 -3,4 -8,11 -6,17 4,8 8,7 15,3 77,-38 155,-72 224,-122 58,-42 132,-91 197,-123l50 -25c24,-12 45,-22 68,-31 72,-30 148,-55 225,-72 28,-6 55,-12 82,-16 43,-7 87,-14 130,-18 15,-1 31,-3 46,-5 15,-2 30,-2 45,-4l46 -3zm801 -347c4,-1 22,-30 25,-34 27,-43 41,-75 58,-125 17,-47 32,-88 44,-137 4,-17 7,-34 11,-50 -7,-7 -7,-9 -18,-9 -27,0 -48,17 -64,31 -17,15 -27,36 -37,58 -8,21 -18,46 -24,70 -3,13 -6,25 -8,39 -6,36 -4,51 -4,84 0,18 9,61 17,73zm-468 -158c3,51 7,103 22,153 6,21 13,31 22,49 3,7 9,15 14,20 5,4 16,14 22,15 6,-15 8,-49 8,-69 -1,-24 -11,-46 -17,-68 -7,-22 -13,-45 -17,-69 -5,-25 -9,-48 -13,-74 -1,-12 -4,-26 -4,-38 0,-7 -1,-14 -2,-20 0,-4 0,-8 0,-11 0,-5 -1,-6 -1,-14l-3 -91c-14,-11 -17,7 -19,17 -2,12 -4,23 -6,36 -3,23 -6,51 -6,75l0 89zm-1187 548c3,3 7,-1 10,-3l31 -15c95,-45 160,-73 262,-109 10,-4 11,-5 16,-15 12,-28 -3,-27 -22,-22 -13,3 -165,80 -186,91 -13,8 -26,15 -40,22l-58 35c-3,2 -18,11 -13,16zm910 -1470c-16,0 -53,-31 -85,-22 -10,3 -11,8 -7,18 19,53 78,64 98,98 3,3 11,13 15,13 14,0 7,-30 27,-57 9,-13 24,-26 38,-46 11,-16 23,-35 29,-55 3,-14 4,-35 -6,-45 -11,-12 -30,-9 -43,-6 -14,4 -27,13 -36,21 -25,25 -15,51 -30,81zm10 79c3,-17 9,-31 17,-43 10,-16 24,-27 36,-41 15,-18 37,-49 31,-73 -21,-4 -39,11 -50,21 -14,13 -7,27 -17,55 -3,10 -7,18 -11,25 -7,10 -16,7 -26,2 -13,-4 -41,-20 -53,-20 2,6 13,16 16,20 8,8 10,12 19,18 7,6 12,11 19,17 11,9 14,17 19,19zm-695 1206c-12,0 -58,14 -71,18 -33,12 -88,42 -119,60 -10,6 -18,10 -28,17 -6,5 -25,15 -19,22 5,6 16,-5 29,-11 34,-17 58,-27 94,-41 74,-31 52,-20 109,-58 3,-2 5,-2 5,-7zm375 -514c10,0 23,0 32,-2l8 114c-19,16 -20,13 -37,23 -4,4 -10,13 -9,20 1,8 4,18 7,24 12,25 10,36 39,54 8,4 11,6 21,9 8,40 14,56 25,93 5,15 12,25 21,38 9,14 25,35 40,25 4,-3 5,-4 6,-9 7,-33 4,-49 -1,-83 -4,-24 -11,-32 -13,-43 13,-1 79,17 98,9 15,-5 20,-14 28,-28 10,-19 14,-34 14,-53 0,-10 -11,-25 -15,-27 -12,-7 -101,-13 -106,-17 1,-3 39,-43 42,-47 25,-28 63,-67 81,-101l15 -31c7,-24 9,-21 9,-46 0,-8 -4,-15 -9,-17 -16,-8 -30,-6 -47,-5 -8,0 -18,1 -26,3 -51,8 -94,20 -142,37 -6,2 -16,6 -22,7 -4,-5 -3,-19 -17,-15 -11,2 -8,6 -10,24 -3,2 -19,7 -24,9 -34,11 -45,8 -34,26 5,8 13,9 26,9zm86 72l24 -23c10,-10 67,-66 71,-73 -15,-1 -45,5 -60,7 -18,3 -35,6 -52,10 1,10 14,75 17,79zm-819 -113c2,16 6,35 9,53 3,17 7,35 10,53 1,5 6,20 4,24 -6,8 -9,13 -7,24 2,19 10,32 19,45 4,7 6,13 11,20 7,14 4,6 10,22 13,39 27,77 44,115 2,5 9,18 10,23 -7,2 -16,6 -23,9 -11,4 -79,9 -93,9l-16 0c-15,0 -50,-8 -61,-3 -2,11 38,67 47,78 15,18 31,30 49,44 15,11 36,20 57,20 23,0 55,-9 76,-16 22,-9 45,-18 65,-29 16,-9 35,-20 50,-31 15,-11 32,-23 46,-35 39,-33 72,-69 98,-114l23 -45c3,-6 5,-11 7,-17 8,-19 19,-50 22,-71l1 58c1,68 9,159 50,214 6,7 27,31 42,31l1 0c16,0 22,-14 28,-24 12,-19 19,-42 25,-64 6,-18 10,-38 14,-57 3,-9 5,-18 7,-28 2,-10 4,-20 7,-29 2,13 25,63 35,76 3,4 5,7 8,11 20,26 36,21 51,-8l10 -28c11,-44 1,-53 -13,-92 -23,-63 -37,-139 -37,-208l2 -97c0,-23 -1,-46 -25,-46 -16,0 -32,5 -46,9 -9,3 -12,1 -17,10 -11,22 -16,90 -21,117 -8,55 -16,110 -27,164 -2,7 -5,18 -5,24 -5,-6 -13,-73 -13,-79 -3,-31 -7,-65 -7,-97 0,-18 0,-84 -4,-96 -3,-8 -19,-8 -23,-1 -2,2 -22,97 -25,109l-12 55c0,-2 0,0 0,-3 -2,-12 -4,-22 -10,-33 -6,-11 -13,-19 -22,-25 -27,-20 -48,-24 -84,-23 -27,0 -75,9 -102,15 -9,2 -23,7 -31,8 1,-4 7,-12 10,-17 3,-5 5,-9 9,-16 5,-9 14,-24 18,-35l6 -19c8,-29 9,-44 -17,-53 -30,-10 -116,13 -152,23 -8,2 -15,5 -22,6 -1,-6 -6,-20 -8,-27 -3,-9 -6,-17 -9,-27 -6,-18 -10,-37 -16,-56 -2,-7 -5,-22 -9,-25 -4,-3 -10,-3 -14,-1 -14,4 -18,62 -18,77 0,15 -1,48 1,61 1,5 2,21 1,26 -8,4 -103,46 -105,55 -1,4 2,22 19,17 22,-6 75,-27 92,-30zm101 36l57 -69c-14,-2 -64,6 -76,10 0,6 7,23 9,30l10 29zm102 289c7,-1 37,-27 43,-32 7,-6 14,-13 20,-18 7,-8 12,-13 19,-21 12,-13 23,-27 33,-43 6,-11 22,-42 22,-54 -23,-2 -80,11 -103,18 -14,4 -26,9 -41,14 -13,5 -28,13 -40,17 0,8 8,24 11,31 4,12 32,82 36,88z"/>
   </g>
   <g>
    <path class="fil0 str0" d="M812 370c4,-4 8,-31 10,-39 3,-12 6,-32 7,-43 0,-15 4,-31 5,-45 1,-16 2,-32 4,-47 1,-19 2,-29 -1,-48 -4,-30 -10,-47 -33,-67 -8,-7 -23,-13 -37,-14 -36,-3 -55,3 -86,13 -40,13 -69,24 -101,49 -11,9 -17,16 -28,24 -16,14 -34,34 -46,54 -34,55 -28,98 -4,157 18,43 81,104 123,128 32,19 66,36 100,51 33,14 37,16 69,32 10,6 58,32 62,39 -10,15 -40,18 -60,20 -13,1 -41,6 -54,6 -20,1 -37,2 -58,2 -13,0 -27,0 -40,0 -13,1 -27,1 -40,1 -13,0 -26,2 -38,1l10 -29c3,-11 12,-55 0,-66 -9,-8 -18,-11 -31,-9 -27,4 -41,7 -62,16 -21,8 -21,23 -33,46 -5,8 -9,18 -13,26 -15,36 -32,55 -18,88 3,8 10,17 15,25l22 36c3,4 7,6 11,10 9,8 14,10 30,7 83,-18 66,-9 143,-14 13,0 24,-2 37,-2 61,-2 177,-27 222,-51 18,-9 31,-21 39,-40 1,-4 3,-10 5,-13 12,-25 6,-17 11,-29 2,-6 3,-10 4,-16 5,-24 6,-47 -5,-66 -5,-8 -12,-15 -18,-21 -30,-34 -78,-58 -118,-79 -38,-20 -67,-32 -108,-47 -7,-2 -17,-9 -25,-13 -9,-6 -17,-10 -25,-15 -30,-19 -42,-30 -58,-61 -3,-7 -7,-22 -8,-30 -1,-22 13,-33 29,-50 15,-16 25,-23 41,-37 20,-17 49,-36 78,-41 16,-2 18,-3 30,5 12,8 11,10 14,25 2,10 5,24 6,35 1,5 2,10 3,15 4,21 4,62 8,91 2,11 2,28 10,30zm559 787l1 1c2,4 3,24 4,30 3,32 17,84 34,111 15,26 5,13 23,30 3,3 6,7 10,9 10,5 53,13 65,-4 3,-5 4,-9 2,-16 -1,-6 -1,-10 -3,-16 -4,-10 -6,-20 -10,-30 -16,-45 -15,-46 -21,-97 -5,-43 -7,-105 -5,-150 1,-32 4,-62 6,-93 1,-9 2,-18 3,-28 3,-25 2,-32 3,-57 0,-12 -4,-13 -13,-15 -23,-6 -25,-6 -50,-1 -9,2 -15,5 -22,8 -8,4 -9,8 -13,16 -3,7 -5,13 -8,20 -6,15 -11,29 -16,44 -3,8 -59,162 -64,171 -4,-28 -8,-54 -12,-81 -5,-31 -27,-170 -42,-190 -3,-4 -11,-6 -17,-3 -6,3 -3,14 -3,27 0,4 1,11 1,16 3,56 3,111 3,168l-3 197c1,37 -8,65 7,101 4,10 15,31 22,38 23,24 32,20 47,-11 6,-13 3,-3 9,-21 11,-28 20,-58 30,-88 10,-28 22,-60 32,-86zm-423 -682l13 0c3,8 5,18 8,26 11,37 22,63 38,97 9,19 38,71 49,88 4,7 10,15 14,21 15,23 41,58 59,78 10,11 26,29 40,29 19,0 27,-20 33,-35 9,-22 14,-31 14,-58 0,-20 -5,-23 -15,-37 -42,-56 -74,-101 -103,-167 -4,-10 -28,-70 -28,-80 11,-7 24,-13 38,-23 12,-9 40,-28 51,-40 13,-14 14,-21 21,-40 3,-11 9,-41 -3,-48 -13,-8 -33,-3 -47,0 -7,2 -15,4 -21,8 -9,4 -36,32 -46,41 -3,3 -13,13 -17,13 -2,-6 -5,-22 -6,-29 -16,-68 -19,-130 -29,-198 -3,-18 -5,-48 -11,-64 -4,-10 -8,-18 -21,-16 -12,2 -19,3 -24,13 -17,33 -22,87 -26,125l-4 66 1 35c0,28 20,129 19,132 -36,10 -102,-12 -85,20 3,5 5,10 8,14 18,16 54,29 80,29zm567 -133c1,21 8,69 12,91 16,96 60,179 106,262 15,27 39,73 62,95 11,11 27,32 45,33 6,0 8,-3 15,-12 5,-5 6,-10 9,-17 2,-5 6,-11 9,-17 1,-2 14,-36 14,-39 0,-16 5,-29 -3,-42l-21 -27c-34,-47 -81,-128 -107,-181 -22,-44 -36,-88 -51,-139l-16 -56c-11,-38 -22,-101 -17,-140 1,-6 2,-20 -3,-24 -2,-2 -5,-2 -8,-2 -13,0 -14,7 -18,18 -4,8 -7,18 -10,27 -6,19 -11,38 -14,59 -7,47 -6,63 -4,111zm-159 15c1,5 0,20 1,27 3,36 25,133 34,165 17,60 41,111 68,161 14,24 27,50 42,72 9,12 17,20 26,31 18,22 39,16 49,-8 10,-23 20,-38 18,-68 0,-11 -12,-23 -21,-35 -23,-32 -46,-74 -63,-110 -27,-52 -42,-110 -60,-167 -20,-62 -29,-128 -36,-193 -3,-28 -3,-23 -3,-54 0,-9 3,-29 -16,-24 -5,1 -6,2 -8,7 -11,34 -18,54 -24,90 -2,8 -3,15 -4,23 -4,20 -7,65 -3,83zm-135 116l2 37c2,11 3,23 6,34 9,43 20,81 39,119 13,26 46,93 71,109 4,3 7,5 15,4 14,-2 22,-20 27,-32 3,-9 8,-17 10,-29 3,-16 10,-33 -1,-52 -4,-8 -9,-17 -14,-25 -42,-70 -67,-145 -86,-232 -5,-22 -8,-45 -14,-65 -3,-11 -5,-23 -16,-24 -15,-2 -18,6 -21,18 -6,21 -12,42 -16,63 -2,18 -6,56 -2,75zm-52 1115c16,-2 32,-3 48,-3 8,0 20,-2 27,-3 23,0 47,-3 69,-3l23 -1c26,0 51,-2 77,-2 10,0 20,-1 30,-1 21,1 97,0 113,0l56 1c96,1 198,10 290,29 14,3 27,7 40,10 12,3 26,6 38,10 26,9 49,15 74,26 30,13 53,27 77,44 6,4 6,8 13,13 6,5 8,5 14,11 5,5 10,6 17,1 10,-7 12,-20 19,-31 9,-14 14,-40 13,-58 -2,-16 -11,-34 -11,-68l-1 -32c0,-53 -1,-106 0,-160l0 -244c0,-22 2,-44 2,-65l5 -65c1,-10 2,-21 2,-31 2,-20 4,-41 7,-62 3,-29 9,-57 15,-86 2,-8 5,-24 5,-32 0,-15 1,-13 -6,-23 -3,-5 -3,-5 -7,-8 -13,-9 -57,1 -67,5 -17,7 -17,11 -22,33l-13 66c-2,6 -3,17 -5,22 -1,-13 -5,-17 -14,-21 -28,-15 -55,-11 -85,-1 -38,13 -58,34 -77,62 -18,27 -35,57 -49,90 -11,24 -20,52 -25,78 -1,5 -2,10 -3,15l-2 13c-1,2 0,0 -2,2l-1 -64c1,-64 8,-127 21,-190 2,-8 2,-12 3,-22 1,-6 1,-14 -3,-20 -4,-7 -2,-8 -12,-12 -12,-4 -32,-4 -45,-1 -42,6 -36,6 -44,31 -19,54 -41,107 -61,163l-39 109c-3,7 -10,34 -14,37l-3 -110c0,-21 -2,-41 -2,-61 0,-11 -1,-21 -1,-31 0,-5 -1,-6 -1,-10 -1,-28 -3,-66 -9,-92 -2,-7 -10,-7 -15,-4 -5,3 -4,11 -4,18l-2 56c0,23 -3,47 -4,70 0,23 -5,52 -6,77 -1,21 -6,54 -7,78 -1,22 -5,46 -5,69l0 26c0,42 -1,74 24,108 6,8 11,16 23,19 15,5 26,-14 31,-23 15,-25 25,-51 36,-78 11,-28 21,-55 32,-83 1,3 1,8 2,11 4,35 10,78 25,109 6,11 13,21 20,30 7,12 24,35 40,35 17,-1 18,-14 22,-27 8,-21 11,-37 16,-59 5,14 11,27 17,41 8,16 40,58 54,66 16,11 27,10 45,2 35,-16 75,-81 94,-116 3,-6 6,-14 10,-19l-1 139c1,39 0,78 1,117l1 41c-9,-2 -29,-13 -39,-17 -12,-6 -28,-12 -41,-16 -101,-33 -171,-46 -281,-55 -49,-4 -97,-7 -146,-7l-24 -1c-30,1 -60,0 -90,0l-122 1c-52,0 -105,5 -158,6 -7,0 -14,2 -21,1 -17,-1 -46,4 -65,4l-90 8c-57,7 -116,14 -173,24 -80,15 -158,36 -235,62 -56,19 -107,40 -157,65l-25 12c-3,1 -5,3 -8,4 -27,14 -54,28 -79,44 -22,14 -39,25 -61,39 -38,26 -78,55 -110,87 -34,33 -59,74 -84,114 -13,20 -25,42 -36,63 -3,4 -8,11 -6,17 4,8 8,7 15,3 77,-38 155,-72 224,-122 58,-42 132,-91 197,-123l50 -25c24,-12 45,-22 68,-31 72,-30 148,-55 225,-72 28,-6 55,-12 82,-16 43,-7 87,-14 130,-18 15,-1 31,-3 46,-5 15,-2 30,-2 45,-4l46 -3zm801 -347c4,-1 22,-30 25,-34 27,-43 41,-75 58,-125 17,-47 32,-88 44,-137 4,-17 7,-34 11,-50 -7,-7 -7,-9 -18,-9 -27,0 -48,17 -64,31 -17,15 -27,36 -37,58 -8,21 -18,46 -24,70 -3,13 -6,25 -8,39 -6,36 -4,51 -4,84 0,18 9,61 17,73zm-468 -158c3,51 7,103 22,153 6,21 13,31 22,49 3,7 9,15 14,20 5,4 16,14 22,15 6,-15 8,-49 8,-69 -1,-24 -11,-46 -17,-68 -7,-22 -13,-45 -17,-69 -5,-25 -9,-48 -13,-74 -1,-12 -4,-26 -4,-38 0,-7 -1,-14 -2,-20 0,-4 0,-8 0,-11 0,-5 -1,-6 -1,-14l-3 -91c-14,-11 -17,7 -19,17 -2,12 -4,23 -6,36 -3,23 -6,51 -6,75l0 89zm-1187 548c3,3 7,-1 10,-3l31 -15c95,-45 160,-73 262,-109 10,-4 11,-5 16,-15 12,-28 -3,-27 -22,-22 -13,3 -165,80 -186,91 -13,8 -26,15 -40,22l-58 35c-3,2 -18,11 -13,16zm910 -1470c-16,0 -53,-31 -85,-22 -10,3 -11,8 -7,18 19,53 78,64 98,98 3,3 11,13 15,13 14,0 7,-30 27,-57 9,-13 24,-26 38,-46 11,-16 23,-35 29,-55 3,-14 4,-35 -6,-45 -11,-12 -30,-9 -43,-6 -14,4 -27,13 -36,21 -25,25 -15,51 -30,81zm10 79c3,-17 9,-31 17,-43 10,-16 24,-27 36,-41 15,-18 37,-49 31,-73 -21,-4 -39,11 -50,21 -14,13 -7,27 -17,55 -3,10 -7,18 -11,25 -7,10 -16,7 -26,2 -13,-4 -41,-20 -53,-20 2,6 13,16 16,20 8,8 10,12 19,18 7,6 12,11 19,17 11,9 14,17 19,19zm-695 1206c-12,0 -58,14 -71,18 -33,12 -88,42 -119,60 -10,6 -18,10 -28,17 -6,5 -25,15 -19,22 5,6 16,-5 29,-11 34,-17 58,-27 94,-41 74,-31 52,-20 109,-58 3,-2 5,-2 5,-7zm375 -514c10,0 23,0 32,-2l8 114c-19,16 -20,13 -37,23 -4,4 -10,13 -9,20 1,8 4,18 7,24 12,25 10,36 39,54 8,4 11,6 21,9 8,40 14,56 25,93 5,15 12,25 21,38 9,14 25,35 40,25 4,-3 5,-4 6,-9 7,-33 4,-49 -1,-83 -4,-24 -11,-32 -13,-43 13,-1 79,17 98,9 15,-5 20,-14 28,-28 10,-19 14,-34 14,-53 0,-10 -11,-25 -15,-27 -12,-7 -101,-13 -106,-17 1,-3 39,-43 42,-47 25,-28 63,-67 81,-101l15 -31c7,-24 9,-21 9,-46 0,-8 -4,-15 -9,-17 -16,-8 -30,-6 -47,-5 -8,0 -18,1 -26,3 -51,8 -94,20 -142,37 -6,2 -16,6 -22,7 -4,-5 -3,-19 -17,-15 -11,2 -8,6 -10,24 -3,2 -19,7 -24,9 -34,11 -45,8 -34,26 5,8 13,9 26,9zm86 72l24 -23c10,-10 67,-66 71,-73 -15,-1 -45,5 -60,7 -18,3 -35,6 -52,10 1,10 14,75 17,79zm-819 -113c2,16 6,35 9,53 3,17 7,35 10,53 1,5 6,20 4,24 -6,8 -9,13 -7,24 2,19 10,32 19,45 4,7 6,13 11,20 7,14 4,6 10,22 13,39 27,77 44,115 2,5 9,18 10,23 -7,2 -16,6 -23,9 -11,4 -79,9 -93,9l-16 0c-15,0 -50,-8 -61,-3 -2,11 38,67 47,78 15,18 31,30 49,44 15,11 36,20 57,20 23,0 55,-9 76,-16 22,-9 45,-18 65,-29 16,-9 35,-20 50,-31 15,-11 32,-23 46,-35 39,-33 72,-69 98,-114l23 -45c3,-6 5,-11 7,-17 8,-19 19,-50 22,-71l1 58c1,68 9,159 50,214 6,7 27,31 42,31l1 0c16,0 22,-14 28,-24 12,-19 19,-42 25,-64 6,-18 10,-38 14,-57 3,-9 5,-18 7,-28 2,-10 4,-20 7,-29 2,13 25,63 35,76 3,4 5,7 8,11 20,26 36,21 51,-8l10 -28c11,-44 1,-53 -13,-92 -23,-63 -37,-139 -37,-208l2 -97c0,-23 -1,-46 -25,-46 -16,0 -32,5 -46,9 -9,3 -12,1 -17,10 -11,22 -16,90 -21,117 -8,55 -16,110 -27,164 -2,7 -5,18 -5,24 -5,-6 -13,-73 -13,-79 -3,-31 -7,-65 -7,-97 0,-18 0,-84 -4,-96 -3,-8 -19,-8 -23,-1 -2,2 -22,97 -25,109l-12 55c0,-2 0,0 0,-3 -2,-12 -4,-22 -10,-33 -6,-11 -13,-19 -22,-25 -27,-20 -48,-24 -84,-23 -27,0 -75,9 -102,15 -9,2 -23,7 -31,8 1,-4 7,-12 10,-17 3,-5 5,-9 9,-16 5,-9 14,-24 18,-35l6 -19c8,-29 9,-44 -17,-53 -30,-10 -116,13 -152,23 -8,2 -15,5 -22,6 -1,-6 -6,-20 -8,-27 -3,-9 -6,-17 -9,-27 -6,-18 -10,-37 -16,-56 -2,-7 -5,-22 -9,-25 -4,-3 -10,-3 -14,-1 -14,4 -18,62 -18,77 0,15 -1,48 1,61 1,5 2,21 1,26 -8,4 -103,46 -105,55 -1,4 2,22 19,17 22,-6 75,-27 92,-30zm101 36l57 -69c-14,-2 -64,6 -76,10 0,6 7,23 9,30l10 29zm102 289c7,-1 37,-27 43,-32 7,-6 14,-13 20,-18 7,-8 12,-13 19,-21 12,-13 23,-27 33,-43 6,-11 22,-42 22,-54 -23,-2 -80,11 -103,18 -14,4 -26,9 -41,14 -13,5 -28,13 -40,17 0,8 8,24 11,31 4,12 32,82 36,88z"/>
    <path id="1" class="fil2" d="M812 370c4,-4 8,-31 10,-39 3,-12 6,-32 7,-43 0,-15 4,-31 5,-45 1,-16 2,-32 4,-47 1,-19 2,-29 -1,-48 -4,-30 -10,-47 -33,-67 -8,-7 -23,-13 -37,-14 -36,-3 -55,3 -86,13 -40,13 -69,24 -101,49 -11,9 -17,16 -28,24 -16,14 -34,34 -46,54 -34,55 -28,98 -4,157 18,43 81,104 123,128 32,19 66,36 100,51 33,14 37,16 69,32 10,6 58,32 62,39 -10,15 -40,18 -60,20 -13,1 -41,6 -54,6 -20,1 -37,2 -58,2 -13,0 -27,0 -40,0 -13,1 -27,1 -40,1 -13,0 -26,2 -38,1l10 -29c3,-11 12,-55 0,-66 -9,-8 -18,-11 -31,-9 -27,4 -41,7 -62,16 -21,8 -21,23 -33,46 -5,8 -9,18 -13,26 -15,36 -32,55 -18,88 3,8 10,17 15,25l22 36c3,4 7,6 11,10 9,8 14,10 30,7 83,-18 66,-9 143,-14 13,0 24,-2 37,-2 61,-2 177,-27 222,-51 18,-9 31,-21 39,-40 1,-4 3,-10 5,-13 12,-25 6,-17 11,-29 2,-6 3,-10 4,-16 5,-24 6,-47 -5,-66 -5,-8 -12,-15 -18,-21 -30,-34 -78,-58 -118,-79 -38,-20 -67,-32 -108,-47 -7,-2 -17,-9 -25,-13 -9,-6 -17,-10 -25,-15 -30,-19 -42,-30 -58,-61 -3,-7 -7,-22 -8,-30 -1,-22 13,-33 29,-50 15,-16 25,-23 41,-37 20,-17 49,-36 78,-41 16,-2 18,-3 30,5 12,8 11,10 14,25 2,10 5,24 6,35 1,5 2,10 3,15 4,21 4,62 8,91 2,11 2,28 10,30zm559 787l1 1c2,4 3,24 4,30 3,32 17,84 34,111 15,26 5,13 23,30 3,3 6,7 10,9 10,5 53,13 65,-4 3,-5 4,-9 2,-16 -1,-6 -1,-10 -3,-16 -4,-10 -6,-20 -10,-30 -16,-45 -15,-46 -21,-97 -5,-43 -7,-105 -5,-150 1,-32 4,-62 6,-93 1,-9 2,-18 3,-28 3,-25 2,-32 3,-57 0,-12 -4,-13 -13,-15 -23,-6 -25,-6 -50,-1 -9,2 -15,5 -22,8 -8,4 -9,8 -13,16 -3,7 -5,13 -8,20 -6,15 -11,29 -16,44 -3,8 -59,162 -64,171 -4,-28 -8,-54 -12,-81 -5,-31 -27,-170 -42,-190 -3,-4 -11,-6 -17,-3 -6,3 -3,14 -3,27 0,4 1,11 1,16 3,56 3,111 3,168l-3 197c1,37 -8,65 7,101 4,10 15,31 22,38 23,24 32,20 47,-11 6,-13 3,-3 9,-21 11,-28 20,-58 30,-88 10,-28 22,-60 32,-86zm-423 -682l13 0c3,8 5,18 8,26 11,37 22,63 38,97 9,19 38,71 49,88 4,7 10,15 14,21 15,23 41,58 59,78 10,11 26,29 40,29 19,0 27,-20 33,-35 9,-22 14,-31 14,-58 0,-20 -5,-23 -15,-37 -42,-56 -74,-101 -103,-167 -4,-10 -28,-70 -28,-80 11,-7 24,-13 38,-23 12,-9 40,-28 51,-40 13,-14 14,-21 21,-40 3,-11 9,-41 -3,-48 -13,-8 -33,-3 -47,0 -7,2 -15,4 -21,8 -9,4 -36,32 -46,41 -3,3 -13,13 -17,13 -2,-6 -5,-22 -6,-29 -16,-68 -19,-130 -29,-198 -3,-18 -5,-48 -11,-64 -4,-10 -8,-18 -21,-16 -12,2 -19,3 -24,13 -17,33 -22,87 -26,125l-4 66 1 35c0,28 20,129 19,132 -36,10 -102,-12 -85,20 3,5 5,10 8,14 18,16 54,29 80,29zm567 -133c1,21 8,69 12,91 16,96 60,179 106,262 15,27 39,73 62,95 11,11 27,32 45,33 6,0 8,-3 15,-12 5,-5 6,-10 9,-17 2,-5 6,-11 9,-17 1,-2 14,-36 14,-39 0,-16 5,-29 -3,-42l-21 -27c-34,-47 -81,-128 -107,-181 -22,-44 -36,-88 -51,-139l-16 -56c-11,-38 -22,-101 -17,-140 1,-6 2,-20 -3,-24 -2,-2 -5,-2 -8,-2 -13,0 -14,7 -18,18 -4,8 -7,18 -10,27 -6,19 -11,38 -14,59 -7,47 -6,63 -4,111zm-159 15c1,5 0,20 1,27 3,36 25,133 34,165 17,60 41,111 68,161 14,24 27,50 42,72 9,12 17,20 26,31 18,22 39,16 49,-8 10,-23 20,-38 18,-68 0,-11 -12,-23 -21,-35 -23,-32 -46,-74 -63,-110 -27,-52 -42,-110 -60,-167 -20,-62 -29,-128 -36,-193 -3,-28 -3,-23 -3,-54 0,-9 3,-29 -16,-24 -5,1 -6,2 -8,7 -11,34 -18,54 -24,90 -2,8 -3,15 -4,23 -4,20 -7,65 -3,83zm-135 116l2 37c2,11 3,23 6,34 9,43 20,81 39,119 13,26 46,93 71,109 4,3 7,5 15,4 14,-2 22,-20 27,-32 3,-9 8,-17 10,-29 3,-16 10,-33 -1,-52 -4,-8 -9,-17 -14,-25 -42,-70 -67,-145 -86,-232 -5,-22 -8,-45 -14,-65 -3,-11 -5,-23 -16,-24 -15,-2 -18,6 -21,18 -6,21 -12,42 -16,63 -2,18 -6,56 -2,75zm-52 1115c16,-2 32,-3 48,-3 8,0 20,-2 27,-3 23,0 47,-3 69,-3l23 -1c26,0 51,-2 77,-2 10,0 20,-1 30,-1 21,1 97,0 113,0l56 1c96,1 198,10 290,29 14,3 27,7 40,10 12,3 26,6 38,10 26,9 49,15 74,26 30,13 53,27 77,44 6,4 6,8 13,13 6,5 8,5 14,11 5,5 10,6 17,1 10,-7 12,-20 19,-31 9,-14 14,-40 13,-58 -2,-16 -11,-34 -11,-68l-1 -32c0,-53 -1,-106 0,-160l0 -244c0,-22 2,-44 2,-65l5 -65c1,-10 2,-21 2,-31 2,-20 4,-41 7,-62 3,-29 9,-57 15,-86 2,-8 5,-24 5,-32 0,-15 1,-13 -6,-23 -3,-5 -3,-5 -7,-8 -13,-9 -57,1 -67,5 -17,7 -17,11 -22,33l-13 66c-2,6 -3,17 -5,22 -1,-13 -5,-17 -14,-21 -28,-15 -55,-11 -85,-1 -38,13 -58,34 -77,62 -18,27 -35,57 -49,90 -11,24 -20,52 -25,78 -1,5 -2,10 -3,15l-2 13c-1,2 0,0 -2,2l-1 -64c1,-64 8,-127 21,-190 2,-8 2,-12 3,-22 1,-6 1,-14 -3,-20 -4,-7 -2,-8 -12,-12 -12,-4 -32,-4 -45,-1 -42,6 -36,6 -44,31 -19,54 -41,107 -61,163l-39 109c-3,7 -10,34 -14,37l-3 -110c0,-21 -2,-41 -2,-61 0,-11 -1,-21 -1,-31 0,-5 -1,-6 -1,-10 -1,-28 -3,-66 -9,-92 -2,-7 -10,-7 -15,-4 -5,3 -4,11 -4,18l-2 56c0,23 -3,47 -4,70 0,23 -5,52 -6,77 -1,21 -6,54 -7,78 -1,22 -5,46 -5,69l0 26c0,42 -1,74 24,108 6,8 11,16 23,19 15,5 26,-14 31,-23 15,-25 25,-51 36,-78 11,-28 21,-55 32,-83 1,3 1,8 2,11 4,35 10,78 25,109 6,11 13,21 20,30 7,12 24,35 40,35 17,-1 18,-14 22,-27 8,-21 11,-37 16,-59 5,14 11,27 17,41 8,16 40,58 54,66 16,11 27,10 45,2 35,-16 75,-81 94,-116 3,-6 6,-14 10,-19l-1 139c1,39 0,78 1,117l1 41c-9,-2 -29,-13 -39,-17 -12,-6 -28,-12 -41,-16 -101,-33 -171,-46 -281,-55 -49,-4 -97,-7 -146,-7l-24 -1c-30,1 -60,0 -90,0l-122 1c-52,0 -105,5 -158,6 -7,0 -14,2 -21,1 -17,-1 -46,4 -65,4l-90 8c-57,7 -116,14 -173,24 -80,15 -158,36 -235,62 -56,19 -107,40 -157,65l-25 12c-3,1 -5,3 -8,4 -27,14 -54,28 -79,44 -22,14 -39,25 -61,39 -38,26 -78,55 -110,87 -34,33 -59,74 -84,114 -13,20 -25,42 -36,63 -3,4 -8,11 -6,17 4,8 8,7 15,3 77,-38 155,-72 224,-122 58,-42 132,-91 197,-123l50 -25c24,-12 45,-22 68,-31 72,-30 148,-55 225,-72 28,-6 55,-12 82,-16 43,-7 87,-14 130,-18 15,-1 31,-3 46,-5 15,-2 30,-2 45,-4l46 -3zm801 -347c4,-1 22,-30 25,-34 27,-43 41,-75 58,-125 17,-47 32,-88 44,-137 4,-17 7,-34 11,-50 -7,-7 -7,-9 -18,-9 -27,0 -48,17 -64,31 -17,15 -27,36 -37,58 -8,21 -18,46 -24,70 -3,13 -6,25 -8,39 -6,36 -4,51 -4,84 0,18 9,61 17,73zm-468 -158c3,51 7,103 22,153 6,21 13,31 22,49 3,7 9,15 14,20 5,4 16,14 22,15 6,-15 8,-49 8,-69 -1,-24 -11,-46 -17,-68 -7,-22 -13,-45 -17,-69 -5,-25 -9,-48 -13,-74 -1,-12 -4,-26 -4,-38 0,-7 -1,-14 -2,-20 0,-4 0,-8 0,-11 0,-5 -1,-6 -1,-14l-3 -91c-14,-11 -17,7 -19,17 -2,12 -4,23 -6,36 -3,23 -6,51 -6,75l0 89zm-1187 548c3,3 7,-1 10,-3l31 -15c95,-45 160,-73 262,-109 10,-4 11,-5 16,-15 12,-28 -3,-27 -22,-22 -13,3 -165,80 -186,91 -13,8 -26,15 -40,22l-58 35c-3,2 -18,11 -13,16zm910 -1470c-16,0 -53,-31 -85,-22 -10,3 -11,8 -7,18 19,53 78,64 98,98 3,3 11,13 15,13 14,0 7,-30 27,-57 9,-13 24,-26 38,-46 11,-16 23,-35 29,-55 3,-14 4,-35 -6,-45 -11,-12 -30,-9 -43,-6 -14,4 -27,13 -36,21 -25,25 -15,51 -30,81zm10 79c3,-17 9,-31 17,-43 10,-16 24,-27 36,-41 15,-18 37,-49 31,-73 -21,-4 -39,11 -50,21 -14,13 -7,27 -17,55 -3,10 -7,18 -11,25 -7,10 -16,7 -26,2 -13,-4 -41,-20 -53,-20 2,6 13,16 16,20 8,8 10,12 19,18 7,6 12,11 19,17 11,9 14,17 19,19zm-695 1206c-12,0 -58,14 -71,18 -33,12 -88,42 -119,60 -10,6 -18,10 -28,17 -6,5 -25,15 -19,22 5,6 16,-5 29,-11 34,-17 58,-27 94,-41 74,-31 52,-20 109,-58 3,-2 5,-2 5,-7zm375 -514c10,0 23,0 32,-2l8 114c-19,16 -20,13 -37,23 -4,4 -10,13 -9,20 1,8 4,18 7,24 12,25 10,36 39,54 8,4 11,6 21,9 8,40 14,56 25,93 5,15 12,25 21,38 9,14 25,35 40,25 4,-3 5,-4 6,-9 7,-33 4,-49 -1,-83 -4,-24 -11,-32 -13,-43 13,-1 79,17 98,9 15,-5 20,-14 28,-28 10,-19 14,-34 14,-53 0,-10 -11,-25 -15,-27 -12,-7 -101,-13 -106,-17 1,-3 39,-43 42,-47 25,-28 63,-67 81,-101l15 -31c7,-24 9,-21 9,-46 0,-8 -4,-15 -9,-17 -16,-8 -30,-6 -47,-5 -8,0 -18,1 -26,3 -51,8 -94,20 -142,37 -6,2 -16,6 -22,7 -4,-5 -3,-19 -17,-15 -11,2 -8,6 -10,24 -3,2 -19,7 -24,9 -34,11 -45,8 -34,26 5,8 13,9 26,9zm86 72l24 -23c10,-10 67,-66 71,-73 -15,-1 -45,5 -60,7 -18,3 -35,6 -52,10 1,10 14,75 17,79zm-819 -113c2,16 6,35 9,53 3,17 7,35 10,53 1,5 6,20 4,24 -6,8 -9,13 -7,24 2,19 10,32 19,45 4,7 6,13 11,20 7,14 4,6 10,22 13,39 27,77 44,115 2,5 9,18 10,23 -7,2 -16,6 -23,9 -11,4 -79,9 -93,9l-16 0c-15,0 -50,-8 -61,-3 -2,11 38,67 47,78 15,18 31,30 49,44 15,11 36,20 57,20 23,0 55,-9 76,-16 22,-9 45,-18 65,-29 16,-9 35,-20 50,-31 15,-11 32,-23 46,-35 39,-33 72,-69 98,-114l23 -45c3,-6 5,-11 7,-17 8,-19 19,-50 22,-71l1 58c1,68 9,159 50,214 6,7 27,31 42,31l1 0c16,0 22,-14 28,-24 12,-19 19,-42 25,-64 6,-18 10,-38 14,-57 3,-9 5,-18 7,-28 2,-10 4,-20 7,-29 2,13 25,63 35,76 3,4 5,7 8,11 20,26 36,21 51,-8l10 -28c11,-44 1,-53 -13,-92 -23,-63 -37,-139 -37,-208l2 -97c0,-23 -1,-46 -25,-46 -16,0 -32,5 -46,9 -9,3 -12,1 -17,10 -11,22 -16,90 -21,117 -8,55 -16,110 -27,164 -2,7 -5,18 -5,24 -5,-6 -13,-73 -13,-79 -3,-31 -7,-65 -7,-97 0,-18 0,-84 -4,-96 -3,-8 -19,-8 -23,-1 -2,2 -22,97 -25,109l-12 55c0,-2 0,0 0,-3 -2,-12 -4,-22 -10,-33 -6,-11 -13,-19 -22,-25 -27,-20 -48,-24 -84,-23 -27,0 -75,9 -102,15 -9,2 -23,7 -31,8 1,-4 7,-12 10,-17 3,-5 5,-9 9,-16 5,-9 14,-24 18,-35l6 -19c8,-29 9,-44 -17,-53 -30,-10 -116,13 -152,23 -8,2 -15,5 -22,6 -1,-6 -6,-20 -8,-27 -3,-9 -6,-17 -9,-27 -6,-18 -10,-37 -16,-56 -2,-7 -5,-22 -9,-25 -4,-3 -10,-3 -14,-1 -14,4 -18,62 -18,77 0,15 -1,48 1,61 1,5 2,21 1,26 -8,4 -103,46 -105,55 -1,4 2,22 19,17 22,-6 75,-27 92,-30zm101 36l57 -69c-14,-2 -64,6 -76,10 0,6 7,23 9,30l10 29zm102 289c7,-1 37,-27 43,-32 7,-6 14,-13 20,-18 7,-8 12,-13 19,-21 12,-13 23,-27 33,-43 6,-11 22,-42 22,-54 -23,-2 -80,11 -103,18 -14,4 -26,9 -41,14 -13,5 -28,13 -40,17 0,8 8,24 11,31 4,12 32,82 36,88z"/>
   </g>
   <path class="fil3" d="M413 1702c16,-10 22,-24 45,-28 3,7 0,14 -3,20 -6,10 -9,7 -4,21 19,-10 29,-22 49,-27 0,10 -7,15 -15,22 -7,7 -16,16 -24,18 -3,-2 -9,-9 -14,-17 -6,-7 -11,-15 -15,-18 -1,3 -2,0 0,6 1,2 3,6 4,8 4,6 8,12 12,17 4,6 8,12 13,18 10,-1 41,-32 46,-41 4,-9 4,-24 -9,-24 -11,1 -22,9 -32,14 12,-24 -10,-43 -49,-1 -6,7 -6,5 -4,12zm-118 113c-4,8 -15,15 -24,20 -9,4 -21,5 -26,10 9,16 60,-11 59,-28 0,-8 -3,-13 -7,-15 -5,-3 -11,-3 -17,-3 -14,2 -29,7 -36,7 -2,-6 -2,-1 -1,-7 3,-11 14,-13 16,-22 -7,4 -5,-1 -13,5 -4,4 -7,8 -10,12 -6,12 -1,21 10,22 20,2 42,-17 49,-1zm445 -238c-19,-6 -38,6 -34,11 6,8 18,-7 31,-3 -1,11 -21,26 -37,25 -7,-7 -5,-18 -4,-25 0,-8 4,-16 3,-24 -5,3 -9,10 -11,18 -1,9 -2,18 1,26 4,15 18,24 44,3 4,-4 8,-8 10,-13 2,-5 1,-11 -3,-18zm-342 184c3,1 5,2 8,4 6,-4 32,-23 23,-28 -4,-2 1,-3 -7,0 -6,6 -12,11 -17,16 -5,-8 -8,-16 -14,-23 -9,-14 -8,-15 -15,-15 3,6 6,13 10,20 3,6 7,13 10,20 -12,6 -16,12 -27,17 -3,-6 -7,-12 -10,-18 -3,-6 -6,-12 -9,-18 -4,-6 -4,-6 -8,-5 -1,5 0,7 2,11 2,3 4,7 7,11 4,9 7,17 12,25 9,15 31,-10 35,-17zm-106 17c-7,4 -18,11 -20,18 7,3 8,-3 24,-10 3,4 8,12 13,19 5,7 10,13 14,13 1,-8 -4,-14 -8,-19 -5,-6 -10,-11 -10,-19 8,-5 15,-10 22,-16 3,5 6,9 9,14 3,4 6,9 9,13 6,7 4,5 8,4 0,-5 -5,-14 -10,-24 -5,-9 -11,-18 -14,-19 -8,2 -24,16 -33,22 -3,-7 -8,-15 -13,-17 -1,8 5,14 9,21zm392 -157c-7,0 -16,-7 -24,-14 -8,-7 -15,-15 -21,-15 -7,7 -2,14 3,25 1,4 3,10 6,14 2,5 5,10 8,12 5,-2 5,-3 1,-11 -2,-7 -6,-14 -8,-20 8,1 14,8 20,13 7,5 13,8 22,4 0,-4 0,-8 -1,-12 0,-5 -2,-10 -4,-15 -3,-8 -6,-14 -8,-18 -3,-4 -6,-7 -10,-6 -1,3 -1,-1 0,4 1,3 1,2 2,4 3,6 6,11 8,16 2,5 5,11 6,19zm186 -26c0,-2 -1,-6 -3,-12 -2,-6 -4,-14 -7,-21 -3,-8 -6,-15 -8,-22 -3,-6 -5,-10 -6,-12 -6,0 -7,4 -4,12 1,4 3,8 5,14 2,6 5,12 7,19 -6,-3 -13,-13 -21,-22 -7,-9 -14,-16 -19,-15 2,5 7,12 12,18 5,7 10,13 13,17 5,6 10,13 15,18 4,5 9,7 16,6zm-343 88c-7,-1 -12,-6 -18,-11 -3,-3 -4,-3 -8,-7 -4,-5 -4,-6 -8,-6 1,3 4,7 7,12 3,4 7,9 11,12 8,8 17,13 24,10 3,-10 0,-11 0,-19 7,3 9,6 16,4 -5,-9 -13,-12 -18,-19 -4,-4 -6,-9 -8,-15 -4,-8 -3,-9 -10,-7 -1,5 2,13 6,21 3,9 7,18 6,25zm272 -145c1,1 2,5 4,10 2,4 5,10 8,16 3,6 6,12 9,18 3,5 5,9 7,11 4,2 6,3 10,2 -3,-7 -4,-6 -8,-14 -3,-6 -7,-12 -10,-18 -3,-6 -6,-13 -9,-19 -2,-4 -4,-7 -8,-7 -6,-1 -1,-1 -3,1zm-32 78c5,2 3,1 12,-1 8,-1 34,-3 33,-14 -7,-7 -18,-1 -25,2 -6,2 -12,5 -17,8 -5,4 -3,0 -3,5zm-119 32c0,-2 -1,-6 -3,-11 -2,-5 -4,-10 -7,-16 -6,-10 -13,-21 -14,-23 -1,2 -1,6 1,11 1,5 4,11 6,17 5,11 12,21 17,22zm-78 40c0,-7 -4,-12 -7,-18 11,-1 23,4 36,2 0,0 2,-5 2,-5 1,-2 2,-3 3,-5 -2,-4 -5,-8 -7,-12 -2,-4 -5,-9 -7,-13 6,1 14,6 20,10 6,4 23,16 21,0 -1,-6 -8,-20 -11,-25 -5,-10 -8,-24 -17,-21 3,7 6,14 9,21 3,7 6,14 9,21 -7,-1 -16,-8 -25,-15 -8,-6 -17,-12 -23,-9 0,6 3,14 8,22 5,8 10,15 14,21 -11,0 -21,-1 -30,-4 1,-2 4,-8 6,-13 1,-6 1,-13 -8,-18 -8,-4 -24,-6 -34,1 1,7 5,16 11,25 3,4 6,9 9,13 3,4 5,8 8,12 5,7 6,12 13,10zm-18 -33c5,-8 10,-6 9,-17 -4,-3 -3,-3 -9,-3 -4,-1 -7,-1 -12,0 4,7 8,13 12,20zm-301 208c-22,11 -29,31 -52,29 -8,-1 -16,-6 -21,-13 -6,-8 -9,-18 -10,-28 -1,-19 8,-39 31,-37 8,0 16,3 22,9 6,5 10,14 9,25 -13,10 -15,-4 -25,-8 -12,-4 -18,4 -19,13 -2,5 -2,11 0,18 3,9 13,19 22,12 0,0 0,0 0,0 0,-1 0,-1 0,-1 0,0 0,0 0,0 2,-2 3,-4 4,-6 4,-6 3,-15 3,-19 0,-1 0,-1 0,-2 13,8 22,2 23,-9 0,-5 -1,-11 -4,-18 -4,-6 -10,-12 -18,-17 -22,-12 -47,-8 -55,25 -2,9 -2,20 1,29 2,9 7,17 13,24 7,6 14,10 23,11 9,1 18,0 28,-6 10,-6 26,-21 25,-31zm-58 8c0,0 0,0 0,0 0,0 -1,0 0,0 -1,0 -1,0 -1,0 0,-4 0,-7 0,-10 1,-1 1,-3 2,-5 1,-1 2,-2 3,-3 4,-2 8,1 10,8 1,8 -1,15 -4,18 0,0 0,0 0,0 -2,0 -3,0 -4,-1 -2,0 -5,-3 -6,-7z"/>
  </g>
 </g>
</svg>
