<?xml version="1.0" encoding="UTF-8"?>
<!DOCTYPE svg PUBLIC "-//W3C//DTD SVG 1.1//EN" "http://www.w3.org/Graphics/SVG/1.1/DTD/svg11.dtd">
<!-- Creator: CorelDRAW X6 -->
<svg xmlns="http://www.w3.org/2000/svg" xml:space="preserve" width="58.1935mm" height="58.8519mm" version="1.1" style="shape-rendering:geometricPrecision; text-rendering:geometricPrecision; image-rendering:optimizeQuality; fill-rule:evenodd; clip-rule:evenodd"
viewBox="0 0 233 235"
 xmlns:xlink="http://www.w3.org/1999/xlink">
 <defs>
  <style type="text/css">
   <![CDATA[
    .str0 {stroke:#1C1B17;stroke-width:3.98312;stroke-linejoin:round}
    .fil1 {fill:none}
    .fil2 {fill:#FFED00}
    .fil0 {fill:#1C1B17;fill-rule:nonzero}
   ]]>
  </style>
 </defs>
 <g id="Capa_x0020_1">
  <metadata id="CorelCorpID_0Corel-Layer"/>
  <g id="_1243245536">
   <path class="fil0" d="M46 56c0,-17 29,-32 38,-20 4,0 7,2 9,5 0,-4 1,-9 7,-6 0,0 1,0 1,1 1,-5 5,-8 5,-12 0,-4 5,-5 7,-2 0,-6 0,-10 -3,-14l0 0c-5,-8 1,-11 9,-4 6,-1 24,19 26,31 3,-3 6,0 6,6l0 0c1,2 0,5 0,6 1,0 2,0 3,0 0,-3 4,-6 8,-4l0 0c1,1 2,2 2,4 2,-1 4,-1 5,0l0 0c4,2 4,16 7,25 4,13 6,18 13,29 2,4 2,7 0,12 4,0 7,2 7,6 3,-3 7,-5 11,-5 1,-7 12,-7 13,-1 8,-2 8,3 8,9 -1,18 -1,47 4,65 3,11 -2,22 -11,21 -18,-3 -33,-8 -50,-10 -48,-7 -74,0 -117,17 -4,1 -11,4 -15,6l0 0c-5,3 -24,14 -27,14 -3,1 -5,-2 -4,-5 -7,3 -11,-1 -5,-7 23,-21 48,-38 78,-46 17,-5 34,-7 49,-7 0,0 0,-1 0,-1 -4,2 -7,-2 -9,-5l0 0c-1,-2 -1,-3 -1,-5 -1,-1 -2,-1 -3,-1 1,4 0,8 -3,11l0 0c-3,3 -6,0 -8,-3 -3,2 -6,-2 -8,-5 -3,3 -6,1 -8,-1 -3,7 -8,15 -16,6 -3,1 -7,-4 -9,-6 -6,7 -20,19 -31,16 0,0 -5,-4 -7,-4 -2,-1 -20,-10 -14,-16 2,-2 9,-1 12,-1 -3,-9 -5,-19 -6,-28 -3,0 -5,-1 -4,-4 -8,2 -11,-5 -5,-8 0,0 0,0 0,0l0 0c1,0 4,-2 6,-3 0,-4 -3,-14 4,-13 2,1 3,3 4,5 3,-3 6,0 8,4 4,-1 12,-2 13,3 5,0 9,3 7,8 4,0 8,2 11,4 0,-3 0,-5 1,-7 -9,-2 -7,-3 -11,-5 -1,0 -16,-4 -11,-17 2,-5 16,-24 19,-10 1,0 2,-1 3,-1 -9,-6 -18,-15 -18,-27zm-13 139c-1,1 -10,-1 16,-13 25,-11 20,-4 19,-3 -13,3 -24,8 -35,16zm4 -9c-1,1 -9,0 7,-8 18,-9 13,-2 12,-2 -5,2 -14,6 -19,10zm47 -122c-2,5 -6,3 -6,-2 0,-4 0,-9 0,-13 -16,6 -11,17 0,22 2,1 4,2 6,3 -1,-2 1,-3 3,-4 -4,-4 0,-13 -3,-6zm87 52l1 -2c0,0 0,-1 -1,-1 0,1 0,2 -1,3 1,0 1,0 1,0zm-31 54c13,1 53,6 68,12 -1,-2 -1,-5 -1,-6 -4,0 -7,-2 -9,-4 -4,0 -7,-3 -9,-6 -3,0 -5,-3 -6,-4 -1,0 -1,0 -2,0 -2,6 -6,11 -11,5 -3,6 -7,7 -11,1 -1,1 -2,1 -3,0 -3,4 -7,2 -9,-2 -2,1 -3,1 -5,-1 -1,2 -1,4 -2,5zm-71 -78c3,0 7,0 10,0 -4,-3 -8,-5 -12,-7 1,2 2,4 2,7zm29 23c1,0 9,-3 11,-3 -2,-2 -3,-3 -4,-5 -2,3 -4,5 -7,7 0,0 0,0 0,1zm37 1c1,0 3,-1 5,-1 -2,-1 -3,-2 -4,-3 -2,1 -4,0 -6,-2 0,1 0,3 -1,4 3,-1 5,0 6,2zm10 0c0,0 1,0 2,1 1,-3 4,-4 6,-3 -2,-2 -3,-3 -4,-5 -1,3 -2,5 -4,7zm-24 -25c-1,-4 -2,-8 -2,-11 -1,0 -1,1 -2,1 1,3 3,6 4,10zm-1 -27c0,-1 0,-2 1,-2 -3,-3 -6,-4 -9,-5l1 3c3,0 5,2 5,5l2 -1zm4 -12c2,-2 4,-4 6,-6 -4,-1 -3,-7 -2,-10 -2,4 -6,6 -10,3 -2,6 1,11 6,13zm34 64c0,0 -1,0 -1,0 0,0 0,1 0,2 1,0 1,0 2,-1 0,0 0,-1 0,-1 0,0 0,0 0,0 0,0 -1,0 -1,0zm-148 -1c0,0 0,0 0,0l0 0zm34 30c0,-1 1,-1 1,-2l-2 1c0,1 1,1 1,1z"/>
   <g>
    <path class="fil1 str0" d="M49 56c0,14 15,23 26,30 2,1 6,3 8,5 3,3 3,3 -2,4 -3,0 -22,1 -23,-2 0,-3 0,-12 -2,-11 -4,2 -9,9 -11,13 -2,5 0,8 4,11 2,2 12,3 16,3 9,1 19,1 26,-3 4,-2 7,-10 6,-15 -1,-4 -8,-9 -11,-11 -8,-6 -20,-9 -27,-18 0,-1 -1,-2 -2,-3 -5,-12 18,-23 22,-18 1,1 1,3 2,4 1,6 0,11 0,17 0,4 1,-1 1,-2 1,-1 1,-2 1,-3 1,-5 2,-13 0,-18 -2,-2 -2,-2 -5,-4 -4,-1 -11,1 -14,2 -4,2 -7,4 -10,7 -2,3 -5,7 -5,12zm46 16c-4,1 -6,1 -7,1 0,0 -1,0 -1,0 -1,1 1,3 3,4 2,1 4,1 6,1 0,0 1,5 2,5 3,11 5,17 12,25 0,1 2,3 2,3 1,1 3,3 4,2 1,0 3,-4 3,-6 1,-4 1,-5 -2,-9 -4,-5 -10,-17 -11,-23 1,-1 4,-1 6,-4 1,-1 2,-2 2,-4 4,-8 -7,-1 -10,1 -2,-7 -2,-17 -4,-25 0,-1 0,-5 -2,-5 0,-1 -1,0 -2,0l-1 8c-1,8 -2,17 -1,24 0,1 1,2 1,2zm19 -41c-2,0 -3,-2 -3,-3 -1,-1 -1,-4 -1,-4 0,-1 -1,-1 -1,0 0,7 -7,9 -5,19 1,4 4,7 7,9 5,3 8,4 13,8 4,3 3,0 6,-4 6,-8 11,-7 11,-19 -1,-7 -2,-2 -4,1 -1,0 -2,2 -3,2 -1,1 -1,1 -1,0 1,-4 2,-7 0,-13 -2,-5 -5,-9 -8,-13 -2,-1 -11,-12 -13,-11 -1,0 0,3 1,3 1,3 2,4 2,7 1,3 1,16 -1,18zm-4 -2c-1,2 -3,7 -3,9 0,2 0,4 0,6 2,3 5,6 8,7 2,1 10,6 10,6 2,-5 9,-9 12,-13 0,-1 2,-4 2,-6 -1,2 -6,6 -7,6 -1,0 -2,-2 -2,-3 1,-5 2,-8 0,-14 -1,-4 -3,-7 -5,-10 -2,-2 -3,-3 -4,-4l-4 -5c0,1 1,3 1,4 1,5 1,10 0,14 0,3 -1,7 -3,7 -2,1 -5,-2 -5,-4zm46 29c0,7 0,8 2,15 2,14 6,23 13,35 1,1 3,4 5,4 2,-1 4,-8 4,-10 0,-1 -2,-3 -2,-4 -7,-11 -9,-16 -13,-29 -2,-7 -3,-11 -4,-19 0,-1 0,-3 -1,-4 -2,-1 -3,0 -3,2 -1,2 -1,7 -1,10zm-17 7c0,5 0,8 1,14 2,7 4,14 7,20 2,4 4,7 6,10 1,1 3,4 5,4 2,-1 4,-8 2,-10 0,-1 -1,-2 -2,-3 -6,-11 -14,-33 -12,-47 0,-1 0,-3 0,-5 0,-2 -3,-3 -4,2 -1,2 -1,5 -2,5 0,3 -1,7 -1,10zm-17 7c0,5 0,6 1,11 1,6 2,12 5,17 1,2 5,11 8,8 2,-2 4,-9 3,-12 -4,-7 -9,-18 -10,-25 -1,-1 -1,-5 -2,-7 0,-1 -4,-1 -4,1 -1,2 -1,5 -1,7zm88 53c-1,8 -4,18 -7,25 -3,6 -6,12 -8,4 -1,-2 -1,-4 -1,-7 -1,-7 3,-18 6,-23 2,-2 4,-4 7,-5 2,-1 1,1 2,1 1,-1 0,-2 -1,-2 -2,-2 -6,0 -7,1 -6,4 -10,10 -12,16 -3,9 -3,27 6,33 3,2 7,-1 9,-4 1,-1 2,-3 3,-4l2 -5c0,8 0,17 1,25 1,6 1,6 -7,4 -45,-11 -77,-16 -122,-4 -14,4 -27,9 -40,17 -12,8 -25,18 -36,28 -4,4 -1,4 3,1 6,-3 13,-7 15,-8l7 -3c4,-2 11,-5 15,-7 3,-1 6,-2 8,-3 3,-1 6,-2 8,-3 37,-14 64,-17 102,-12 11,2 20,5 30,7 7,1 13,3 20,4 6,0 10,-8 9,-13 0,-2 -1,-4 -1,-6 -4,-18 -5,-46 -4,-64 0,-1 0,-4 0,-5 -1,-2 -6,-2 -6,0 -1,4 -1,8 -1,12zm-42 7c0,0 -1,-8 -2,-10 0,-1 -1,-5 -1,-7 -1,0 -1,0 -2,0 -1,0 -1,4 -1,6 0,1 0,1 0,2 0,1 0,2 0,3 0,5 0,10 0,15 0,4 -1,9 -1,13 0,2 4,9 6,8 3,-1 5,-11 7,-16 0,-2 1,-3 1,0 0,5 1,10 6,13 0,0 1,0 2,-1 1,-1 2,-5 2,-6 1,-1 1,-1 1,-3 0,-3 -1,-7 -1,-11 0,-3 0,-6 0,-9 0,-3 1,-12 0,-14 0,-3 -4,-3 -6,-2 -1,0 -2,0 -2,0 -2,1 -4,7 -5,9 -2,3 -3,7 -4,10zm-97 7c0,-3 0,-13 0,-16 0,-1 0,-5 0,-7 0,-2 0,-3 -2,-3 0,0 -1,0 -1,0 -1,1 -1,3 -1,4 -1,6 -3,17 -3,23 0,6 0,11 3,17 1,2 5,8 9,4 1,-2 3,-6 4,-8 0,-2 1,-4 2,-5 0,1 0,2 1,3 0,1 3,7 5,4 2,-2 3,-6 3,-9 0,-1 -1,-2 -1,-3 -1,-4 -1,-8 -2,-13 0,-2 0,-4 -1,-7 0,-3 1,-8 1,-11 -1,-3 -5,-2 -7,-1 -1,0 -1,0 -1,2 0,1 0,2 -1,3 0,4 0,5 -1,9 0,4 -3,16 -4,20 -2,7 -3,-5 -3,-6zm52 -3c0,3 0,7 0,10l0 11c0,3 0,4 1,6 1,1 2,2 3,3 2,1 4,-7 5,-8 1,-6 2,-10 4,-15 0,-2 1,-4 1,-5l1 6c0,3 0,9 1,12 1,1 3,5 4,6 2,3 3,1 4,-2 0,-2 1,-3 1,-4 1,-3 0,-8 0,-11 -1,-7 -1,-14 -2,-21 0,-2 0,-4 -1,-4 -1,-3 -7,-2 -8,-1 -1,1 -2,3 -2,4 -2,3 -3,5 -4,8 0,2 -1,3 -1,4 0,1 -1,4 -1,5 -1,-7 -2,-18 -4,-24 0,-1 0,-3 -1,-3 -1,0 -2,0 -2,1 0,0 0,2 0,2 1,6 1,14 1,20zm29 23c0,1 4,9 6,5 1,0 1,-2 2,-3 1,-4 0,-5 -1,-9 -2,-7 -2,-11 -3,-18 -1,-4 -1,-9 -2,-13 0,0 0,-1 0,-1 0,-2 0,-3 -2,-3 -1,0 -2,0 -2,1 -2,2 -1,34 2,41zm-57 -40l-5 2c0,0 -1,0 -1,1 0,0 0,1 1,1 1,1 4,0 5,0 0,0 1,7 1,8 0,1 0,2 0,3 0,0 1,1 0,1 -1,1 -2,2 -3,3 -1,1 -2,1 -2,2 -1,3 2,7 4,9 1,1 2,1 3,1 0,0 0,0 1,2 0,3 1,8 4,10 2,3 3,-2 3,-4 1,-1 1,-3 1,-4l-1 -4c3,0 8,3 10,1 2,-1 6,-10 1,-12 -3,-1 -4,-1 -7,-2 -1,0 -1,0 0,-1 2,-3 4,-5 7,-9 2,-3 3,-6 3,-10 0,-2 -3,-2 -4,-2 -6,-1 -12,2 -18,3 0,0 0,0 0,0 -1,0 -2,0 -2,0 -1,1 -1,1 -1,1zm4 3c0,0 2,9 2,9 1,-1 10,-9 10,-11 -5,0 -7,1 -12,2zm-80 -7c-1,0 -6,2 -8,3 0,0 -1,0 -1,1 -1,3 8,-1 10,-1 0,0 2,9 2,10 2,9 4,19 7,28 0,2 0,2 -2,2 -4,0 -7,0 -11,0 -5,0 10,10 11,11 11,3 25,-11 30,-18 6,-9 12,-27 -3,-29 -4,0 -10,1 -14,2 -1,1 -3,1 -4,2 0,-1 1,-1 1,-2l3 -5c1,-2 4,-8 -1,-9 -2,0 -5,1 -7,1 -2,0 -5,1 -7,2 -2,0 -1,0 -2,-1 0,-2 -2,-9 -3,-10 -2,0 -1,3 -1,6 0,1 0,4 1,6 0,0 0,0 -1,1zm13 24c1,5 3,10 5,16 4,-2 13,-12 15,-15 10,-15 -12,-6 -18,-3 0,1 -1,1 -2,2zm-7 -22c1,2 2,6 2,8 1,1 2,0 3,-2 1,-1 4,-5 5,-7 1,-1 0,-1 -1,-1 -3,0 -6,1 -9,1 0,1 0,1 0,1z"/>
    <path id="1" class="fil2" d="M49 56c0,14 15,23 26,30 2,1 6,3 8,5 3,3 3,3 -2,4 -3,0 -22,1 -23,-2 0,-3 0,-12 -2,-11 -4,2 -9,9 -11,13 -2,5 0,8 4,11 2,2 12,3 16,3 9,1 19,1 26,-3 4,-2 7,-10 6,-15 -1,-4 -8,-9 -11,-11 -8,-6 -20,-9 -27,-18 0,-1 -1,-2 -2,-3 -5,-12 18,-23 22,-18 1,1 1,3 2,4 1,6 0,11 0,17 0,4 1,-1 1,-2 1,-1 1,-2 1,-3 1,-5 2,-13 0,-18 -2,-2 -2,-2 -5,-4 -4,-1 -11,1 -14,2 -4,2 -7,4 -10,7 -2,3 -5,7 -5,12zm46 16c-4,1 -6,1 -7,1 0,0 -1,0 -1,0 -1,1 1,3 3,4 2,1 4,1 6,1 0,0 1,5 2,5 3,11 5,17 12,25 0,1 2,3 2,3 1,1 3,3 4,2 1,0 3,-4 3,-6 1,-4 1,-5 -2,-9 -4,-5 -10,-17 -11,-23 1,-1 4,-1 6,-4 1,-1 2,-2 2,-4 4,-8 -7,-1 -10,1 -2,-7 -2,-17 -4,-25 0,-1 0,-5 -2,-5 0,-1 -1,0 -2,0l-1 8c-1,8 -2,17 -1,24 0,1 1,2 1,2zm19 -41c-2,0 -3,-2 -3,-3 -1,-1 -1,-4 -1,-4 0,-1 -1,-1 -1,0 0,7 -7,9 -5,19 1,4 4,7 7,9 5,3 8,4 13,8 4,3 3,0 6,-4 6,-8 11,-7 11,-19 -1,-7 -2,-2 -4,1 -1,0 -2,2 -3,2 -1,1 -1,1 -1,0 1,-4 2,-7 0,-13 -2,-5 -5,-9 -8,-13 -2,-1 -11,-12 -13,-11 -1,0 0,3 1,3 1,3 2,4 2,7 1,3 1,16 -1,18zm-4 -2c-1,2 -3,7 -3,9 0,2 0,4 0,6 2,3 5,6 8,7 2,1 10,6 10,6 2,-5 9,-9 12,-13 0,-1 2,-4 2,-6 -1,2 -6,6 -7,6 -1,0 -2,-2 -2,-3 1,-5 2,-8 0,-14 -1,-4 -3,-7 -5,-10 -2,-2 -3,-3 -4,-4l-4 -5c0,1 1,3 1,4 1,5 1,10 0,14 0,3 -1,7 -3,7 -2,1 -5,-2 -5,-4zm46 29c0,7 0,8 2,15 2,14 6,23 13,35 1,1 3,4 5,4 2,-1 4,-8 4,-10 0,-1 -2,-3 -2,-4 -7,-11 -9,-16 -13,-29 -2,-7 -3,-11 -4,-19 0,-1 0,-3 -1,-4 -2,-1 -3,0 -3,2 -1,2 -1,7 -1,10zm-17 7c0,5 0,8 1,14 2,7 4,14 7,20 2,4 4,7 6,10 1,1 3,4 5,4 2,-1 4,-8 2,-10 0,-1 -1,-2 -2,-3 -6,-11 -14,-33 -12,-47 0,-1 0,-3 0,-5 0,-2 -3,-3 -4,2 -1,2 -1,5 -2,5 0,3 -1,7 -1,10zm-17 7c0,5 0,6 1,11 1,6 2,12 5,17 1,2 5,11 8,8 2,-2 4,-9 3,-12 -4,-7 -9,-18 -10,-25 -1,-1 -1,-5 -2,-7 0,-1 -4,-1 -4,1 -1,2 -1,5 -1,7zm88 53c-1,8 -4,18 -7,25 -3,6 -6,12 -8,4 -1,-2 -1,-4 -1,-7 -1,-7 3,-18 6,-23 2,-2 4,-4 7,-5 2,-1 1,1 2,1 1,-1 0,-2 -1,-2 -2,-2 -6,0 -7,1 -6,4 -10,10 -12,16 -3,9 -3,27 6,33 3,2 7,-1 9,-4 1,-1 2,-3 3,-4l2 -5c0,8 0,17 1,25 1,6 1,6 -7,4 -45,-11 -77,-16 -122,-4 -14,4 -27,9 -40,17 -12,8 -25,18 -36,28 -4,4 -1,4 3,1 6,-3 13,-7 15,-8l7 -3c4,-2 11,-5 15,-7 3,-1 6,-2 8,-3 3,-1 6,-2 8,-3 37,-14 64,-17 102,-12 11,2 20,5 30,7 7,1 13,3 20,4 6,0 10,-8 9,-13 0,-2 -1,-4 -1,-6 -4,-18 -5,-46 -4,-64 0,-1 0,-4 0,-5 -1,-2 -6,-2 -6,0 -1,4 -1,8 -1,12zm-42 7c0,0 -1,-8 -2,-10 0,-1 -1,-5 -1,-7 -1,0 -1,0 -2,0 -1,0 -1,4 -1,6 0,1 0,1 0,2 0,1 0,2 0,3 0,5 0,10 0,15 0,4 -1,9 -1,13 0,2 4,9 6,8 3,-1 5,-11 7,-16 0,-2 1,-3 1,0 0,5 1,10 6,13 0,0 1,0 2,-1 1,-1 2,-5 2,-6 1,-1 1,-1 1,-3 0,-3 -1,-7 -1,-11 0,-3 0,-6 0,-9 0,-3 1,-12 0,-14 0,-3 -4,-3 -6,-2 -1,0 -2,0 -2,0 -2,1 -4,7 -5,9 -2,3 -3,7 -4,10zm-97 7c0,-3 0,-13 0,-16 0,-1 0,-5 0,-7 0,-2 0,-3 -2,-3 0,0 -1,0 -1,0 -1,1 -1,3 -1,4 -1,6 -3,17 -3,23 0,6 0,11 3,17 1,2 5,8 9,4 1,-2 3,-6 4,-8 0,-2 1,-4 2,-5 0,1 0,2 1,3 0,1 3,7 5,4 2,-2 3,-6 3,-9 0,-1 -1,-2 -1,-3 -1,-4 -1,-8 -2,-13 0,-2 0,-4 -1,-7 0,-3 1,-8 1,-11 -1,-3 -5,-2 -7,-1 -1,0 -1,0 -1,2 0,1 0,2 -1,3 0,4 0,5 -1,9 0,4 -3,16 -4,20 -2,7 -3,-5 -3,-6zm52 -3c0,3 0,7 0,10l0 11c0,3 0,4 1,6 1,1 2,2 3,3 2,1 4,-7 5,-8 1,-6 2,-10 4,-15 0,-2 1,-4 1,-5l1 6c0,3 0,9 1,12 1,1 3,5 4,6 2,3 3,1 4,-2 0,-2 1,-3 1,-4 1,-3 0,-8 0,-11 -1,-7 -1,-14 -2,-21 0,-2 0,-4 -1,-4 -1,-3 -7,-2 -8,-1 -1,1 -2,3 -2,4 -2,3 -3,5 -4,8 0,2 -1,3 -1,4 0,1 -1,4 -1,5 -1,-7 -2,-18 -4,-24 0,-1 0,-3 -1,-3 -1,0 -2,0 -2,1 0,0 0,2 0,2 1,6 1,14 1,20zm29 23c0,1 4,9 6,5 1,0 1,-2 2,-3 1,-4 0,-5 -1,-9 -2,-7 -2,-11 -3,-18 -1,-4 -1,-9 -2,-13 0,0 0,-1 0,-1 0,-2 0,-3 -2,-3 -1,0 -2,0 -2,1 -2,2 -1,34 2,41zm-57 -40l-5 2c0,0 -1,0 -1,1 0,0 0,1 1,1 1,1 4,0 5,0 0,0 1,7 1,8 0,1 0,2 0,3 0,0 1,1 0,1 -1,1 -2,2 -3,3 -1,1 -2,1 -2,2 -1,3 2,7 4,9 1,1 2,1 3,1 0,0 0,0 1,2 0,3 1,8 4,10 2,3 3,-2 3,-4 1,-1 1,-3 1,-4l-1 -4c3,0 8,3 10,1 2,-1 6,-10 1,-12 -3,-1 -4,-1 -7,-2 -1,0 -1,0 0,-1 2,-3 4,-5 7,-9 2,-3 3,-6 3,-10 0,-2 -3,-2 -4,-2 -6,-1 -12,2 -18,3 0,0 0,0 0,0 -1,0 -2,0 -2,0 -1,1 -1,1 -1,1zm4 3c0,0 2,9 2,9 1,-1 10,-9 10,-11 -5,0 -7,1 -12,2zm-80 -7c-1,0 -6,2 -8,3 0,0 -1,0 -1,1 -1,3 8,-1 10,-1 0,0 2,9 2,10 2,9 4,19 7,28 0,2 0,2 -2,2 -4,0 -7,0 -11,0 -5,0 10,10 11,11 11,3 25,-11 30,-18 6,-9 12,-27 -3,-29 -4,0 -10,1 -14,2 -1,1 -3,1 -4,2 0,-1 1,-1 1,-2l3 -5c1,-2 4,-8 -1,-9 -2,0 -5,1 -7,1 -2,0 -5,1 -7,2 -2,0 -1,0 -2,-1 0,-2 -2,-9 -3,-10 -2,0 -1,3 -1,6 0,1 0,4 1,6 0,0 0,0 -1,1zm13 24c1,5 3,10 5,16 4,-2 13,-12 15,-15 10,-15 -12,-6 -18,-3 0,1 -1,1 -2,2zm-7 -22c1,2 2,6 2,8 1,1 2,0 3,-2 1,-1 4,-5 5,-7 1,-1 0,-1 -1,-1 -3,0 -6,1 -9,1 0,1 0,1 0,1z"/>
   </g>
  </g>
 </g>
</svg>
